<svg width="41" height="41" viewBox="0 0 41 41" fill="none" xmlns="http://www.w3.org/2000/svg">
<path d="M38.0985 2.39453H33.7455C33.1538 2.39453 32.675 2.8733 32.675 3.46495V4.53538H23.9145C23.4711 3.29212 22.2941 2.39453 20.9004 2.39453C19.5067 2.39453 18.3297 3.29212 17.8863 4.53538H9.12574V3.46495C9.12574 2.8733 8.64697 2.39453 8.05531 2.39453H3.70226C3.1106 2.39453 2.63184 2.8733 2.63184 3.46495V7.74665C2.63184 8.33831 3.1106 8.81707 3.70226 8.81707H8.05531C8.64697 8.81707 9.12574 8.33831 9.12574 7.74665V6.66195H13.5219C9.80703 8.9827 7.35754 13.0588 7.06474 17.6242C5.78038 18.0445 4.84404 19.2401 4.84404 20.6631C4.84404 22.4339 6.28455 23.8744 8.05531 23.8744C9.82608 23.8744 11.2666 22.4339 11.2666 20.6631C11.2666 19.2972 10.4059 18.136 9.20138 17.6725C9.56661 12.5827 13.1181 8.29271 18.0583 7.06871C18.5926 8.10181 19.6592 8.81707 20.9004 8.81707C22.1416 8.81707 23.2082 8.10181 23.7425 7.06871C28.6827 8.29263 32.2342 12.5826 32.5994 17.6725C31.3949 18.136 30.5342 19.2972 30.5342 20.6631C30.5342 22.4339 31.9747 23.8744 33.7455 23.8744C35.5162 23.8744 36.9567 22.4339 36.9567 20.6631C36.9567 19.2401 36.0204 18.0445 34.736 17.6242C34.4432 13.0588 31.9938 8.99697 28.2789 6.67622H32.675V7.74665C32.675 8.33831 33.1538 8.81707 33.7455 8.81707H38.0985C38.6902 8.81707 39.1689 8.33831 39.1689 7.74665V3.46495C39.1689 2.8733 38.6902 2.39453 38.0985 2.39453ZM28.1828 37.604C27.6229 35.8906 26.0099 34.5786 24.1117 34.5786H17.6891C15.7909 34.5786 14.1778 35.8906 13.6179 37.604C13.4021 38.2646 13.964 38.9316 14.6591 38.9316H27.1417C27.8367 38.9316 28.3987 38.2646 28.1828 37.604Z" fill="#FDA700"/>
<path d="M30.3544 24.3508L21.9708 11.7754V21.9304C23.2141 22.3738 24.1117 23.5508 24.1117 24.9445C24.1117 26.7153 22.6712 28.1558 20.9004 28.1558C19.1297 28.1558 17.6892 26.7153 17.6892 24.9445C17.6892 23.5508 18.5867 22.3738 19.83 21.9304V11.7754L11.4464 24.3508C11.1631 24.7752 11.2196 25.3407 11.5802 25.7014C13.5453 27.6665 14.8014 30.198 15.2862 32.9135C16.0298 32.6119 16.8385 32.4375 17.6892 32.4375H24.1117C24.9623 32.4375 25.7711 32.6118 26.5146 32.9134C26.9994 30.1977 28.2555 27.6665 30.2206 25.7014C30.5813 25.3407 30.6377 24.7752 30.3544 24.3508Z" fill="#FDA700"/>
<path d="M20.9005 23.875C20.3099 23.875 19.8301 24.3548 19.8301 24.9454C19.8301 25.536 20.3099 26.0158 20.9005 26.0158C21.4911 26.0158 21.9709 25.536 21.9709 24.9454C21.9709 24.3548 21.4911 23.875 20.9005 23.875Z" fill="#FDA700"/>
</svg>
