<svg width="41" height="41" viewBox="0 0 41 41" fill="none" xmlns="http://www.w3.org/2000/svg">
<path d="M29.3684 28.678L27.7364 25.4141L26.1045 28.678H29.3684Z" fill="#FDA700"/>
<path d="M35.7434 15.9785H34.083V12.4658C34.083 12.3019 34.0487 12.1399 33.9822 11.9901C33.9156 11.8404 33.8185 11.7062 33.6969 11.5963C33.5753 11.4865 33.432 11.4033 33.2763 11.3523C33.1206 11.3012 32.9559 11.2834 32.7929 11.2999C32.6063 11.3188 28.4268 11.7915 26.3459 15.9785H24.6431V18.548C24.6431 21.778 22.0152 24.4059 18.7852 24.4059H16.2158V35.5061C16.2158 37.4438 17.7923 39.0202 19.7299 39.0202H35.7434C37.681 39.0203 39.2575 37.4438 39.2575 35.5062V19.4927C39.2575 17.555 37.681 15.9785 35.7434 15.9785ZM21.9843 31.6795L26.6884 22.2712C26.7857 22.0766 26.9353 21.9128 27.1204 21.7984C27.3056 21.684 27.5189 21.6234 27.7366 21.6234C27.9542 21.6234 28.1676 21.684 28.3527 21.7984C28.5378 21.9128 28.6874 22.0766 28.7848 22.2712L33.4889 31.6795C33.7784 32.2584 33.5437 32.9622 32.9648 33.2517C32.386 33.5412 31.682 33.3066 31.3926 32.7277L30.5405 31.0234H24.9328L24.0807 32.7277C23.8754 33.1383 23.4615 33.3757 23.0316 33.3757C22.8555 33.3757 22.6767 33.3359 22.5085 33.2517C21.9295 32.9623 21.6949 32.2584 21.9843 31.6795ZM12.8888 9.89062H10.668C10.813 11.0516 11.1846 12.0278 11.7784 12.8144C12.3722 12.0278 12.7438 11.0516 12.8888 9.89062Z" fill="#FDA700"/>
<path d="M18.8629 21.6386C20.5243 21.6386 21.8759 20.2869 21.8759 18.6256V4.89587C21.8759 3.23448 20.5242 1.88282 18.8629 1.88282H5.13316C3.47177 1.88282 2.12012 3.23448 2.12012 4.89587V18.6256C2.12012 20.287 3.47177 21.6386 5.1331 21.6386H6.55663V24.6503C6.55663 24.7908 6.5861 24.9298 6.64313 25.0582C6.70016 25.1866 6.78349 25.3016 6.88773 25.3958C6.99197 25.49 7.11481 25.5613 7.24831 25.605C7.38181 25.6488 7.52301 25.6641 7.66279 25.6499C7.82275 25.6337 11.4062 25.2285 13.1903 21.6386H18.8629ZM12.5335 15.8738C12.3504 15.776 12.1717 15.67 11.998 15.5563C11.8243 15.6701 11.6457 15.776 11.4626 15.8738C9.74818 16.7882 8.03683 16.7987 7.96482 16.7987C7.40993 16.7987 6.96007 16.3488 6.96007 15.7939C6.96007 15.239 7.40993 14.7892 7.96482 14.7892C7.97366 14.7891 9.21332 14.7711 10.4468 14.1373C9.74108 13.2336 9.18485 12.0073 9.02416 10.3455H7.96475C7.40986 10.3455 6.96 9.89564 6.96 9.34075C6.96 8.78586 7.40986 8.336 7.96475 8.336H10.9933V7.72745C10.9933 7.17256 11.4431 6.7227 11.998 6.7227C12.5529 6.7227 13.0028 7.17256 13.0028 7.72745V8.336H16.0312C16.5861 8.336 17.036 8.78586 17.036 9.34075C17.036 9.89564 16.5861 10.3455 16.0312 10.3455H14.9719C14.8112 12.0073 14.255 13.2336 13.5493 14.1373C14.7827 14.7711 16.0226 14.789 16.0354 14.7892C16.5903 14.7892 17.0381 15.239 17.0381 15.7939C17.0381 16.3488 16.5861 16.7987 16.0312 16.7987C15.9592 16.7987 14.2479 16.7882 12.5335 15.8738ZM26.6139 7.63127C26.8101 7.82746 27.0672 7.92559 27.3243 7.92559C27.5814 7.92559 27.8386 7.82753 28.0347 7.63127C28.4271 7.23888 28.4271 6.60274 28.0347 6.21035L27.7463 5.92192C31.4444 6.14102 34.386 9.21851 34.386 12.9706C34.386 13.5255 34.8359 13.9754 35.3908 13.9754C35.9456 13.9754 36.3955 13.5255 36.3955 12.9706C36.3955 8.10276 32.5411 4.11873 27.724 3.90873L28.0347 3.598C28.4271 3.20561 28.4271 2.56947 28.0347 2.17708C27.6424 1.78476 27.0062 1.78469 26.6138 2.17708L24.5973 4.19375C24.2049 4.58614 24.2049 5.22228 24.5973 5.61467L26.6139 7.63127ZM11.9018 30.4098C11.5095 30.0174 10.8733 30.0174 10.4809 30.4098C10.0885 30.8022 10.0885 31.4383 10.4809 31.8307L10.7693 32.1191C7.07126 31.9001 4.12962 28.8225 4.12962 25.0704C4.12962 24.5155 3.67976 24.0656 3.12487 24.0656C2.56998 24.0656 2.12012 24.5155 2.12012 25.0704C2.12012 29.9383 5.97454 33.9223 10.7917 34.1323L10.4809 34.443C10.0885 34.8354 10.0885 35.4716 10.4809 35.864C10.6771 36.0601 10.9343 36.1582 11.1913 36.1582C11.4484 36.1582 11.7056 36.0601 11.9018 35.8639L13.9184 33.8473C14.3108 33.4549 14.3108 32.8188 13.9184 32.4264L11.9018 30.4098Z" fill="#FDA700"/>
</svg>
