<svg width="41" height="41" viewBox="0 0 41 41" fill="none" xmlns="http://www.w3.org/2000/svg">
<path d="M12.9863 25.0879C12.638 25.0879 12.4034 25.122 12.2822 25.156V27.3856C12.4261 27.4196 12.6059 27.4291 12.8538 27.4291C13.7604 27.4291 14.3187 26.9711 14.3187 26.1989C14.3187 25.5043 13.838 25.0879 12.9863 25.0879ZM19.586 25.1106C19.2075 25.1106 18.9614 25.1447 18.8157 25.1787V30.1186C18.9614 30.1526 19.1961 30.1526 19.4081 30.1526C20.9544 30.164 21.9613 29.3123 21.9613 27.5105C21.9726 25.9396 21.0547 25.1106 19.586 25.1106Z" fill="#FDA700"/>
<path d="M23.8377 1.08984H8.69645C7.69252 1.08984 6.72971 1.48865 6.01983 2.19854C5.30994 2.90842 4.91113 3.87123 4.91113 4.87516V35.1577C4.91113 36.1616 5.30994 37.1245 6.01983 37.8343C6.72971 38.5442 7.69252 38.943 8.69645 38.943H31.4084C32.4123 38.943 33.3751 38.5442 34.085 37.8343C34.7949 37.1245 35.1937 36.1616 35.1937 35.1577V12.4458L23.8377 1.08984ZM15.317 27.9467C14.7321 28.4956 13.8691 28.7416 12.8641 28.7416C12.6692 28.7437 12.4744 28.7323 12.2811 28.7075V31.4065H10.5891V23.957C11.3519 23.8434 12.1241 23.7904 12.8963 23.8018C13.9505 23.8018 14.7 24.0024 15.2053 24.4055C15.686 24.7878 16.0116 25.4143 16.0116 26.1524C16.0097 26.8944 15.7636 27.5208 15.317 27.9467ZM22.5223 30.5112C21.7274 31.1718 20.518 31.486 19.0398 31.486C18.1541 31.486 17.5276 31.4292 17.1018 31.3724V23.9588C17.8656 23.8473 18.637 23.7948 19.4089 23.8018C20.8416 23.8018 21.7728 24.0592 22.4996 24.608C23.2851 25.191 23.7772 26.1203 23.7772 27.4546C23.7772 28.8987 23.2491 29.8961 22.5223 30.5112ZM29.5157 25.2591H26.6162V26.9833H29.3264V28.3725H26.6162V31.4084H24.9014V23.8585H29.5157V25.2591ZM23.8377 14.3385H21.9451V4.87516L31.4084 14.3385H23.8377Z" fill="#FDA700"/>
</svg>
