<svg width="41" height="41" viewBox="0 0 41 41" fill="none" xmlns="http://www.w3.org/2000/svg">
<g clip-path="url(#clip0_205_105)">
<path d="M39.773 21.8411L36.7072 18.7691C36.2891 18.3461 35.6072 18.3421 35.1843 18.7602L35.1753 18.7691L24.9014 29.043L21.1438 25.2793C20.7258 24.8563 20.0439 24.8523 19.6209 25.2703L19.6119 25.2793L16.54 28.3513C16.1179 28.7747 16.1179 29.4598 16.54 29.8832L24.1352 37.4927C24.5536 37.9159 25.2359 37.9198 25.6591 37.5014L25.6679 37.4927L39.7733 23.373C40.1949 22.9492 40.1944 22.2642 39.7719 21.8411H39.773ZM19.4715 20.4523H25.667C28.5966 20.4523 31.2278 18.2687 31.398 15.3431C31.4447 14.5481 31.3154 13.7526 31.0193 13.0133C30.7232 12.274 30.2676 11.6091 29.6851 11.0661C30.1831 10.1328 30.3967 9.07396 30.2994 8.02055C30.0438 5.16492 27.4262 3.0918 24.5576 3.0918H19.4715C18.8723 3.0918 18.3865 3.57758 18.3865 4.1768V19.3672C18.3865 19.9665 18.8722 20.4523 19.4715 20.4523ZM22.184 6.88938H24.8966C25.7954 6.88938 26.5242 7.61805 26.5242 8.51695C26.5242 9.41586 25.7955 10.1445 24.8966 10.1445H22.184V6.88938ZM22.184 13.3995H25.9816C26.8804 13.3995 27.6092 14.1282 27.6092 15.0271C27.6092 15.926 26.8805 16.6547 25.9816 16.6547H22.184V13.3995ZM11.5454 4.60062C11.4052 4.16253 11.1295 3.78029 10.758 3.5091C10.3865 3.2379 9.93838 3.09177 9.47842 3.0918H7.76404C7.30406 3.09176 6.85597 3.23789 6.48444 3.50909C6.11292 3.78029 5.83717 4.16252 5.69701 4.60062L1.06599 19.0777C0.906073 19.6552 1.24459 20.253 1.82209 20.4129C1.91615 20.439 2.01334 20.4522 2.11099 20.4523H3.80162C4.03893 20.4523 4.26969 20.3745 4.45857 20.2308C4.64744 20.0871 4.784 19.8855 4.84732 19.6568L5.65701 17.1972H11.5854L12.3951 19.6568C12.4584 19.8855 12.5949 20.0871 12.7838 20.2308C12.9727 20.3745 13.2035 20.4523 13.4408 20.4523H15.1314C15.7306 20.4523 16.2164 19.9665 16.2165 19.3673C16.2165 19.2694 16.2033 19.172 16.1771 19.0777L11.5454 4.60062ZM7.08654 12.857L8.62115 8.1982L10.1558 12.857H7.08654Z" fill="#FDA700"/>
</g>
<defs>
<clipPath id="clip0_205_105">
<rect width="40" height="40" fill="white" transform="translate(0.557617 0.453125)"/>
</clipPath>
</defs>
</svg>
