<svg width="41" height="41" viewBox="0 0 41 41" fill="none" xmlns="http://www.w3.org/2000/svg">
<path d="M2.89909 35.4974H16.3924C13.5602 33.8134 11.4138 31.1832 10.3317 28.0709C9.24966 24.9586 9.30155 21.5641 10.4782 18.4863C11.6549 15.4086 13.8808 12.8452 16.7631 11.2486C19.6455 9.65189 22.9991 9.12449 26.2324 9.7594V6.83073H23.5658C23.0353 6.83073 22.5266 6.62002 22.1515 6.24494C21.7765 5.86987 21.5658 5.36116 21.5658 4.83073V2.16406H2.89909C2.72228 2.16406 2.55271 2.2343 2.42768 2.35932C2.30266 2.48435 2.23242 2.65392 2.23242 2.83073V34.8307C2.23242 35.0075 2.30266 35.1771 2.42768 35.3021C2.55271 35.4272 2.72228 35.4974 2.89909 35.4974ZM5.56576 4.16406H18.8991C19.0759 4.16406 19.2455 4.2343 19.3705 4.35933C19.4955 4.48435 19.5658 4.65392 19.5658 4.83073C19.5658 5.00754 19.4955 5.17711 19.3705 5.30213C19.2455 5.42716 19.0759 5.4974 18.8991 5.4974H5.56576C5.38894 5.4974 5.21938 5.42716 5.09435 5.30213C4.96933 5.17711 4.89909 5.00754 4.89909 4.83073C4.89909 4.65392 4.96933 4.48435 5.09435 4.35933C5.21938 4.2343 5.38894 4.16406 5.56576 4.16406ZM5.56576 7.4974H18.8991C19.0759 7.4974 19.2455 7.56763 19.3705 7.69266C19.4955 7.81768 19.5658 7.98725 19.5658 8.16406C19.5658 8.34087 19.4955 8.51044 19.3705 8.63547C19.2455 8.76049 19.0759 8.83073 18.8991 8.83073H5.56576C5.38894 8.83073 5.21938 8.76049 5.09435 8.63547C4.96933 8.51044 4.89909 8.34087 4.89909 8.16406C4.89909 7.98725 4.96933 7.81768 5.09435 7.69266C5.21938 7.56763 5.38894 7.4974 5.56576 7.4974ZM5.56576 10.8307H12.8991C13.0759 10.8307 13.2455 10.901 13.3705 11.026C13.4955 11.151 13.5658 11.3206 13.5658 11.4974C13.5658 11.6742 13.4955 11.8438 13.3705 11.9688C13.2455 12.0938 13.0759 12.1641 12.8991 12.1641H5.56576C5.38894 12.1641 5.21938 12.0938 5.09435 11.9688C4.96933 11.8438 4.89909 11.6742 4.89909 11.4974C4.89909 11.3206 4.96933 11.151 5.09435 11.026C5.21938 10.901 5.38894 10.8307 5.56576 10.8307ZM5.56576 14.1641H9.56576C9.74257 14.1641 9.91214 14.2343 10.0372 14.3593C10.1622 14.4843 10.2324 14.6539 10.2324 14.8307C10.2324 15.0075 10.1622 15.1771 10.0372 15.3021C9.91214 15.4272 9.74257 15.4974 9.56576 15.4974H5.56576C5.38894 15.4974 5.21938 15.4272 5.09435 15.3021C4.96933 15.1771 4.89909 15.0075 4.89909 14.8307C4.89909 14.6539 4.96933 14.4843 5.09435 14.3593C5.21938 14.2343 5.38894 14.1641 5.56576 14.1641ZM5.56576 17.4974H8.23242C8.40923 17.4974 8.5788 17.5676 8.70383 17.6927C8.82885 17.8177 8.89909 17.9873 8.89909 18.1641C8.89909 18.3409 8.82885 18.5104 8.70383 18.6355C8.5788 18.7605 8.40923 18.8307 8.23242 18.8307H5.56576C5.38894 18.8307 5.21938 18.7605 5.09435 18.6355C4.96933 18.5104 4.89909 18.3409 4.89909 18.1641C4.89909 17.9873 4.96933 17.8177 5.09435 17.6927C5.21938 17.5676 5.38894 17.4974 5.56576 17.4974ZM5.56576 20.8307H7.56576C7.74257 20.8307 7.91214 20.901 8.03716 21.026C8.16218 21.151 8.23242 21.3206 8.23242 21.4974C8.23242 21.6742 8.16218 21.8438 8.03716 21.9688C7.91214 22.0938 7.74257 22.1641 7.56576 22.1641H5.56576C5.38894 22.1641 5.21938 22.0938 5.09435 21.9688C4.96933 21.8438 4.89909 21.6742 4.89909 21.4974C4.89909 21.3206 4.96933 21.151 5.09435 21.026C5.21938 20.901 5.38894 20.8307 5.56576 20.8307ZM5.56576 24.1641H7.56576C7.74257 24.1641 7.91214 24.2343 8.03716 24.3593C8.16218 24.4844 8.23242 24.6539 8.23242 24.8307C8.23242 25.0075 8.16218 25.1771 8.03716 25.3021C7.91214 25.4272 7.74257 25.4974 7.56576 25.4974H5.56576C5.38894 25.4974 5.21938 25.4272 5.09435 25.3021C4.96933 25.1771 4.89909 25.0075 4.89909 24.8307C4.89909 24.6539 4.96933 24.4844 5.09435 24.3593C5.21938 24.2343 5.38894 24.1641 5.56576 24.1641ZM5.56576 27.4974H8.23242C8.40923 27.4974 8.5788 27.5676 8.70383 27.6927C8.82885 27.8177 8.89909 27.9873 8.89909 28.1641C8.89909 28.3409 8.82885 28.5104 8.70383 28.6355C8.5788 28.7605 8.40923 28.8307 8.23242 28.8307H5.56576C5.38894 28.8307 5.21938 28.7605 5.09435 28.6355C4.96933 28.5104 4.89909 28.3409 4.89909 28.1641C4.89909 27.9873 4.96933 27.8177 5.09435 27.6927C5.21938 27.5676 5.38894 27.4974 5.56576 27.4974ZM5.56576 30.8307H9.56576C9.74257 30.8307 9.91214 30.901 10.0372 31.026C10.1622 31.151 10.2324 31.3206 10.2324 31.4974C10.2324 31.6742 10.1622 31.8438 10.0372 31.9688C9.91214 32.0938 9.74257 32.1641 9.56576 32.1641H5.56576C5.38894 32.1641 5.21938 32.0938 5.09435 31.9688C4.96933 31.8438 4.89909 31.6742 4.89909 31.4974C4.89909 31.3206 4.96933 31.151 5.09435 31.026C5.21938 30.901 5.38894 30.8307 5.56576 30.8307Z" fill="#FDA700"/>
<path d="M22.8994 4.83014C22.8994 5.00695 22.9697 5.17652 23.0947 5.30154C23.2197 5.42656 23.3893 5.4968 23.5661 5.4968H25.2921L22.8994 3.10547V4.83014ZM23.5661 10.8301C21.0609 10.8301 18.6119 11.573 16.5289 12.9649C14.4458 14.3567 12.8223 16.3349 11.8636 18.6495C10.9049 20.964 10.6541 23.5109 11.1428 25.9679C11.6316 28.425 12.8379 30.682 14.6094 32.4535C16.3809 34.225 18.6378 35.4313 21.0949 35.9201C23.552 36.4088 26.0989 36.158 28.4134 35.1993C30.7279 34.2406 32.7062 32.6171 34.098 30.534C35.4899 28.451 36.2328 26.002 36.2328 23.4968C36.229 20.1385 34.8933 16.9189 32.5187 14.5442C30.144 12.1696 26.9244 10.8338 23.5661 10.8301ZM23.5661 34.8301C20.5603 34.8301 17.6776 33.6361 15.5522 31.5107C13.4268 29.3853 12.2328 26.5026 12.2328 23.4968C12.2328 20.491 13.4268 17.6083 15.5522 15.4829C17.6776 13.3575 20.5603 12.1635 23.5661 12.1635C23.7429 12.1635 23.9125 12.2337 24.0375 12.3587C24.1625 12.4838 24.2328 12.6533 24.2328 12.8301C24.2328 13.0069 24.1625 13.1765 24.0375 13.3015C23.9125 13.4266 23.7429 13.4968 23.5661 13.4968C21.0525 13.498 18.6317 14.4463 16.786 16.1525C14.9403 17.8587 13.8052 20.1978 13.6069 22.7035C13.4085 25.2092 14.1615 27.6976 15.7159 29.673C17.2702 31.6484 19.5117 32.9656 21.9937 33.3622C24.4758 33.7589 27.0162 33.2058 29.1087 31.8132C31.2012 30.4207 32.6923 28.2908 33.2847 25.8481C33.8772 23.4053 33.5276 20.8291 32.3055 18.6326C31.0835 16.4361 29.0787 14.7807 26.6908 13.9961C26.6076 13.9687 26.5306 13.9252 26.4643 13.8681C26.3979 13.8109 26.3435 13.7413 26.304 13.6631C26.2646 13.5849 26.241 13.4997 26.2344 13.4124C26.2279 13.3251 26.2387 13.2373 26.2661 13.1541C26.2935 13.071 26.337 12.994 26.3942 12.9277C26.4513 12.8613 26.5209 12.8069 26.5991 12.7674C26.6773 12.728 26.7625 12.7043 26.8498 12.6978C26.9372 12.6913 27.0249 12.7021 27.1081 12.7295C29.6693 13.5708 31.8467 15.2975 33.2495 17.5996C34.6522 19.9017 35.1884 22.6284 34.7618 25.2903C34.3352 27.9521 32.9737 30.3747 30.9218 32.1232C28.8699 33.8716 26.2619 34.8314 23.5661 34.8301ZM27.0328 19.0968C27.0853 19.0268 27.1511 18.9678 27.2264 18.9232C27.3018 18.8785 27.3851 18.8492 27.4718 18.8368C27.5585 18.8245 27.6467 18.8293 27.7315 18.851C27.8163 18.8727 27.896 18.9109 27.9661 18.9635C28.0361 19.016 28.0951 19.0818 28.1397 19.1571C28.1843 19.2325 28.2137 19.3159 28.2261 19.4025C28.2384 19.4892 28.2336 19.5774 28.2119 19.6623C28.1902 19.7471 28.1519 19.8268 28.0994 19.8968L22.0994 27.8968C22.0423 27.9735 21.9693 28.037 21.8855 28.083C21.8016 28.1291 21.7088 28.1565 21.6134 28.1635H21.5661C21.3893 28.1634 21.2197 28.0932 21.0948 27.9681L19.0948 25.9681C18.9733 25.8424 18.9061 25.674 18.9076 25.4992C18.9092 25.3244 18.9793 25.1572 19.1029 25.0336C19.2265 24.91 19.3937 24.8399 19.5685 24.8384C19.7433 24.8368 19.9117 24.904 20.0374 25.0255L21.4941 26.4821L27.0328 19.0968ZM34.0848 32.7055C33.6768 33.1702 33.239 33.6078 32.7741 34.0155L38.1361 39.3768C38.1732 39.4147 38.2175 39.4448 38.2664 39.4654C38.3152 39.486 38.3677 39.4967 38.4208 39.4968C38.4719 39.4967 38.5224 39.4864 38.5695 39.4665C38.6165 39.4466 38.6591 39.4174 38.6948 39.3808L39.4461 38.6301C39.4837 38.5942 39.5138 38.5511 39.5344 38.5033C39.555 38.4556 39.5658 38.4042 39.5661 38.3521C39.5661 38.2989 39.5555 38.2461 39.5349 38.197C39.5143 38.1479 39.4841 38.1034 39.4461 38.0661L34.0848 32.7055Z" fill="#FDA700"/>
</svg>
