<svg width="41" height="41" viewBox="0 0 41 41" fill="none" xmlns="http://www.w3.org/2000/svg">
<path d="M28.0605 13.002C27.066 13.002 26.1122 12.6069 25.4089 11.9036C24.7056 11.2003 24.3105 10.2465 24.3105 9.25195V3.00195H10.5605C9.56599 3.00195 8.61216 3.39704 7.9089 4.1003C7.20564 4.80356 6.81055 5.75739 6.81055 6.75195V34.252C6.81055 35.2465 7.20564 36.2003 7.9089 36.9036C8.61216 37.6069 9.56599 38.002 10.5605 38.002H30.5605C31.5551 38.002 32.5089 37.6069 33.2122 36.9036C33.9155 36.2003 34.3105 35.2465 34.3105 34.252V13.002H28.0605ZM16.8105 9.25195C17.5522 9.25195 18.2773 9.47189 18.8939 9.88394C19.5106 10.296 19.9913 10.8817 20.2751 11.5669C20.5589 12.2521 20.6332 13.0061 20.4885 13.7335C20.3438 14.461 19.9866 15.1292 19.4622 15.6536C18.9378 16.1781 18.2696 16.5352 17.5421 16.6799C16.8147 16.8246 16.0607 16.7503 15.3755 16.4665C14.6903 16.1827 14.1046 15.702 13.6925 15.0853C13.2805 14.4687 13.0605 13.7436 13.0605 13.002C13.0605 12.0074 13.4556 11.0536 14.1589 10.3503C14.8622 9.64704 15.816 9.25195 16.8105 9.25195ZM11.8105 21.752C11.8105 20.7574 12.2056 19.8036 12.9089 19.1003C13.6122 18.397 14.566 18.002 15.5605 18.002H18.0605C19.0551 18.002 20.0089 18.397 20.7122 19.1003C21.4155 19.8036 21.8105 20.7574 21.8105 21.752V24.252C21.8105 24.5835 21.6789 24.9014 21.4444 25.1358C21.21 25.3703 20.8921 25.502 20.5605 25.502H13.0605C12.729 25.502 12.4111 25.3703 12.1767 25.1358C11.9422 24.9014 11.8105 24.5835 11.8105 24.252V21.752ZM28.0605 31.752H13.0605C12.729 31.752 12.4111 31.6203 12.1767 31.3858C11.9422 31.1514 11.8105 30.8335 11.8105 30.502C11.8105 30.1704 11.9422 29.8525 12.1767 29.6181C12.4111 29.3836 12.729 29.252 13.0605 29.252H28.0605C28.3921 29.252 28.71 29.3836 28.9444 29.6181C29.1789 29.8525 29.3105 30.1704 29.3105 30.502C29.3105 30.8335 29.1789 31.1514 28.9444 31.3858C28.71 31.6203 28.3921 31.752 28.0605 31.752ZM28.0605 25.502H25.5605C25.229 25.502 24.9111 25.3703 24.6767 25.1358C24.4422 24.9014 24.3105 24.5835 24.3105 24.252C24.3105 23.9204 24.4422 23.6025 24.6767 23.3681C24.9111 23.1336 25.229 23.002 25.5605 23.002H28.0605C28.3921 23.002 28.71 23.1336 28.9444 23.3681C29.1789 23.6025 29.3105 23.9204 29.3105 24.252C29.3105 24.5835 29.1789 24.9014 28.9444 25.1358C28.71 25.3703 28.3921 25.502 28.0605 25.502ZM28.0605 19.252H25.5605C25.229 19.252 24.9111 19.1203 24.6767 18.8858C24.4422 18.6514 24.3105 18.3335 24.3105 18.002C24.3105 17.6704 24.4422 17.3525 24.6767 17.1181C24.9111 16.8836 25.229 16.752 25.5605 16.752H28.0605C28.3921 16.752 28.71 16.8836 28.9444 17.1181C29.1789 17.3525 29.3105 17.6704 29.3105 18.002C29.3105 18.3335 29.1789 18.6514 28.9444 18.8858C28.71 19.1203 28.3921 19.252 28.0605 19.252Z" fill="#FDA700"/>
<path d="M28.0605 10.5016H33.5855L26.8105 3.72656V9.25156C26.8105 9.58308 26.9422 9.90103 27.1767 10.1354C27.4111 10.3699 27.729 10.5016 28.0605 10.5016Z" fill="#FDA700"/>
</svg>
