<svg width="41" height="41" viewBox="0 0 41 41" fill="none" xmlns="http://www.w3.org/2000/svg">
<g clip-path="url(#clip0_205_98)">
<path d="M39.1353 33.4909L36.6466 31.0022L30.8401 36.8088L33.3287 39.2974C34.9322 40.9009 37.5319 40.9009 39.1353 39.2974C40.7387 37.694 40.7387 35.0943 39.1353 33.4909ZM37.8059 8.90633L34.4576 0.506016L31.8349 3.12867L35.1833 11.529L37.8059 8.90633ZM33.3793 13.333L30.0309 4.93266L24.7418 10.2218L30.6161 16.0962L33.3793 13.333ZM26.8503 15.6448L7.31813 35.177L5.66086 33.5197L25.193 13.9876L22.497 11.2916L1.79781 31.9908C-0.14875 33.9374 -0.14875 37.0934 1.79781 39.04C3.74438 40.9866 6.90047 40.9866 8.84703 39.04L29.5463 18.3408L26.8503 15.6448ZM13.3937 17.0804L16.9183 13.5558L9.73687 6.37438L0.337891 0.5L6.21227 9.89898L13.3937 17.0804ZM32.0233 26.3788L30.8823 27.5198L27.2821 23.9196L23.7575 27.4442L27.3577 31.0444L26.2167 32.1854L29.1829 35.1515L34.9894 29.345L32.0233 26.3788Z" fill="#FDA700"/>
</g>
<defs>
<clipPath id="clip0_205_98">
<rect width="40" height="40" fill="white" transform="translate(0.337891 0.5)"/>
</clipPath>
</defs>
</svg>
