<svg width="41" height="41" viewBox="0 0 41 41" fill="none" xmlns="http://www.w3.org/2000/svg">
<g clip-path="url(#clip0_205_67)">
<path d="M24.0859 0.660156H4.91927C2.38594 0.660156 0.335938 2.71016 0.335938 5.24349V31.0768C0.335938 33.6102 2.38594 35.6602 4.91927 35.6602H18.5026C17.1026 33.4435 16.1693 30.8268 16.1693 27.8268V23.7602C15.9193 23.9102 15.6359 23.9935 15.3359 23.9935H7.0026C6.08594 23.9935 5.33594 23.2435 5.33594 22.3268C5.33594 21.4102 6.08594 20.6602 7.0026 20.6602H15.3359C15.6526 20.6602 15.9359 20.7435 16.1859 20.8935C16.2526 19.4768 16.9193 18.1768 17.9693 17.3268H7.0026C6.08594 17.3268 5.33594 16.5768 5.33594 15.6602C5.33594 14.7435 6.08594 13.9935 7.0026 13.9935H22.0026C22.7026 13.9935 23.3026 14.4268 23.5526 15.0435L28.3026 13.4268C28.4193 13.3768 28.5359 13.3435 28.6693 13.3268V5.24349C28.6693 2.71016 26.6193 0.660156 24.0859 0.660156ZM13.6693 10.6602H7.0026C6.08594 10.6602 5.33594 9.91016 5.33594 8.99349C5.33594 8.07682 6.08594 7.32682 7.0026 7.32682H13.6693C14.5859 7.32682 15.3359 8.07682 15.3359 8.99349C15.3359 9.91016 14.5859 10.6602 13.6693 10.6602Z" fill="#FDA700"/>
<path d="M39.206 19.5576L30.456 16.581C30.1074 16.4626 29.7295 16.4626 29.381 16.581L20.631 19.5576C20.3015 19.6699 20.0154 19.8825 19.8128 20.1655C19.6102 20.4486 19.5011 20.7879 19.501 21.136V27.8326C19.501 36.2776 28.866 40.3576 29.2643 40.5276C29.4716 40.6143 29.694 40.6588 29.9186 40.6585C30.1433 40.6582 30.3656 40.6132 30.5726 40.526C30.971 40.356 40.336 36.2776 40.336 27.8326V21.136C40.3363 20.7878 40.2275 20.4482 40.0248 20.1651C39.8221 19.882 39.5357 19.6695 39.206 19.5576ZM35.836 25.826L30.836 32.4926C30.6811 32.7 30.4799 32.8683 30.2484 32.984C30.0168 33.0998 29.7615 33.1598 29.5026 33.1593C29.2837 33.1597 29.0669 33.1168 28.8646 33.0329C28.6624 32.9491 28.4788 32.8261 28.3243 32.671L24.991 29.3376C24.8362 29.1829 24.7135 28.9992 24.6297 28.797C24.546 28.5948 24.5029 28.3781 24.5029 28.1593C24.5029 27.9405 24.546 27.7238 24.6297 27.5216C24.7135 27.3194 24.8362 27.1357 24.991 26.981C25.1457 26.8262 25.3294 26.7035 25.5316 26.6197C25.7338 26.536 25.9505 26.4929 26.1693 26.4929C26.3881 26.4929 26.6048 26.536 26.807 26.6197C27.0092 26.7035 27.1929 26.8262 27.3476 26.981L29.3226 28.956L33.1693 23.826C33.4345 23.4723 33.8294 23.2386 34.2669 23.176C34.4836 23.1451 34.7043 23.1571 34.9163 23.2114C35.1283 23.2658 35.3275 23.3613 35.5026 23.4926C35.6777 23.6239 35.8253 23.7885 35.9368 23.9768C36.0483 24.1651 36.1216 24.3736 36.1526 24.5903C36.1835 24.8069 36.1715 25.0276 36.1172 25.2396C36.0628 25.4516 35.9673 25.6509 35.836 25.826Z" fill="#FDA700"/>
</g>
<defs>
<clipPath id="clip0_205_67">
<rect width="40" height="40" fill="white" transform="translate(0.335938 0.660156)"/>
</clipPath>
</defs>
</svg>
