<svg width="41" height="41" viewBox="0 0 41 41" fill="none" xmlns="http://www.w3.org/2000/svg">
<g clip-path="url(#clip0_205_22)">
<path d="M9.67263 4.33378C9.51322 4.33386 9.35853 4.27965 9.23403 4.1801L5.72526 1.37308C5.5799 1.25676 5.48671 1.08745 5.46618 0.902419C5.45601 0.810798 5.46399 0.718073 5.48966 0.629536C5.51533 0.541 5.55819 0.458386 5.61579 0.386413C5.67338 0.314439 5.74459 0.254515 5.82535 0.210062C5.90611 0.165608 5.99483 0.137496 6.08645 0.127331C6.27148 0.1068 6.4571 0.160616 6.60245 0.276939L10.1112 3.08396C10.2252 3.17459 10.3082 3.2985 10.3486 3.43844C10.3889 3.57839 10.3847 3.72744 10.3365 3.86487C10.2882 4.00231 10.1984 4.12131 10.0794 4.20534C9.96047 4.28938 9.81828 4.33427 9.67263 4.33378ZM32.1288 4.33378C31.9833 4.33385 31.8414 4.28872 31.7227 4.20463C31.6041 4.12054 31.5144 4.00165 31.4663 3.8644C31.4181 3.72715 31.4138 3.57832 31.4539 3.43851C31.494 3.29869 31.5766 3.1748 31.6902 3.08396L35.1989 0.276939C35.2709 0.219342 35.3535 0.176485 35.4421 0.150815C35.5306 0.125145 35.6233 0.117165 35.7149 0.127331C35.8066 0.137496 35.8953 0.165608 35.976 0.210062C36.0568 0.254515 36.128 0.314439 36.1856 0.386413C36.2432 0.458386 36.2861 0.541 36.3117 0.629536C36.3374 0.718073 36.3454 0.810798 36.3352 0.902419C36.3251 0.994039 36.2969 1.08276 36.2525 1.16352C36.208 1.24427 36.1481 1.31548 36.0761 1.37308L32.5674 4.1801C32.4429 4.27965 32.2882 4.33386 32.1288 4.33378ZM35.6375 8.54431H31.3217C31.5609 10.2062 31.392 11.9014 30.8296 13.4835C30.2672 15.0655 29.3282 16.487 28.0937 17.625C27.3582 18.3364 26.7763 19.191 26.3841 20.1361C25.9918 21.0812 25.7974 22.0966 25.813 23.1197V27.4917C25.811 28.1124 25.6032 28.715 25.2223 29.2051C24.8414 29.6952 24.3088 30.0453 23.7077 30.2005V31.0005C23.7077 31.1866 23.6338 31.3651 23.5022 31.4967C23.3706 31.6283 23.1921 31.7022 23.006 31.7022C22.8198 31.7022 22.6413 31.6283 22.5097 31.4967C22.3781 31.3651 22.3042 31.1866 22.3042 31.0005V30.2987H19.4972V31.0005C19.4972 31.1866 19.4233 31.3651 19.2917 31.4967C19.16 31.6283 18.9816 31.7022 18.7954 31.7022C18.6093 31.7022 18.4308 31.6283 18.2992 31.4967C18.1676 31.3651 18.0937 31.1866 18.0937 31.0005V30.2005C17.4926 30.0453 16.96 29.6952 16.5791 29.2051C16.1982 28.715 15.9904 28.1124 15.9884 27.4917V23.239C16.0037 22.1882 15.8057 21.1452 15.4064 20.173C15.0072 19.2009 14.415 18.3197 13.6656 17.5829C12.5073 16.4904 11.6128 15.1487 11.0499 13.6593C10.487 12.1699 10.2704 10.5719 10.4165 8.98641C10.4305 8.83905 10.4586 8.69168 10.4796 8.54431H6.16386C5.60602 8.54597 5.0715 8.76831 4.67705 9.16277C4.2826 9.55722 4.06026 10.0917 4.05859 10.6496V29.5969C4.06026 30.1548 4.2826 30.6893 4.67705 31.0837C5.0715 31.4782 5.60602 31.7005 6.16386 31.7022H13.1814C13.8432 31.7064 14.4649 32.018 14.8656 32.5443L20.3814 39.8987C20.4525 39.967 20.5365 40.0206 20.6284 40.0562C20.7204 40.0918 20.8185 40.1088 20.9171 40.1062C21.0157 40.1036 21.1128 40.0814 21.2027 40.041C21.2927 40.0005 21.3737 39.9426 21.441 39.8706L26.9358 32.5443C27.1334 32.2845 27.388 32.0734 27.68 31.9275C27.972 31.7815 28.2936 31.7044 28.62 31.7022H35.6375C36.1954 31.7005 36.7299 31.4782 37.1243 31.0837C37.5188 30.6893 37.7411 30.1548 37.7428 29.5969V10.6496C37.7411 10.0917 37.5188 9.55722 37.1243 9.16277C36.7299 8.76831 36.1954 8.54597 35.6375 8.54431ZM6.16386 10.6496H8.26912C8.45524 10.6496 8.63373 10.7235 8.76533 10.8551C8.89694 10.9867 8.97087 11.1652 8.97087 11.3513C8.97087 11.5374 8.89694 11.7159 8.76533 11.8475C8.63373 11.9791 8.45524 12.0531 8.26912 12.0531H6.16386C5.97774 12.0531 5.79925 11.9791 5.66764 11.8475C5.53604 11.7159 5.4621 11.5374 5.4621 11.3513C5.4621 11.1652 5.53604 10.9867 5.66764 10.8551C5.79925 10.7235 5.97774 10.6496 6.16386 10.6496ZM10.1077 21.7233L6.59894 24.5303C6.47663 24.6314 6.32254 24.6861 6.16386 24.6847C6.05844 24.6842 5.95448 24.66 5.85971 24.6139C5.76494 24.5677 5.68181 24.5007 5.61649 24.418C5.55814 24.3466 5.5147 24.2643 5.48871 24.1758C5.46272 24.0874 5.45473 23.9946 5.4652 23.9031C5.47566 23.8115 5.50438 23.7229 5.54965 23.6426C5.59492 23.5623 5.65583 23.4919 5.72877 23.4355L9.23754 20.6285C9.30821 20.5618 9.39196 20.5105 9.48348 20.4779C9.57501 20.4452 9.67232 20.4319 9.76925 20.4389C9.86617 20.4458 9.96061 20.4728 10.0466 20.5181C10.1325 20.5634 10.2081 20.6261 10.2686 20.7022C10.3291 20.7782 10.3731 20.866 10.3978 20.96C10.4226 21.054 10.4276 21.1521 10.4124 21.2481C10.3973 21.344 10.3624 21.4358 10.31 21.5176C10.2575 21.5994 10.1886 21.6695 10.1077 21.7233ZM36.1849 24.418C36.1196 24.5007 36.0365 24.5677 35.9417 24.6139C35.8469 24.66 35.743 24.6842 35.6375 24.6847C35.4789 24.6861 35.3248 24.6314 35.2025 24.5303L31.6937 21.7233C31.5658 21.6026 31.4879 21.4383 31.4754 21.2629C31.4629 21.0876 31.5166 20.9139 31.626 20.7763C31.7354 20.6387 31.8925 20.5471 32.0662 20.5197C32.2398 20.4924 32.4174 20.5312 32.5639 20.6285L36.0726 23.4355C36.1457 23.4918 36.2068 23.5621 36.2522 23.6424C36.2976 23.7227 36.3263 23.8114 36.3368 23.903C36.3473 23.9946 36.3392 24.0874 36.3131 24.1759C36.287 24.2644 36.2434 24.3467 36.1849 24.418ZM35.6375 12.0531H33.5323C33.3462 12.0531 33.1677 11.9791 33.0361 11.8475C32.9045 11.7159 32.8305 11.5374 32.8305 11.3513C32.8305 11.1652 32.9045 10.9867 33.0361 10.8551C33.1677 10.7235 33.3462 10.6496 33.5323 10.6496H35.6375C35.8237 10.6496 36.0021 10.7235 36.1338 10.8551C36.2654 10.9867 36.3393 11.1652 36.3393 11.3513C36.3393 11.5374 36.2654 11.7159 36.1338 11.8475C36.0021 11.9791 35.8237 12.0531 35.6375 12.0531ZM27.1954 3.34431C26.0382 2.22732 24.6062 1.43622 23.0446 1.05124C21.4831 0.666263 19.8474 0.701092 18.3037 1.1522C16.7599 1.60331 15.3628 2.45464 14.2543 3.61988C13.1457 4.78511 12.3649 6.22279 11.9912 7.78712C11.6179 9.3517 11.6651 10.9872 12.128 12.5277C12.5909 14.0681 13.4531 15.4587 14.627 16.5583C15.5164 17.4266 16.22 18.4664 16.6953 19.6148C17.1706 20.7633 17.4076 21.9963 17.3919 23.239V23.9829H24.4095V23.1197C24.3937 21.9047 24.6272 20.6993 25.0955 19.578C25.5638 18.4568 26.257 17.4434 27.1323 16.6004C28.039 15.7528 28.7631 14.7289 29.2601 13.5915C29.757 12.4541 30.0164 11.2272 30.0224 9.986C30.0283 8.74478 29.7806 7.51543 29.2945 6.37335C28.8084 5.23127 28.0941 4.20052 27.1954 3.34431ZM18.3603 4.27764C18.3323 4.29168 15.7779 5.39343 15.2726 7.97589C15.2461 8.11191 15.1799 8.23704 15.0823 8.33548C14.9848 8.43392 14.8603 8.50128 14.7245 8.52905C14.5887 8.55682 14.4477 8.54376 14.3194 8.49153C14.191 8.43929 14.081 8.35022 14.0032 8.23554C13.9515 8.15922 13.9155 8.07339 13.8973 7.98303C13.8791 7.89267 13.8791 7.79959 13.8972 7.70922C14.1402 6.6708 14.622 5.70331 15.3041 4.88351C15.9863 4.06371 16.8501 3.41417 17.827 2.98641C17.9426 2.92522 18.0731 2.89753 18.2036 2.90646C18.3341 2.91539 18.4595 2.96059 18.5657 3.03697C18.6719 3.11334 18.7547 3.21785 18.8047 3.33874C18.8547 3.45962 18.87 3.59206 18.8488 3.72115C18.8272 3.85016 18.77 3.97058 18.6837 4.06889C18.5975 4.1672 18.4855 4.23949 18.3603 4.27764ZM20.1989 21.8776C20.1989 22.0638 20.125 22.2423 19.9934 22.3739C19.8618 22.5055 19.6833 22.5794 19.4972 22.5794C19.3111 22.5794 19.1326 22.5055 19.001 22.3739C18.8694 22.2423 18.7954 22.0638 18.7954 21.8776V19.7724C18.7954 19.5863 18.8694 19.4078 19.001 19.2762C19.1326 19.1446 19.3111 19.0706 19.4972 19.0706C19.6833 19.0706 19.8618 19.1446 19.9934 19.2762C20.125 19.4078 20.1989 19.5863 20.1989 19.7724V21.8776ZM20.1989 16.2636C20.1989 16.4497 20.125 16.6282 19.9934 16.7598C19.8618 16.8914 19.6833 16.9654 19.4972 16.9654C19.3111 16.9654 19.1326 16.8914 19.001 16.7598C18.8694 16.6282 18.7954 16.4497 18.7954 16.2636V15.5619C18.7954 15.3757 18.8694 15.1972 19.001 15.0656C19.1326 14.934 19.3111 14.8601 19.4972 14.8601C19.6833 14.8601 19.8618 14.934 19.9934 15.0656C20.125 15.1972 20.1989 15.3757 20.1989 15.5619V16.2636ZM23.006 21.8776C23.006 22.0638 22.932 22.2423 22.8004 22.3739C22.6688 22.5055 22.4903 22.5794 22.3042 22.5794C22.1181 22.5794 21.9396 22.5055 21.808 22.3739C21.6764 22.2423 21.6025 22.0638 21.6025 21.8776V19.7724C21.6025 19.5863 21.6764 19.4078 21.808 19.2762C21.9396 19.1446 22.1181 19.0706 22.3042 19.0706C22.4903 19.0706 22.6688 19.1446 22.8004 19.2762C22.932 19.4078 23.006 19.5863 23.006 19.7724V21.8776ZM23.006 16.2636C23.006 16.4497 22.932 16.6282 22.8004 16.7598C22.6688 16.8914 22.4903 16.9654 22.3042 16.9654C22.1181 16.9654 21.9396 16.8914 21.808 16.7598C21.6764 16.6282 21.6025 16.4497 21.6025 16.2636V15.5619C21.6025 15.3757 21.6764 15.1972 21.808 15.0656C21.9396 14.934 22.1181 14.8601 22.3042 14.8601C22.4903 14.8601 22.6688 14.934 22.8004 15.0656C22.932 15.1972 23.006 15.3757 23.006 15.5619V16.2636Z" fill="#FDA700"/>
<path d="M17.3916 25.3867V27.492C17.3927 27.8639 17.5409 28.2202 17.8039 28.4832C18.0669 28.7462 18.4232 28.8944 18.7951 28.8955H23.0056C23.3775 28.8944 23.7339 28.7462 23.9968 28.4832C24.2598 28.2202 24.408 27.8639 24.4091 27.492V25.3867H17.3916Z" fill="#FDA700"/>
</g>
<defs>
<clipPath id="clip0_205_22">
<rect width="40" height="40" fill="white" transform="translate(0.900391 0.123047)"/>
</clipPath>
</defs>
</svg>
