<svg width="41" height="41" viewBox="0 0 41 41" fill="none" xmlns="http://www.w3.org/2000/svg">
<g clip-path="url(#clip0_205_58)">
<path d="M8.62534 21.7512H1.5938C0.937443 21.7512 0.421875 22.2668 0.421875 22.9231V36.9862C0.421875 37.6425 0.937443 38.1581 1.5938 38.1581H8.62534C9.28169 38.1581 9.79726 37.6425 9.79726 36.9862V22.9231C9.79726 22.2668 9.28169 21.7512 8.62534 21.7512ZM5.10957 28.7827C4.45321 28.7827 3.93764 28.2672 3.93764 27.6108C3.93764 26.9544 4.45321 26.4389 5.10957 26.4389C5.76592 26.4389 6.28149 26.9544 6.28149 27.6108C6.28149 28.2672 5.76592 28.7827 5.10957 28.7827ZM29.3424 12.6149C29.2536 12.5512 29.1846 12.4636 29.1435 12.3624C29.1024 12.2611 29.0908 12.1502 29.1101 12.0427L29.7464 8.32774L27.0466 5.69662C26.8887 5.54325 26.8303 5.30754 26.899 5.09691C26.9326 4.99274 26.9949 4.90014 27.0786 4.8297C27.1624 4.75927 27.2644 4.71384 27.3727 4.69861L31.1014 4.15617L32.77 0.776574C32.8696 0.574065 33.1066 0.501953 33.2954 0.501953C33.4842 0.501953 33.7211 0.574065 33.8196 0.77548L35.4893 4.15617L39.218 4.69861C39.4411 4.73064 39.622 4.88401 39.6918 5.098C39.7252 5.20164 39.729 5.31253 39.7029 5.41824C39.6769 5.52396 39.6219 5.62032 39.5441 5.69654L36.8443 8.32766L37.4807 12.0426C37.5 12.1502 37.4884 12.261 37.4473 12.3623C37.4061 12.4636 37.3372 12.5511 37.2483 12.6148C37.0717 12.7427 36.8327 12.7656 36.6338 12.6606L33.2954 10.9073L29.9593 12.6595C29.761 12.764 29.5246 12.7459 29.3424 12.6149ZM16.4524 12.616C16.2692 12.4833 16.18 12.2635 16.2189 12.0427L16.8553 8.32774L14.1555 5.69662C13.9976 5.54325 13.9391 5.30754 14.0078 5.09691C14.0414 4.99274 14.1037 4.90014 14.1875 4.8297C14.2713 4.75927 14.3732 4.71384 14.4816 4.69861L18.2103 4.15617L19.8788 0.776574C19.9785 0.574065 20.2154 0.501953 20.4043 0.501953C20.5931 0.501953 20.83 0.574065 20.9284 0.77548L22.5982 4.15617L26.3268 4.69861C26.55 4.73064 26.7308 4.88401 26.8006 5.098C26.834 5.20164 26.8379 5.31253 26.8118 5.41824C26.7857 5.52396 26.7307 5.62032 26.6529 5.69654L23.9532 8.32766L24.5895 12.0426C24.6088 12.1502 24.5972 12.261 24.5561 12.3623C24.515 12.4636 24.446 12.5511 24.3572 12.6148C24.1805 12.7427 23.9415 12.7656 23.7426 12.6606L20.4043 10.9073L17.0682 12.6595C16.9717 12.7103 16.8629 12.7331 16.7541 12.7254C16.6453 12.7178 16.5408 12.6799 16.4524 12.616ZM3.56013 12.6149C3.47129 12.5512 3.40231 12.4636 3.36119 12.3624C3.32006 12.2611 3.30848 12.1502 3.32778 12.0427L3.96413 8.32774L1.26433 5.69662C1.10643 5.54325 1.04799 5.30754 1.11667 5.09691C1.15029 4.99274 1.21256 4.90014 1.29634 4.8297C1.38013 4.75927 1.48204 4.71384 1.59044 4.69861L5.31911 4.15617L6.98777 0.776652C7.0873 0.574065 7.32427 0.501953 7.5131 0.501953C7.70194 0.501953 7.93882 0.574065 8.03727 0.77548L9.70702 4.15617L13.4357 4.69861C13.6588 4.73064 13.8397 4.88401 13.9095 5.098C13.9428 5.20164 13.9467 5.31253 13.9206 5.41824C13.8946 5.52396 13.8396 5.62032 13.7618 5.69654L11.062 8.32766L11.6984 12.0426C11.7177 12.1502 11.7061 12.261 11.665 12.3623C11.6238 12.4636 11.5548 12.5511 11.466 12.6148C11.2894 12.7427 11.0504 12.7656 10.8514 12.6606L7.5131 10.9073L4.17703 12.6595C3.97866 12.764 3.74232 12.7459 3.56013 12.6149ZM35.3217 30.9859C35.4858 31.3843 35.5796 31.8297 35.5796 32.2985C35.5796 33.9157 34.478 35.2753 32.9779 35.6736C33.142 36.072 33.2357 36.5174 33.2357 36.9862C33.2357 38.9317 31.6654 40.502 29.72 40.502H23.6493C21.2352 40.502 18.8914 39.5176 17.1805 37.8065C15.8913 36.5409 14.1334 35.8143 12.3521 35.8143H12.1411V24.095H13.3365C15.4693 24.0481 17.6023 23.4621 19.4773 22.4075C23.8603 19.8996 23.8603 18.6104 23.8603 16.0792C23.8603 15.7745 23.9775 15.376 24.212 15.1651C24.4229 14.9307 24.7276 14.7197 25.0323 14.7197C27.5167 14.7197 29.5324 15.8916 30.4231 17.8838C31.2435 19.7121 30.9388 21.9388 29.6731 24.0951H34.4077C36.3532 24.0951 37.9235 25.6654 37.9235 27.6109C37.9234 29.2281 36.8219 30.5876 35.3217 30.9859Z" fill="#FDA700"/>
</g>
<defs>
<clipPath id="clip0_205_58">
<rect width="40" height="40" fill="white" transform="translate(0.0712891 0.501953)"/>
</clipPath>
</defs>
</svg>
