<svg width="41" height="41" viewBox="0 0 41 41" fill="none" xmlns="http://www.w3.org/2000/svg">
<path d="M29.0371 37.375C29.0371 38.0644 29.5977 38.625 30.2871 38.625C30.9765 38.625 31.5371 38.0644 31.5371 37.375V29.25H29.0371V37.375ZM27.7871 23.9206C23.4815 22.8062 20.2871 18.8994 20.2871 14.25C20.2871 10.0625 22.8771 6.47312 26.5371 4.98625V2.375H19.0371V6.125C19.0371 6.81438 18.4765 7.375 17.7871 7.375H11.5371C10.8477 7.375 10.2871 6.81438 10.2871 6.125V2.375H2.78711V24.875H5.35023C5.49527 24.1697 5.87898 23.536 6.43671 23.0806C6.99444 22.6253 7.69209 22.3761 8.41211 22.375H23.4121C24.1321 22.3762 24.8297 22.6254 25.3874 23.0808C25.9451 23.5361 26.3288 24.1698 26.474 24.875H27.7871V23.9206ZM4.03711 14.875H6.53711V16.125H4.03711V14.875ZM9.03711 21.125H4.03711V19.875H9.03711V21.125ZM11.5371 21.125H10.2871V19.875H11.5371V21.125ZM14.0371 21.125H12.7871V19.875H14.0371V21.125ZM14.0371 18.625H4.03711V17.375H14.0371V18.625ZM14.0371 16.125H7.78711V14.875H14.0371V16.125Z" fill="#FDA700"/>
<path d="M23.4121 23.625H8.41211C7.37836 23.625 6.53711 24.4662 6.53711 25.5V35.5C6.53711 36.5338 7.37836 37.375 8.41211 37.375H23.4121C24.4459 37.375 25.2871 36.5338 25.2871 35.5V25.5C25.2871 24.4662 24.4459 23.625 23.4121 23.625ZM9.03711 28.625H10.2871V29.875H9.03711V28.625ZM20.2871 34.875H9.03711V33.625H20.2871V34.875ZM22.7871 34.875H21.5371V33.625H22.7871V34.875ZM22.7871 32.375H9.03711V31.125H22.7871V32.375ZM22.7871 29.875H11.5371V28.625H22.7871V29.875ZM22.7871 27.375H9.03711V26.125H22.7871V27.375ZM30.2871 5.5C25.4621 5.5 21.5371 9.425 21.5371 14.25C21.5371 19.075 25.4621 23 30.2871 23C35.1121 23 39.0371 19.075 39.0371 14.25C39.0371 9.425 35.1121 5.5 30.2871 5.5ZM30.2871 21.125C26.4902 21.125 23.4121 18.0469 23.4121 14.25C23.4121 10.4531 26.4902 7.375 30.2871 7.375C34.084 7.375 37.1621 10.4531 37.1621 14.25C37.1621 18.0469 34.084 21.125 30.2871 21.125ZM12.7871 3.625H14.0371V6.125H15.2871V3.625H16.5371V6.125H17.7871V2.375H11.5371V6.125H12.7871V3.625ZM32.1621 26.75H28.4121C28.2512 26.7572 28.0992 26.8262 27.9879 26.9426C27.8766 27.059 27.8144 27.2139 27.8144 27.375C27.8144 27.5361 27.8766 27.691 27.9879 27.8074C28.0992 27.9238 28.2512 27.9928 28.4121 28H32.1621C32.323 27.9928 32.475 27.9238 32.5863 27.8074C32.6976 27.691 32.7598 27.5361 32.7598 27.375C32.7598 27.2139 32.6976 27.059 32.5863 26.9426C32.475 26.8262 32.323 26.7572 32.1621 26.75ZM30.2871 24.25C29.8627 24.25 29.4477 24.215 29.0371 24.1631V25.5H31.5371V24.1631C31.1265 24.215 30.7115 24.25 30.2871 24.25Z" fill="#FDA700"/>
</svg>
