<svg width="41" height="41" viewBox="0 0 41 41" fill="none" xmlns="http://www.w3.org/2000/svg">
<path d="M37.6084 22.3164H22.6084C22.4426 22.3164 22.2837 22.3823 22.1665 22.4995C22.0492 22.6167 21.9834 22.7756 21.9834 22.9414V37.9414C21.9834 38.1072 22.0492 38.2661 22.1665 38.3833C22.2837 38.5006 22.4426 38.5664 22.6084 38.5664H37.6084C37.7742 38.5664 37.9331 38.5006 38.0503 38.3833C38.1676 38.2661 38.2334 38.1072 38.2334 37.9414V22.9414C38.2334 22.7756 38.1676 22.6167 38.0503 22.4995C37.9331 22.3823 37.7742 22.3164 37.6084 22.3164ZM26.3584 36.6914V29.1914L33.8584 32.9414L26.3584 36.6914ZM36.3584 26.6914H23.8584V24.1914H36.3584V26.6914ZM27.2959 13.5664C26.9184 13.5664 26.5678 13.7539 26.3584 14.0683L25.0259 16.0664H28.4353L28.859 15.007L28.2334 14.0683C28.1307 13.9138 27.9913 13.7871 27.8277 13.6995C27.6642 13.6119 27.4814 13.5662 27.2959 13.5664Z" fill="#FDA700"/>
<path d="M37.6084 2.31641H22.6084C22.4426 2.31641 22.2837 2.38225 22.1665 2.49946C22.0492 2.61667 21.9834 2.77565 21.9834 2.94141V17.9414C21.9834 18.1072 22.0492 18.2661 22.1665 18.3833C22.2837 18.5006 22.4426 18.5664 22.6084 18.5664H37.6084C37.7742 18.5664 37.9331 18.5006 38.0503 18.3833C38.1676 18.2661 38.2334 18.1072 38.2334 17.9414V2.94141C38.2334 2.77565 38.1676 2.61667 38.0503 2.49946C37.9331 2.38225 37.7742 2.31641 37.6084 2.31641ZM23.8584 4.19141H36.3584V6.69141H23.8584V4.19141ZM25.1084 9.19141C25.2749 9.18764 25.4404 9.21717 25.5953 9.27826C25.7502 9.33935 25.8913 9.43078 26.0104 9.54716C26.1295 9.66354 26.2241 9.80254 26.2887 9.956C26.3533 10.1095 26.3866 10.2743 26.3867 10.4408C26.3867 10.6073 26.3535 10.7721 26.2889 10.9256C26.2244 11.0791 26.1298 11.2181 26.0108 11.3346C25.8918 11.451 25.7507 11.5425 25.5959 11.6037C25.441 11.6648 25.2755 11.6945 25.109 11.6908C24.7824 11.6836 24.4716 11.5488 24.2432 11.3153C24.0147 11.0817 23.8867 10.7681 23.8867 10.4414C23.8866 10.1147 24.0144 9.80099 24.2427 9.56736C24.4711 9.33374 24.7818 9.19879 25.1084 9.19141ZM22.6909 17.3164L25.3184 13.3745C25.7603 12.712 26.4996 12.3164 27.2959 12.3164C28.0921 12.3164 28.8315 12.712 29.2734 13.3745L29.4221 13.5977L30.3134 11.3702C30.6915 10.4264 31.5921 9.81641 32.6084 9.81641C33.6246 9.81641 34.5253 10.4264 34.9034 11.3695L37.2815 17.3164H22.6909Z" fill="#FDA700"/>
<path d="M32.6084 11.0664C32.1059 11.0664 31.6609 11.3677 31.4746 11.8345L29.7815 16.0664H35.4359L33.7428 11.8345C33.6528 11.6073 33.4965 11.4125 33.2941 11.2755C33.0917 11.1384 32.8528 11.0656 32.6084 11.0664ZM17.6084 22.3164H2.6084C2.44264 22.3164 2.28367 22.3823 2.16646 22.4995C2.04925 22.6167 1.9834 22.7756 1.9834 22.9414V37.9414C1.9834 38.1072 2.04925 38.2661 2.16646 38.3833C2.28367 38.5006 2.44264 38.5664 2.6084 38.5664H17.6084C17.7742 38.5664 17.9331 38.5006 18.0503 38.3833C18.1676 38.2661 18.2334 38.1072 18.2334 37.9414V22.9414C18.2334 22.7756 18.1676 22.6167 18.0503 22.4995C17.9331 22.3823 17.7742 22.3164 17.6084 22.3164ZM3.8584 24.1914H16.3584V26.6914H3.8584V24.1914ZM3.2334 28.5664H5.7334V29.8164H3.2334V28.5664ZM3.2334 33.5664H8.2334V34.8164H3.2334V33.5664ZM16.9834 37.3164H3.2334V36.0664H16.9834V37.3164ZM16.9834 34.8164H9.4834V33.5664H16.9834V34.8164ZM16.9834 32.3164H3.2334V31.0664H16.9834V32.3164ZM16.9834 29.8164H6.9834V28.5664H16.9834V29.8164ZM17.6084 2.31641H2.6084C2.44264 2.31641 2.28367 2.38225 2.16646 2.49946C2.04925 2.61667 1.9834 2.77565 1.9834 2.94141V17.9414C1.9834 18.1072 2.04925 18.2661 2.16646 18.3833C2.28367 18.5006 2.44264 18.5664 2.6084 18.5664H17.6084C17.7742 18.5664 17.9331 18.5006 18.0503 18.3833C18.1676 18.2661 18.2334 18.1072 18.2334 17.9414V2.94141C18.2334 2.77565 18.1676 2.61667 18.0503 2.49946C17.9331 2.38225 17.7742 2.31641 17.6084 2.31641ZM11.9834 9.81641H8.8584C8.69264 9.81641 8.53367 9.88225 8.41646 9.99946C8.29925 10.1167 8.2334 10.2756 8.2334 10.4414V11.0664H11.9834V12.3164H8.2334V15.4414C8.2334 16.4752 7.39215 17.3164 6.3584 17.3164C5.32465 17.3164 4.4834 16.4752 4.4834 15.4414C4.4834 14.4077 5.32465 13.5664 6.3584 13.5664C6.5784 13.5664 6.78715 13.6114 6.9834 13.6814V10.4414C6.9834 9.40766 7.82465 8.56641 8.8584 8.56641H11.9834V9.81641ZM16.3584 6.69141H3.8584V4.19141H16.3584V6.69141Z" fill="#FDA700"/>
</svg>
