<svg width="41" height="41" viewBox="0 0 41 41" fill="none" xmlns="http://www.w3.org/2000/svg">
<g clip-path="url(#clip0_205_80)">
<path d="M23.191 26.3219C22.8046 26.7072 22.3343 26.9979 21.8169 27.1712L16.8449 28.8284C16.4865 28.9481 16.1111 29.009 15.7333 29.0089C14.7941 29.0089 13.9112 28.6432 13.2473 27.9791C12.2995 27.0312 11.9742 25.6527 12.398 24.3814L14.0554 19.4097C14.2285 18.8922 14.5192 18.4218 14.9046 18.0355L25.6433 7.29688H4.63281C2.26352 7.29688 0.335938 9.22445 0.335938 11.5938V36.5938C0.335938 38.963 2.26352 40.8906 4.63281 40.8906H29.6328C32.0021 40.8906 33.9297 38.963 33.9297 36.5938V15.5833L23.191 26.3219Z" fill="#FDA700"/>
<path d="M16.562 19.6928C16.4334 19.8215 16.3365 19.9783 16.279 20.1509L14.6216 25.1227C14.5528 25.3291 14.5429 25.5507 14.5929 25.7625C14.6429 25.9743 14.7509 26.1679 14.9048 26.3218C15.0586 26.4757 15.2523 26.5837 15.4641 26.6337C15.6759 26.6837 15.8974 26.6737 16.1039 26.6049L21.0758 24.9477C21.2484 24.8902 21.4052 24.7933 21.5338 24.6646L36.1732 10.0253L31.2014 5.05353L16.562 19.6928ZM37.5542 1.46268C36.7915 0.699941 35.5548 0.699941 34.7921 1.46268L32.8586 3.39619L37.8305 8.36807L39.764 6.43455C40.5267 5.67182 40.5267 4.43518 39.764 3.67244L37.5542 1.46268Z" fill="#FDA700"/>
</g>
<defs>
<clipPath id="clip0_205_80">
<rect width="40" height="40" fill="white" transform="translate(0.335938 0.890625)"/>
</clipPath>
</defs>
</svg>
