<svg width="41" height="41" viewBox="0 0 41 41" fill="none" xmlns="http://www.w3.org/2000/svg">
<g clip-path="url(#clip0_205_84)">
<path d="M16.9654 20.8922H19.3093V23.2362H16.9654V20.8922ZM2.93207 18.5401H22.8514C23.2686 12.1713 29.4953 7.75523 35.7169 9.58437V8.00047C35.7169 7.3532 35.1922 6.82852 34.545 6.82852H23.9991V3.31258C23.9991 2.66531 23.4744 2.14062 22.8271 2.14062H13.4475C12.8002 2.14062 12.2755 2.66531 12.2755 3.31258V6.82852H1.72957C1.0823 6.82852 0.557617 7.3532 0.557617 8.00047V16.5197C0.742617 17.6636 1.73676 18.5401 2.93207 18.5401ZM14.6194 4.48453H21.6552V6.82852H14.6194V4.48453Z" fill="#FDA700"/>
<path d="M27.7866 27.8758C25.3063 26.4182 23.4685 23.9022 22.9668 20.8836H21.6533V24.4077C21.6533 25.055 21.1286 25.5797 20.4814 25.5797H15.7935C15.1462 25.5797 14.6215 25.055 14.6215 24.4077V20.8836H2.93207C2.09804 20.8842 1.27874 20.6638 0.557617 20.2448L0.557617 35.6197C0.557617 36.2669 1.0823 36.7916 1.72957 36.7916H27.8314C27.7504 36.1747 27.8029 36.5586 27.7866 27.8758ZM38.3071 13.7701C35.3064 10.7694 30.424 10.7694 27.4233 13.7701C23.4733 17.72 24.938 24.4372 30.1306 26.403V29.0995H35.5998V26.403C40.7907 24.4379 42.2574 17.7204 38.3071 13.7701ZM32.8652 24.5605C32.8653 24.5605 32.8651 24.5605 32.8652 24.5605C29.9029 24.5605 27.5167 22.1752 27.5167 19.212C27.5167 16.2496 29.902 13.8636 32.8651 13.8636C35.8275 13.8636 38.2136 16.2489 38.2136 19.212C38.2136 22.1742 35.8283 24.5605 32.8652 24.5605ZM30.1305 36.1276C30.1305 37.6354 31.3573 38.8622 32.8651 38.8622C34.373 38.8622 35.5997 37.6354 35.5997 36.1276V31.4436H30.1305V36.1276Z" fill="#FDA700"/>
</g>
<defs>
<clipPath id="clip0_205_84">
<rect width="40" height="40" fill="white" transform="translate(0.557617 0.501953)"/>
</clipPath>
</defs>
</svg>
