<svg width="55" height="53" viewBox="0 0 55 53" fill="none" xmlns="http://www.w3.org/2000/svg">
<path d="M27.7305 47.2614C30.2158 47.2614 32.2305 45.3213 32.2305 42.9281C32.2305 40.5348 30.2158 38.5947 27.7305 38.5947C25.2452 38.5947 23.2305 40.5348 23.2305 42.9281C23.2305 45.3213 25.2452 47.2614 27.7305 47.2614Z" fill="#1E5AB4"/>
<path d="M49.8701 13.8074C43.2213 9.80061 35.536 7.67578 27.6926 7.67578C19.8491 7.67578 12.1638 9.80061 5.51505 13.8074C5.25685 13.9593 5.03285 14.1595 4.8563 14.3961C4.67974 14.6327 4.5542 14.9009 4.48709 15.185C4.41998 15.4691 4.41265 15.7633 4.46554 16.0501C4.51844 16.337 4.63048 16.6107 4.79505 16.8552L4.96005 17.1008C5.27641 17.5606 5.76406 17.886 6.32233 18.0096C6.88059 18.1333 7.46684 18.0458 7.96005 17.7652C13.8602 14.1954 20.6869 12.3016 27.6551 12.3016C34.6232 12.3016 41.4499 14.1954 47.3501 17.7652C47.8433 18.0458 48.4295 18.1333 48.9878 18.0096C49.546 17.886 50.0337 17.5606 50.3501 17.1008L50.5151 16.8552C50.683 16.6151 50.7997 16.3452 50.8582 16.0612C50.9167 15.7772 50.9159 15.4849 50.8559 15.2012C50.7958 14.9175 50.6777 14.6481 50.5085 14.4089C50.3392 14.1696 50.1222 13.9651 49.8701 13.8074V13.8074Z" fill="#1E5AB4"/>
<path d="M43.9606 22.561C39.073 19.6428 33.4364 18.0967 27.6856 18.0967C21.9347 18.0967 16.2981 19.6428 11.4106 22.561C11.1569 22.7152 10.9375 22.9164 10.7652 23.1529C10.5929 23.3894 10.4711 23.6566 10.407 23.9388C10.3428 24.221 10.3374 24.5126 10.3913 24.7969C10.4451 25.0811 10.557 25.3521 10.7206 25.5944L10.8856 25.8399C11.2019 26.2998 11.6896 26.6251 12.2478 26.7488C12.8061 26.8724 13.3923 26.7849 13.8856 26.5043C18.0196 24.032 22.7891 22.7218 27.6556 22.7218C32.522 22.7218 37.2915 24.032 41.4256 26.5043C41.9188 26.7849 42.505 26.8724 43.0633 26.7488C43.6215 26.6251 44.1092 26.2998 44.4256 25.8399L44.5906 25.5944C44.7569 25.3556 44.8725 25.0876 44.9309 24.8056C44.9892 24.5237 44.9891 24.2334 44.9306 23.9515C44.872 23.6696 44.7562 23.4017 44.5897 23.163C44.4233 22.9244 44.2094 22.7198 43.9606 22.561V22.561Z" fill="#1E5AB4"/>
<path d="M38.0506 31.2998C34.9208 29.4877 31.3377 28.5303 27.6856 28.5303C24.0336 28.5303 20.4505 29.4877 17.3206 31.2998C17.0674 31.4527 16.8484 31.6525 16.6763 31.8878C16.5042 32.123 16.3825 32.3889 16.3182 32.6699C16.254 32.951 16.2485 33.2415 16.3022 33.5246C16.3558 33.8077 16.4675 34.0777 16.6306 34.3187L16.7806 34.5498C17.1107 35.0196 17.6168 35.3482 18.1928 35.4666C18.7688 35.5851 19.3701 35.4843 19.8706 35.1854C22.2391 33.8428 24.9373 33.1348 27.6856 33.1348C30.434 33.1348 33.1322 33.8428 35.5006 35.1854C36.003 35.4829 36.6055 35.5814 37.1817 35.4602C37.7579 35.339 38.2629 35.0076 38.5906 34.5354L38.7406 34.3043C38.9035 34.0643 39.0149 33.7955 39.0683 33.5135C39.1218 33.2316 39.1162 32.9422 39.0519 32.6623C38.9876 32.3824 38.866 32.1178 38.694 31.8838C38.5221 31.6498 38.3033 31.4513 38.0506 31.2998V31.2998Z" fill="#1E5AB4"/>
</svg>
