<svg width="55" height="53" viewBox="0 0 55 53" fill="none" xmlns="http://www.w3.org/2000/svg">
<path d="M27.7305 47.2057C30.2158 47.2057 32.2305 45.2656 32.2305 42.8724C32.2305 40.4792 30.2158 38.5391 27.7305 38.5391C25.2452 38.5391 23.2305 40.4792 23.2305 42.8724C23.2305 45.2656 25.2452 47.2057 27.7305 47.2057Z" fill="#1E5AB4"/>
<path d="M49.8705 13.7518C43.2218 9.74495 35.5365 7.62012 27.693 7.62012C19.8496 7.62012 12.1643 9.74495 5.51554 13.7518C5.25734 13.9036 5.03334 14.1038 4.85679 14.3404C4.68023 14.577 4.55469 14.8453 4.48758 15.1293C4.42047 15.4134 4.41314 15.7076 4.46603 15.9945C4.51893 16.2813 4.63097 16.5551 4.79554 16.7996L4.96054 17.0451C5.2769 17.505 5.76455 17.8303 6.32281 17.954C6.88108 18.0776 7.46733 17.9901 7.96054 17.7096C13.8607 14.1397 20.6874 12.2459 27.6555 12.2459C34.6237 12.2459 41.4504 14.1397 47.3505 17.7096C47.8438 17.9901 48.43 18.0776 48.9883 17.954C49.5465 17.8303 50.0342 17.505 50.3505 17.0451L50.5155 16.7996C50.6835 16.5594 50.8002 16.2895 50.8587 16.0055C50.9172 15.7215 50.9164 15.4292 50.8564 15.1455C50.7963 14.8618 50.6782 14.5925 50.509 14.3532C50.3397 14.1139 50.1227 13.9095 49.8705 13.7518V13.7518Z" fill="#1E5AB4"/>
<path d="M43.9606 22.5054C39.073 19.5872 33.4364 18.041 27.6856 18.041C21.9347 18.041 16.2981 19.5872 11.4106 22.5054C11.1569 22.6596 10.9375 22.8607 10.7652 23.0973C10.5929 23.3338 10.4711 23.6009 10.407 23.8831C10.3428 24.1653 10.3374 24.457 10.3913 24.7412C10.4451 25.0254 10.557 25.2965 10.7206 25.5387L10.8856 25.7842C11.2019 26.2441 11.6896 26.5695 12.2478 26.6931C12.8061 26.8167 13.3923 26.7292 13.8856 26.4487C18.0196 23.9763 22.7891 22.6662 27.6556 22.6662C32.522 22.6662 37.2915 23.9763 41.4256 26.4487C41.9188 26.7292 42.505 26.8167 43.0633 26.6931C43.6215 26.5695 44.1092 26.2441 44.4256 25.7842L44.5906 25.5387C44.7569 25.2999 44.8725 25.0319 44.9309 24.75C44.9892 24.468 44.9891 24.1778 44.9306 23.8959C44.872 23.614 44.7562 23.346 44.5897 23.1074C44.4233 22.8687 44.2094 22.6641 43.9606 22.5054V22.5054Z" fill="#1E5AB4"/>
<path d="M38.0506 31.2442C34.9208 29.432 31.3377 28.4746 27.6856 28.4746C24.0336 28.4746 20.4505 29.432 17.3206 31.2442C17.0674 31.397 16.8484 31.5969 16.6763 31.8321C16.5042 32.0674 16.3825 32.3333 16.3182 32.6143C16.254 32.8953 16.2485 33.1859 16.3022 33.4689C16.3558 33.752 16.4675 34.022 16.6306 34.2631L16.7806 34.4942C17.1107 34.964 17.6168 35.2925 18.1928 35.411C18.7688 35.5294 19.3701 35.4287 19.8706 35.1297C22.2391 33.7871 24.9373 33.0791 27.6856 33.0791C30.434 33.0791 33.1322 33.7871 35.5006 35.1297C36.003 35.4273 36.6055 35.5258 37.1817 35.4046C37.7579 35.2834 38.2629 34.9519 38.5906 34.4797L38.7406 34.2486C38.9035 34.0087 39.0149 33.7398 39.0683 33.4579C39.1218 33.1759 39.1162 32.8865 39.0519 32.6066C38.9876 32.3268 38.866 32.0621 38.694 31.8281C38.5221 31.5942 38.3033 31.3956 38.0506 31.2442V31.2442Z" fill="#1E5AB4"/>
</svg>
