<svg width="55" height="53" viewBox="0 0 55 53" fill="none" xmlns="http://www.w3.org/2000/svg">
<path d="M27.7305 47.1481C30.2158 47.1481 32.2305 45.208 32.2305 42.8148C32.2305 40.4215 30.2158 38.4814 27.7305 38.4814C25.2452 38.4814 23.2305 40.4215 23.2305 42.8148C23.2305 45.208 25.2452 47.1481 27.7305 47.1481Z" fill="#1E5AB4"/>
<path d="M49.8701 13.6942C43.2213 9.68733 35.536 7.5625 27.6926 7.5625C19.8491 7.5625 12.1638 9.68733 5.51505 13.6942C5.25685 13.846 5.03285 14.0462 4.8563 14.2828C4.67974 14.5194 4.5542 14.7876 4.48709 15.0717C4.41998 15.3558 4.41265 15.65 4.46554 15.9368C4.51844 16.2237 4.63048 16.4975 4.79505 16.7419L4.96005 16.9875C5.27641 17.4474 5.76406 17.7727 6.32233 17.8964C6.88059 18.02 7.46684 17.9325 7.96005 17.6519C13.8602 14.0821 20.6869 12.1883 27.6551 12.1883C34.6232 12.1883 41.4499 14.0821 47.3501 17.6519C47.8433 17.9325 48.4295 18.02 48.9878 17.8964C49.546 17.7727 50.0337 17.4474 50.3501 16.9875L50.5151 16.7419C50.683 16.5018 50.7997 16.2319 50.8582 15.9479C50.9167 15.6639 50.9159 15.3716 50.8559 15.0879C50.7958 14.8042 50.6777 14.5349 50.5085 14.2956C50.3392 14.0563 50.1222 13.8518 49.8701 13.6942V13.6942Z" fill="#1E5AB4"/>
<path d="M43.9606 22.4477C39.073 19.5296 33.4364 17.9834 27.6856 17.9834C21.9347 17.9834 16.2981 19.5296 11.4106 22.4477C11.1569 22.6019 10.9375 22.8031 10.7652 23.0396C10.5929 23.2762 10.4711 23.5433 10.407 23.8255C10.3428 24.1077 10.3374 24.3994 10.3913 24.6836C10.4451 24.9678 10.557 25.2389 10.7206 25.4811L10.8856 25.7266C11.2019 26.1865 11.6896 26.5118 12.2478 26.6355C12.8061 26.7591 13.3923 26.6716 13.8856 26.3911C18.0196 23.9187 22.7891 22.6085 27.6556 22.6085C32.522 22.6085 37.2915 23.9187 41.4256 26.3911C41.9188 26.6716 42.505 26.7591 43.0633 26.6355C43.6215 26.5118 44.1092 26.1865 44.4256 25.7266L44.5906 25.4811C44.7569 25.2423 44.8725 24.9743 44.9309 24.6923C44.9892 24.4104 44.9891 24.1201 44.9306 23.8382C44.872 23.5563 44.7562 23.2884 44.5897 23.0497C44.4233 22.8111 44.2094 22.6065 43.9606 22.4477V22.4477Z" fill="#1E5AB4"/>
<path d="M38.0506 31.1866C34.9208 29.3744 31.3377 28.417 27.6856 28.417C24.0336 28.417 20.4505 29.3744 17.3206 31.1866C17.0674 31.3394 16.8484 31.5393 16.6763 31.7745C16.5042 32.0097 16.3825 32.2756 16.3182 32.5567C16.254 32.8377 16.2485 33.1282 16.3022 33.4113C16.3558 33.6944 16.4675 33.9644 16.6306 34.2055L16.7806 34.4366C17.1107 34.9063 17.6168 35.2349 18.1928 35.3533C18.7688 35.4718 19.3701 35.371 19.8706 35.0721C22.2391 33.7295 24.9373 33.0215 27.6856 33.0215C30.434 33.0215 33.1322 33.7295 35.5006 35.0721C36.003 35.3697 36.6055 35.4682 37.1817 35.347C37.7579 35.2258 38.2629 34.8943 38.5906 34.4221L38.7406 34.191C38.9035 33.9511 39.0149 33.6822 39.0683 33.4003C39.1218 33.1183 39.1162 32.8289 39.0519 32.549C38.9876 32.2692 38.866 32.0045 38.694 31.7705C38.5221 31.5366 38.3033 31.338 38.0506 31.1866V31.1866Z" fill="#1E5AB4"/>
</svg>
