<svg width="54" height="53" viewBox="0 0 54 53" fill="none" xmlns="http://www.w3.org/2000/svg">
<path d="M50.8709 5.5957V21.1957H3.1709V5.5957H50.8709ZM48.2209 18.5957V8.1957H5.8209V18.5957H48.2209ZM13.7709 10.7957V15.9957H8.4709V10.7957H13.7709ZM21.7209 10.7957V15.9957H16.4209V10.7957H21.7209ZM29.6709 10.7957V15.9957H24.3709V10.7957H29.6709ZM37.6209 10.7957V15.9957H32.3209V10.7957H37.6209ZM45.5709 10.7957V15.9957H40.2709V10.7957H45.5709ZM50.8709 23.7957V47.1957H3.1709V23.7957H50.8709ZM48.2209 44.5957V26.3957H5.8209V44.5957H48.2209ZM13.7709 28.9957V34.1957H8.4709V28.9957H13.7709ZM21.7209 28.9957V34.1957H16.4209V28.9957H21.7209ZM29.6709 28.9957V34.1957H24.3709V28.9957H29.6709ZM45.5709 28.9957V34.1957H32.3209V28.9957H45.5709ZM29.6709 36.7957V41.9957H8.4709V36.7957H29.6709ZM37.6209 36.7957V41.9957H32.3209V36.7957H37.6209ZM45.5709 36.7957V41.9957H40.2709V36.7957H45.5709Z" fill="#1E5AB4"/>
</svg>
