<svg width="54" height="53" viewBox="0 0 54 53" fill="none" xmlns="http://www.w3.org/2000/svg">
<path d="M50.8704 5.5957V21.1957H3.17041V5.5957H50.8704ZM48.2204 18.5957V8.1957H5.82041V18.5957H48.2204ZM13.7704 10.7957V15.9957H8.47041V10.7957H13.7704ZM21.7204 10.7957V15.9957H16.4204V10.7957H21.7204ZM29.6704 10.7957V15.9957H24.3704V10.7957H29.6704ZM37.6204 10.7957V15.9957H32.3204V10.7957H37.6204ZM45.5704 10.7957V15.9957H40.2704V10.7957H45.5704ZM50.8704 23.7957V47.1957H3.17041V23.7957H50.8704ZM48.2204 44.5957V26.3957H5.82041V44.5957H48.2204ZM13.7704 28.9957V34.1957H8.47041V28.9957H13.7704ZM21.7204 28.9957V34.1957H16.4204V28.9957H21.7204ZM29.6704 28.9957V34.1957H24.3704V28.9957H29.6704ZM45.5704 28.9957V34.1957H32.3204V28.9957H45.5704ZM29.6704 36.7957V41.9957H8.47041V36.7957H29.6704ZM37.6204 36.7957V41.9957H32.3204V36.7957H37.6204ZM45.5704 36.7957V41.9957H40.2704V36.7957H45.5704Z" fill="#1E5AB4"/>
</svg>
