<svg width="54" height="53" viewBox="0 0 54 53" fill="none" xmlns="http://www.w3.org/2000/svg">
<path d="M50.8709 5.70898V21.309H3.1709V5.70898H50.8709ZM48.2209 18.709V8.30898H5.8209V18.709H48.2209ZM13.7709 10.909V16.109H8.4709V10.909H13.7709ZM21.7209 10.909V16.109H16.4209V10.909H21.7209ZM29.6709 10.909V16.109H24.3709V10.909H29.6709ZM37.6209 10.909V16.109H32.3209V10.909H37.6209ZM45.5709 10.909V16.109H40.2709V10.909H45.5709ZM50.8709 23.909V47.309H3.1709V23.909H50.8709ZM48.2209 44.709V26.509H5.8209V44.709H48.2209ZM13.7709 29.109V34.309H8.4709V29.109H13.7709ZM21.7209 29.109V34.309H16.4209V29.109H21.7209ZM29.6709 29.109V34.309H24.3709V29.109H29.6709ZM45.5709 29.109V34.309H32.3209V29.109H45.5709ZM29.6709 36.909V42.109H8.4709V36.909H29.6709ZM37.6209 36.909V42.109H32.3209V36.909H37.6209ZM45.5709 36.909V42.109H40.2709V36.909H45.5709Z" fill="#1E5AB4"/>
</svg>
