<svg width="54" height="53" viewBox="0 0 54 53" fill="none" xmlns="http://www.w3.org/2000/svg">
<path d="M50.8704 5.70898V21.309H3.17041V5.70898H50.8704ZM48.2204 18.709V8.30898H5.82041V18.709H48.2204ZM13.7704 10.909V16.109H8.47041V10.909H13.7704ZM21.7204 10.909V16.109H16.4204V10.909H21.7204ZM29.6704 10.909V16.109H24.3704V10.909H29.6704ZM37.6204 10.909V16.109H32.3204V10.909H37.6204ZM45.5704 10.909V16.109H40.2704V10.909H45.5704ZM50.8704 23.909V47.309H3.17041V23.909H50.8704ZM48.2204 44.709V26.509H5.82041V44.709H48.2204ZM13.7704 29.109V34.309H8.47041V29.109H13.7704ZM21.7204 29.109V34.309H16.4204V29.109H21.7204ZM29.6704 29.109V34.309H24.3704V29.109H29.6704ZM45.5704 29.109V34.309H32.3204V29.109H45.5704ZM29.6704 36.909V42.109H8.47041V36.909H29.6704ZM37.6204 36.909V42.109H32.3204V36.909H37.6204ZM45.5704 36.909V42.109H40.2704V36.909H45.5704Z" fill="#1E5AB4"/>
</svg>
