<svg width="54" height="53" viewBox="0 0 54 53" fill="none" xmlns="http://www.w3.org/2000/svg">
<path d="M51.2 5.90332V21.5033H3.5V5.90332H51.2ZM48.55 18.9033V8.50332H6.15V18.9033H48.55ZM14.1 11.1033V16.3033H8.8V11.1033H14.1ZM22.05 11.1033V16.3033H16.75V11.1033H22.05ZM30 11.1033V16.3033H24.7V11.1033H30ZM37.95 11.1033V16.3033H32.65V11.1033H37.95ZM45.9 11.1033V16.3033H40.6V11.1033H45.9ZM51.2 24.1033V47.5033H3.5V24.1033H51.2ZM48.55 44.9033V26.7033H6.15V44.9033H48.55ZM14.1 29.3033V34.5033H8.8V29.3033H14.1ZM22.05 29.3033V34.5033H16.75V29.3033H22.05ZM30 29.3033V34.5033H24.7V29.3033H30ZM45.9 29.3033V34.5033H32.65V29.3033H45.9ZM30 37.1033V42.3033H8.8V37.1033H30ZM37.95 37.1033V42.3033H32.65V37.1033H37.95ZM45.9 37.1033V42.3033H40.6V37.1033H45.9Z" fill="#1E5AB4"/>
</svg>
