<svg width="54" height="53" viewBox="0 0 54 53" fill="none" xmlns="http://www.w3.org/2000/svg">
<path d="M50.8709 5.65332V21.2533H3.1709V5.65332H50.8709ZM48.2209 18.6533V8.25332H5.8209V18.6533H48.2209ZM13.7709 10.8533V16.0533H8.4709V10.8533H13.7709ZM21.7209 10.8533V16.0533H16.4209V10.8533H21.7209ZM29.6709 10.8533V16.0533H24.3709V10.8533H29.6709ZM37.6209 10.8533V16.0533H32.3209V10.8533H37.6209ZM45.5709 10.8533V16.0533H40.2709V10.8533H45.5709ZM50.8709 23.8533V47.2533H3.1709V23.8533H50.8709ZM48.2209 44.6533V26.4533H5.8209V44.6533H48.2209ZM13.7709 29.0533V34.2533H8.4709V29.0533H13.7709ZM21.7209 29.0533V34.2533H16.4209V29.0533H21.7209ZM29.6709 29.0533V34.2533H24.3709V29.0533H29.6709ZM45.5709 29.0533V34.2533H32.3209V29.0533H45.5709ZM29.6709 36.8533V42.0533H8.4709V36.8533H29.6709ZM37.6209 36.8533V42.0533H32.3209V36.8533H37.6209ZM45.5709 36.8533V42.0533H40.2709V36.8533H45.5709Z" fill="#1E5AB4"/>
</svg>
