<svg width="54" height="53" viewBox="0 0 54 53" fill="none" xmlns="http://www.w3.org/2000/svg">
<path d="M50.8704 5.65332V21.2533H3.17041V5.65332H50.8704ZM48.2204 18.6533V8.25332H5.82041V18.6533H48.2204ZM13.7704 10.8533V16.0533H8.47041V10.8533H13.7704ZM21.7204 10.8533V16.0533H16.4204V10.8533H21.7204ZM29.6704 10.8533V16.0533H24.3704V10.8533H29.6704ZM37.6204 10.8533V16.0533H32.3204V10.8533H37.6204ZM45.5704 10.8533V16.0533H40.2704V10.8533H45.5704ZM50.8704 23.8533V47.2533H3.17041V23.8533H50.8704ZM48.2204 44.6533V26.4533H5.82041V44.6533H48.2204ZM13.7704 29.0533V34.2533H8.47041V29.0533H13.7704ZM21.7204 29.0533V34.2533H16.4204V29.0533H21.7204ZM29.6704 29.0533V34.2533H24.3704V29.0533H29.6704ZM45.5704 29.0533V34.2533H32.3204V29.0533H45.5704ZM29.6704 36.8533V42.0533H8.47041V36.8533H29.6704ZM37.6204 36.8533V42.0533H32.3204V36.8533H37.6204ZM45.5704 36.8533V42.0533H40.2704V36.8533H45.5704Z" fill="#1E5AB4"/>
</svg>
