<svg width="54" height="53" viewBox="0 0 54 53" fill="none" xmlns="http://www.w3.org/2000/svg">
<path d="M51.2 5.8457V21.4457H3.5V5.8457H51.2ZM48.55 18.8457V8.4457H6.15V18.8457H48.55ZM14.1 11.0457V16.2457H8.8V11.0457H14.1ZM22.05 11.0457V16.2457H16.75V11.0457H22.05ZM30 11.0457V16.2457H24.7V11.0457H30ZM37.95 11.0457V16.2457H32.65V11.0457H37.95ZM45.9 11.0457V16.2457H40.6V11.0457H45.9ZM51.2 24.0457V47.4457H3.5V24.0457H51.2ZM48.55 44.8457V26.6457H6.15V44.8457H48.55ZM14.1 29.2457V34.4457H8.8V29.2457H14.1ZM22.05 29.2457V34.4457H16.75V29.2457H22.05ZM30 29.2457V34.4457H24.7V29.2457H30ZM45.9 29.2457V34.4457H32.65V29.2457H45.9ZM30 37.0457V42.2457H8.8V37.0457H30ZM37.95 37.0457V42.2457H32.65V37.0457H37.95ZM45.9 37.0457V42.2457H40.6V37.0457H45.9Z" fill="#1E5AB4"/>
</svg>
