<svg width="54" height="53" viewBox="0 0 54 53" fill="none" xmlns="http://www.w3.org/2000/svg">
<path d="M51.2 5.95898V21.559H3.5V5.95898H51.2ZM48.55 18.959V8.55898H6.15V18.959H48.55ZM14.1 11.159V16.359H8.8V11.159H14.1ZM22.05 11.159V16.359H16.75V11.159H22.05ZM30 11.159V16.359H24.7V11.159H30ZM37.95 11.159V16.359H32.65V11.159H37.95ZM45.9 11.159V16.359H40.6V11.159H45.9ZM51.2 24.159V47.559H3.5V24.159H51.2ZM48.55 44.959V26.759H6.15V44.959H48.55ZM14.1 29.359V34.559H8.8V29.359H14.1ZM22.05 29.359V34.559H16.75V29.359H22.05ZM30 29.359V34.559H24.7V29.359H30ZM45.9 29.359V34.559H32.65V29.359H45.9ZM30 37.159V42.359H8.8V37.159H30ZM37.95 37.159V42.359H32.65V37.159H37.95ZM45.9 37.159V42.359H40.6V37.159H45.9Z" fill="#1E5AB4"/>
</svg>
