<svg width="58" height="58" viewBox="0 0 58 58" fill="none" xmlns="http://www.w3.org/2000/svg">
<g clip-path="url(#clip0_1_570)">
<path d="M24.3322 29.4768H27.6724V32.817H24.3322V29.4768ZM4.33477 26.1251H32.7198C33.3143 17.0496 42.1873 10.7567 51.0532 13.3632V11.1061C51.0532 10.1838 50.3055 9.4361 49.3831 9.4361H34.3553V4.42589C34.3553 3.50354 33.6076 2.75586 32.6853 2.75586H19.3192C18.3968 2.75586 17.6492 3.50354 17.6492 4.42589V9.4361H2.62121C1.69885 9.4361 0.951172 10.1838 0.951172 11.1061V23.246C1.2148 24.8761 2.63145 26.1251 4.33477 26.1251ZM20.9892 6.09593H31.0152V9.4361H20.9892V6.09593Z" fill="#FDA700"/>
<path d="M39.7525 39.4287C36.218 37.3517 33.5991 33.7664 32.8842 29.4649H31.0126V34.4868C31.0126 35.4091 30.2649 36.1568 29.3425 36.1568H22.6623C21.7399 36.1568 20.9922 35.4091 20.9922 34.4868V29.4649H4.33477C3.14628 29.4658 1.97877 29.1517 0.951172 28.5546L0.951172 50.4638C0.951172 51.3861 1.69885 52.1338 2.62121 52.1338H39.8163C39.7009 51.2548 39.7756 51.8017 39.7525 39.4287ZM54.7441 19.3281C50.4681 15.0521 43.5108 15.0521 39.2348 19.3281C33.6061 24.9567 35.6932 34.5287 43.0927 37.3301V41.1726H50.8863V37.3301C58.2833 34.5297 60.3733 24.9574 54.7441 19.3281ZM46.9895 34.7044C46.9896 34.7044 46.9894 34.7044 46.9895 34.7044C42.7682 34.7044 39.3678 31.3054 39.3678 27.0829C39.3678 22.8614 42.7669 19.4614 46.9894 19.4614C51.2107 19.4614 54.6109 22.8604 54.6109 27.0829C54.6109 31.304 51.2119 34.7044 46.9895 34.7044ZM43.0925 51.1875C43.0925 53.3363 44.8407 55.0844 46.9894 55.0844C49.1381 55.0844 50.8862 53.3362 50.8862 51.1875V44.5129H43.0925V51.1875Z" fill="#FDA700"/>
</g>
<defs>
<clipPath id="clip0_1_570">
<rect width="57" height="57" fill="white" transform="translate(0.951172 0.419922)"/>
</clipPath>
</defs>
</svg>
