<svg width="41" height="41" viewBox="0 0 41 41" fill="none" xmlns="http://www.w3.org/2000/svg">
<path d="M38.1084 22.6504H23.1084C22.9426 22.6504 22.7837 22.7162 22.6665 22.8334C22.5492 22.9507 22.4834 23.1096 22.4834 23.2754V38.2754C22.4834 38.4412 22.5492 38.6001 22.6665 38.7173C22.7837 38.8345 22.9426 38.9004 23.1084 38.9004H38.1084C38.2742 38.9004 38.4331 38.8345 38.5503 38.7173C38.6676 38.6001 38.7334 38.4412 38.7334 38.2754V23.2754C38.7334 23.1096 38.6676 22.9507 38.5503 22.8334C38.4331 22.7162 38.2742 22.6504 38.1084 22.6504ZM26.8584 37.0254V29.5254L34.3584 33.2754L26.8584 37.0254ZM36.8584 27.0254H24.3584V24.5254H36.8584V27.0254ZM27.7959 13.9004C27.4184 13.9004 27.0678 14.0879 26.8584 14.4023L25.5259 16.4004H28.9353L29.359 15.341L28.7334 14.4023C28.6307 14.2478 28.4913 14.1211 28.3277 14.0335C28.1642 13.9459 27.9814 13.9002 27.7959 13.9004Z" fill="#FDA700"/>
<path d="M38.1084 2.65039H23.1084C22.9426 2.65039 22.7837 2.71624 22.6665 2.83345C22.5492 2.95066 22.4834 3.10963 22.4834 3.27539V18.2754C22.4834 18.4412 22.5492 18.6001 22.6665 18.7173C22.7837 18.8345 22.9426 18.9004 23.1084 18.9004H38.1084C38.2742 18.9004 38.4331 18.8345 38.5503 18.7173C38.6676 18.6001 38.7334 18.4412 38.7334 18.2754V3.27539C38.7334 3.10963 38.6676 2.95066 38.5503 2.83345C38.4331 2.71624 38.2742 2.65039 38.1084 2.65039ZM24.3584 4.52539H36.8584V7.02539H24.3584V4.52539ZM25.6084 9.52539C25.7749 9.52163 25.9404 9.55116 26.0953 9.61225C26.2502 9.67334 26.3913 9.76476 26.5104 9.88114C26.6295 9.99753 26.7241 10.1365 26.7887 10.29C26.8533 10.4434 26.8866 10.6083 26.8867 10.7748C26.8867 10.9413 26.8535 11.1061 26.7889 11.2596C26.7244 11.4131 26.6298 11.5521 26.5108 11.6686C26.3918 11.785 26.2507 11.8765 26.0959 11.9377C25.941 11.9988 25.7755 12.0284 25.609 12.0248C25.2824 12.0175 24.9716 11.8828 24.7432 11.6492C24.5147 11.4157 24.3867 11.1021 24.3867 10.7754C24.3866 10.4487 24.5144 10.135 24.7427 9.90135C24.9711 9.66772 25.2818 9.53278 25.6084 9.52539ZM23.1909 17.6504L25.8184 13.7085C26.2603 13.046 26.9996 12.6504 27.7959 12.6504C28.5921 12.6504 29.3315 13.046 29.7734 13.7085L29.9221 13.9316L30.8134 11.7041C31.1915 10.7604 32.0921 10.1504 33.1084 10.1504C34.1246 10.1504 35.0253 10.7604 35.4034 11.7035L37.7815 17.6504H23.1909Z" fill="#FDA700"/>
<path d="M33.1084 11.4004C32.6059 11.4004 32.1609 11.7016 31.9746 12.1685L30.2815 16.4004H35.9359L34.2428 12.1685C34.1528 11.9413 33.9965 11.7465 33.7941 11.6094C33.5917 11.4724 33.3528 11.3996 33.1084 11.4004ZM18.1084 22.6504H3.1084C2.94264 22.6504 2.78367 22.7162 2.66646 22.8334C2.54925 22.9507 2.4834 23.1096 2.4834 23.2754V38.2754C2.4834 38.4412 2.54925 38.6001 2.66646 38.7173C2.78367 38.8345 2.94264 38.9004 3.1084 38.9004H18.1084C18.2742 38.9004 18.4331 38.8345 18.5503 38.7173C18.6676 38.6001 18.7334 38.4412 18.7334 38.2754V23.2754C18.7334 23.1096 18.6676 22.9507 18.5503 22.8334C18.4331 22.7162 18.2742 22.6504 18.1084 22.6504ZM4.3584 24.5254H16.8584V27.0254H4.3584V24.5254ZM3.7334 28.9004H6.2334V30.1504H3.7334V28.9004ZM3.7334 33.9004H8.7334V35.1504H3.7334V33.9004ZM17.4834 37.6504H3.7334V36.4004H17.4834V37.6504ZM17.4834 35.1504H9.9834V33.9004H17.4834V35.1504ZM17.4834 32.6504H3.7334V31.4004H17.4834V32.6504ZM17.4834 30.1504H7.4834V28.9004H17.4834V30.1504ZM18.1084 2.65039H3.1084C2.94264 2.65039 2.78367 2.71624 2.66646 2.83345C2.54925 2.95066 2.4834 3.10963 2.4834 3.27539V18.2754C2.4834 18.4412 2.54925 18.6001 2.66646 18.7173C2.78367 18.8345 2.94264 18.9004 3.1084 18.9004H18.1084C18.2742 18.9004 18.4331 18.8345 18.5503 18.7173C18.6676 18.6001 18.7334 18.4412 18.7334 18.2754V3.27539C18.7334 3.10963 18.6676 2.95066 18.5503 2.83345C18.4331 2.71624 18.2742 2.65039 18.1084 2.65039ZM12.4834 10.1504H9.3584C9.19264 10.1504 9.03367 10.2162 8.91646 10.3334C8.79925 10.4507 8.7334 10.6096 8.7334 10.7754V11.4004H12.4834V12.6504H8.7334V15.7754C8.7334 16.8091 7.89215 17.6504 6.8584 17.6504C5.82465 17.6504 4.9834 16.8091 4.9834 15.7754C4.9834 14.7416 5.82465 13.9004 6.8584 13.9004C7.0784 13.9004 7.28715 13.9454 7.4834 14.0154V10.7754C7.4834 9.74164 8.32465 8.90039 9.3584 8.90039H12.4834V10.1504ZM16.8584 7.02539H4.3584V4.52539H16.8584V7.02539Z" fill="#FDA700"/>
</svg>
