<svg width="91" height="91" viewBox="0 0 91 91" fill="none" xmlns="http://www.w3.org/2000/svg">
<g clip-path="url(#clip0_1_536)">
<path d="M89.3516 61.071C88.343 60.0617 87.1162 59.5566 85.6745 59.5566H60.5776L53.2219 66.9121C51.1304 68.931 48.6787 69.9409 45.8662 69.9409C43.0543 69.9409 40.6018 68.9323 38.5105 66.9121L31.2088 59.5566H6.05845C4.61642 59.5566 3.39053 60.0623 2.38061 61.071C1.37089 62.0804 0.866211 63.3065 0.866211 64.7495V82.0565C0.866211 83.499 1.37089 84.7248 2.38061 85.7344C3.39034 86.7437 4.61623 87.248 6.05845 87.248H85.6747C87.1164 87.248 88.3432 86.7437 89.3518 85.7344C90.3619 84.7248 90.8662 83.499 90.8662 82.0565V64.7495C90.8662 63.3065 90.3619 62.0804 89.3516 61.071ZM69.0703 79.2981C68.3843 79.9833 67.5727 80.3256 66.6352 80.3256C65.6976 80.3256 64.8872 79.9833 64.2014 79.2981C63.5168 78.6129 63.1744 77.8019 63.1744 76.8649C63.1744 75.9275 63.5168 75.1152 64.2014 74.4311C64.8872 73.7453 65.6976 73.4022 66.6352 73.4022C67.5727 73.4022 68.3841 73.7453 69.0703 74.4311C69.7547 75.115 70.0972 75.9273 70.0972 76.8649C70.0972 77.8017 69.7547 78.6129 69.0703 79.2981ZM82.9155 79.2981C82.2309 79.9833 81.4193 80.3256 80.4815 80.3256C79.5442 80.3256 78.7332 79.9833 78.0478 79.2981C77.3633 78.6129 77.021 77.8019 77.021 76.8649C77.021 75.9275 77.3633 75.1152 78.0478 74.4311C78.733 73.7453 79.544 73.4022 80.4815 73.4022C81.4191 73.4022 82.2307 73.7453 82.9155 74.4311C83.6007 75.115 83.9436 75.9273 83.9436 76.8649C83.9436 77.8017 83.6013 78.6129 82.9155 79.2981Z" fill="#7699DC"/>
<path d="M43.4324 61.9895C44.0818 62.674 44.893 63.0165 45.8662 63.0165C46.8401 63.0165 47.6504 62.674 48.3 61.9895L72.531 37.7583C73.6485 36.7127 73.9014 35.4505 73.2882 33.9721C72.6763 32.5662 71.6122 31.8632 70.0972 31.8624H56.2507V7.63161C56.2507 6.69424 55.9076 5.88286 55.2237 5.19784C54.5379 4.51262 53.7269 4.16992 52.79 4.16992H38.9425C38.0055 4.16992 37.1941 4.51262 36.5087 5.19784C35.8239 5.88286 35.4812 6.69405 35.4812 7.63161V31.8626H21.635C20.1198 31.8626 19.0567 32.5664 18.4436 33.9723C17.831 35.4501 18.0831 36.7129 19.2012 37.7585L43.4324 61.9895Z" fill="#7699DC"/>
</g>
<defs>
<clipPath id="clip0_1_536">
<rect width="90" height="90" fill="white" transform="translate(0.866211 0.708984)"/>
</clipPath>
</defs>
</svg>
