<svg width="41" height="41" viewBox="0 0 41 41" fill="none" xmlns="http://www.w3.org/2000/svg">
<path d="M27.5605 13.3359C26.566 13.3359 25.6122 12.9408 24.9089 12.2376C24.2056 11.5343 23.8105 10.5805 23.8105 9.58594V3.33594H10.0605C9.06599 3.33594 8.11216 3.73103 7.4089 4.43429C6.70564 5.13755 6.31055 6.09138 6.31055 7.08594V34.5859C6.31055 35.5805 6.70564 36.5343 7.4089 37.2376C8.11216 37.9408 9.06599 38.3359 10.0605 38.3359H30.0605C31.0551 38.3359 32.0089 37.9408 32.7122 37.2376C33.4155 36.5343 33.8105 35.5805 33.8105 34.5859V13.3359H27.5605ZM16.3105 9.58594C17.0522 9.58594 17.7773 9.80587 18.3939 10.2179C19.0106 10.63 19.4913 11.2157 19.7751 11.9009C20.0589 12.5861 20.1332 13.3401 19.9885 14.0675C19.8438 14.795 19.4866 15.4631 18.9622 15.9876C18.4378 16.512 17.7696 16.8692 17.0421 17.0139C16.3147 17.1586 15.5607 17.0843 14.8755 16.8005C14.1903 16.5167 13.6046 16.036 13.1925 15.4193C12.7805 14.8026 12.5605 14.0776 12.5605 13.3359C12.5605 12.3414 12.9556 11.3875 13.6589 10.6843C14.3622 9.98103 15.316 9.58594 16.3105 9.58594ZM11.3105 22.0859C11.3105 21.0914 11.7056 20.1375 12.4089 19.4343C13.1122 18.731 14.066 18.3359 15.0605 18.3359H17.5605C18.5551 18.3359 19.5089 18.731 20.2122 19.4343C20.9155 20.1375 21.3105 21.0914 21.3105 22.0859V24.5859C21.3105 24.9175 21.1789 25.2354 20.9444 25.4698C20.71 25.7042 20.3921 25.8359 20.0605 25.8359H12.5605C12.229 25.8359 11.9111 25.7042 11.6767 25.4698C11.4422 25.2354 11.3105 24.9175 11.3105 24.5859V22.0859ZM27.5605 32.0859H12.5605C12.229 32.0859 11.9111 31.9542 11.6767 31.7198C11.4422 31.4854 11.3105 31.1675 11.3105 30.8359C11.3105 30.5044 11.4422 30.1865 11.6767 29.9521C11.9111 29.7176 12.229 29.5859 12.5605 29.5859H27.5605C27.8921 29.5859 28.21 29.7176 28.4444 29.9521C28.6789 30.1865 28.8105 30.5044 28.8105 30.8359C28.8105 31.1675 28.6789 31.4854 28.4444 31.7198C28.21 31.9542 27.8921 32.0859 27.5605 32.0859ZM27.5605 25.8359H25.0605C24.729 25.8359 24.4111 25.7042 24.1767 25.4698C23.9422 25.2354 23.8105 24.9175 23.8105 24.5859C23.8105 24.2544 23.9422 23.9365 24.1767 23.7021C24.4111 23.4676 24.729 23.3359 25.0605 23.3359H27.5605C27.8921 23.3359 28.21 23.4676 28.4444 23.7021C28.6789 23.9365 28.8105 24.2544 28.8105 24.5859C28.8105 24.9175 28.6789 25.2354 28.4444 25.4698C28.21 25.7042 27.8921 25.8359 27.5605 25.8359ZM27.5605 19.5859H25.0605C24.729 19.5859 24.4111 19.4542 24.1767 19.2198C23.9422 18.9854 23.8105 18.6675 23.8105 18.3359C23.8105 18.0044 23.9422 17.6865 24.1767 17.4521C24.4111 17.2176 24.729 17.0859 25.0605 17.0859H27.5605C27.8921 17.0859 28.21 17.2176 28.4444 17.4521C28.6789 17.6865 28.8105 18.0044 28.8105 18.3359C28.8105 18.6675 28.6789 18.9854 28.4444 19.2198C28.21 19.4542 27.8921 19.5859 27.5605 19.5859Z" fill="#FDA700"/>
<path d="M27.5605 10.8355H33.0855L26.3105 4.06055V9.58555C26.3105 9.91707 26.4422 10.235 26.6767 10.4694C26.9111 10.7039 27.229 10.8355 27.5605 10.8355Z" fill="#FDA700"/>
</svg>
