<svg width="41" height="41" viewBox="0 0 41 41" fill="none" xmlns="http://www.w3.org/2000/svg">
<path d="M37.5985 2.72852H33.2455C32.6538 2.72852 32.175 3.20728 32.175 3.79894V4.86936H23.4145C22.9711 3.6261 21.7941 2.72852 20.4004 2.72852C19.0067 2.72852 17.8297 3.6261 17.3863 4.86936H8.62574V3.79894C8.62574 3.20728 8.14697 2.72852 7.55531 2.72852H3.20226C2.6106 2.72852 2.13184 3.20728 2.13184 3.79894V8.08063C2.13184 8.67229 2.6106 9.15105 3.20226 9.15105H7.55531C8.14697 9.15105 8.62574 8.67229 8.62574 8.08063V6.99594H13.0219C9.30703 9.31668 6.85754 13.3928 6.56474 17.9581C5.28038 18.3785 4.34404 19.5741 4.34404 20.9971C4.34404 22.7678 5.78455 24.2083 7.55531 24.2083C9.32608 24.2083 10.7666 22.7678 10.7666 20.9971C10.7666 19.6312 9.90589 18.4699 8.70138 18.0065C9.06661 12.9167 12.6181 8.62669 17.5583 7.4027C18.0926 8.4358 19.1592 9.15105 20.4004 9.15105C21.6416 9.15105 22.7082 8.4358 23.2425 7.4027C28.1827 8.62662 31.7342 12.9166 32.0994 18.0065C30.8949 18.4699 30.0342 19.6312 30.0342 20.9971C30.0342 22.7678 31.4747 24.2083 33.2455 24.2083C35.0162 24.2083 36.4567 22.7678 36.4567 20.9971C36.4567 19.5741 35.5204 18.3785 34.236 17.9581C33.9432 13.3928 31.4938 9.33096 27.7789 7.01021H32.175V8.08063C32.175 8.67229 32.6538 9.15105 33.2455 9.15105H37.5985C38.1902 9.15105 38.6689 8.67229 38.6689 8.08063V3.79894C38.6689 3.20728 38.1902 2.72852 37.5985 2.72852ZM27.6828 37.9379C27.1229 36.2246 25.5099 34.9126 23.6117 34.9126H17.1891C15.2909 34.9126 13.6778 36.2246 13.1179 37.9379C12.9021 38.5985 13.464 39.2656 14.1591 39.2656H26.6417C27.3367 39.2656 27.8987 38.5985 27.6828 37.9379Z" fill="#FDA700"/>
<path d="M29.8544 24.6848L21.4708 12.1094V22.2644C22.7141 22.7078 23.6117 23.8848 23.6117 25.2785C23.6117 27.0493 22.1712 28.4898 20.4004 28.4898C18.6297 28.4898 17.1892 27.0493 17.1892 25.2785C17.1892 23.8848 18.0867 22.7078 19.33 22.2644V12.1094L10.9464 24.6848C10.6631 25.1092 10.7196 25.6747 11.0802 26.0354C13.0453 28.0004 14.3014 30.532 14.7862 33.2475C15.5298 32.9459 16.3385 32.7715 17.1892 32.7715H23.6117C24.4623 32.7715 25.2711 32.9458 26.0146 33.2474C26.4994 30.5317 27.7555 28.0004 29.7206 26.0354C30.0813 25.6747 30.1377 25.1092 29.8544 24.6848Z" fill="#FDA700"/>
<path d="M20.4005 24.209C19.8099 24.209 19.3301 24.6888 19.3301 25.2794C19.3301 25.87 19.8099 26.3498 20.4005 26.3498C20.9911 26.3498 21.4709 25.87 21.4709 25.2794C21.4709 24.6888 20.9911 24.209 20.4005 24.209Z" fill="#FDA700"/>
</svg>
