<svg width="58" height="58" viewBox="0 0 58 58" fill="none" xmlns="http://www.w3.org/2000/svg">
<g opacity="0.7">
<path d="M15.4161 9.36132C15.2168 9.36141 15.0235 9.29366 14.8678 9.16921L10.4819 5.66044C10.3002 5.51504 10.1837 5.30341 10.158 5.07212C10.1453 4.95759 10.1553 4.84168 10.1874 4.73101C10.2195 4.62034 10.273 4.51707 10.345 4.42711C10.417 4.33714 10.506 4.26224 10.607 4.20667C10.7079 4.1511 10.8188 4.11596 10.9334 4.10326C11.1647 4.07759 11.3967 4.14486 11.5784 4.29027L15.9643 7.79904C16.1069 7.91234 16.2105 8.06721 16.261 8.24215C16.3115 8.41708 16.3062 8.60339 16.2459 8.77518C16.1856 8.94698 16.0733 9.09573 15.9246 9.20077C15.7759 9.30581 15.5982 9.36193 15.4161 9.36132ZM43.4863 9.36132C43.3044 9.3614 43.1271 9.30499 42.9787 9.19988C42.8304 9.09477 42.7184 8.94615 42.6581 8.77459C42.5979 8.60303 42.5925 8.417 42.6427 8.24223C42.6928 8.06746 42.796 7.91259 42.938 7.79904L47.324 4.29027C47.4139 4.21827 47.5172 4.1647 47.6279 4.13261C47.7386 4.10052 47.8545 4.09055 47.969 4.10326C48.0835 4.11596 48.1944 4.1511 48.2954 4.20667C48.3963 4.26224 48.4853 4.33714 48.5573 4.42711C48.6293 4.51707 48.6829 4.62034 48.715 4.73101C48.7471 4.84168 48.757 4.95759 48.7443 5.07212C48.7316 5.18664 48.6965 5.29754 48.6409 5.39849C48.5853 5.49943 48.5104 5.58844 48.4205 5.66044L44.0345 9.16921C43.8789 9.29366 43.6855 9.36141 43.4863 9.36132ZM47.8722 14.6245H42.4775C42.7765 16.7019 42.5653 18.8209 41.8623 20.7984C41.1593 22.776 39.9856 24.5528 38.4424 25.9754C37.523 26.8646 36.7957 27.9329 36.3054 29.1142C35.8151 30.2955 35.5721 31.5649 35.5915 32.8438V38.3087C35.589 39.0846 35.3294 39.8378 34.8532 40.4505C34.377 41.0631 33.7112 41.5007 32.9599 41.6947V42.6947C32.9599 42.9273 32.8675 43.1504 32.703 43.3149C32.5385 43.4794 32.3154 43.5718 32.0828 43.5718C31.8501 43.5718 31.627 43.4794 31.4625 43.3149C31.298 43.1504 31.2056 42.9273 31.2056 42.6947V41.8175H27.6968V42.6947C27.6968 42.9273 27.6044 43.1504 27.4399 43.3149C27.2754 43.4794 27.0522 43.5718 26.8196 43.5718C26.587 43.5718 26.3638 43.4794 26.1993 43.3149C26.0348 43.1504 25.9424 42.9273 25.9424 42.6947V41.6947C25.1911 41.5007 24.5253 41.0631 24.0491 40.4505C23.573 39.8378 23.3133 39.0846 23.3108 38.3087V32.9929C23.3299 31.6793 23.0824 30.3756 22.5834 29.1604C22.0843 27.9452 21.3441 26.8438 20.4073 25.9227C18.9595 24.5571 17.8414 22.8799 17.1377 21.0182C16.434 19.1564 16.1633 17.159 16.3459 15.1771C16.3635 14.9929 16.3985 14.8087 16.4249 14.6245H11.0301C10.3328 14.6266 9.66468 14.9045 9.17162 15.3975C8.67855 15.8906 8.40063 16.5588 8.39854 17.2561V40.9403C8.40063 41.6376 8.67855 42.3057 9.17162 42.7988C9.66468 43.2918 10.3328 43.5698 11.0301 43.5718H19.8021C20.6292 43.5771 21.4064 43.9666 21.9073 44.6245L28.8021 53.8175C28.8909 53.9029 28.9959 53.9698 29.1108 54.0143C29.2258 54.0589 29.3484 54.0801 29.4717 54.0769C29.5949 54.0736 29.7163 54.0459 29.8287 53.9953C29.9411 53.9448 30.0424 53.8724 30.1266 53.7824L36.995 44.6245C37.2421 44.2997 37.5603 44.0359 37.9253 43.8534C38.2903 43.6709 38.6922 43.5746 39.1003 43.5718H47.8722C48.5695 43.5698 49.2377 43.2918 49.7307 42.7988C50.2238 42.3057 50.5017 41.6376 50.5038 40.9403V17.2561C50.5017 16.5588 50.2238 15.8906 49.7307 15.3975C49.2377 14.9045 48.5695 14.6266 47.8722 14.6245ZM11.0301 17.2561H13.6617C13.8943 17.2561 14.1175 17.3485 14.282 17.513C14.4465 17.6775 14.5389 17.9006 14.5389 18.1332C14.5389 18.3659 14.4465 18.589 14.282 18.7535C14.1175 18.918 13.8943 19.0104 13.6617 19.0104H11.0301C10.7975 19.0104 10.5744 18.918 10.4099 18.7535C10.2453 18.589 10.1529 18.3659 10.1529 18.1332C10.1529 17.9006 10.2453 17.6775 10.4099 17.513C10.5744 17.3485 10.7975 17.2561 11.0301 17.2561ZM15.9599 31.0982L11.574 34.6069C11.4211 34.7333 11.2285 34.8017 11.0301 34.7999C10.8984 34.7994 10.7684 34.7691 10.6499 34.7114C10.5315 34.6537 10.4276 34.57 10.3459 34.4666C10.273 34.3774 10.2187 34.2745 10.1862 34.1639C10.1537 34.0533 10.1437 33.9374 10.1568 33.8229C10.1699 33.7084 10.2058 33.5977 10.2624 33.4974C10.319 33.397 10.3951 33.309 10.4863 33.2385L14.8722 29.7297C14.9606 29.6464 15.0652 29.5822 15.1797 29.5414C15.2941 29.5006 15.4157 29.484 15.5369 29.4927C15.658 29.5013 15.7761 29.5351 15.8835 29.5917C15.991 29.6484 16.0855 29.7267 16.161 29.8218C16.2366 29.9169 16.2916 30.0266 16.3226 30.1441C16.3535 30.2616 16.3598 30.3842 16.3409 30.5042C16.322 30.6241 16.2783 30.7389 16.2128 30.8412C16.1472 30.9434 16.0611 31.0309 15.9599 31.0982ZM48.5564 34.4666C48.4748 34.57 48.3709 34.6537 48.2524 34.7114C48.1339 34.7691 48.004 34.7994 47.8722 34.7999C47.6739 34.8017 47.4813 34.7333 47.3284 34.6069L42.9424 31.0982C42.7826 30.9473 42.6852 30.742 42.6696 30.5228C42.6539 30.3036 42.7211 30.0865 42.8578 29.9144C42.9946 29.7424 43.1909 29.628 43.408 29.5938C43.6251 29.5596 43.8471 29.6081 44.0301 29.7297L48.4161 33.2385C48.5075 33.3088 48.5838 33.3968 48.6405 33.4971C48.6972 33.5975 48.7332 33.7083 48.7463 33.8228C48.7594 33.9374 48.7493 34.0534 48.7167 34.164C48.6841 34.2746 48.6296 34.3775 48.5564 34.4666ZM47.8722 19.0104H45.2406C45.008 19.0104 44.7849 18.918 44.6204 18.7535C44.4559 18.589 44.3635 18.3659 44.3635 18.1332C44.3635 17.9006 44.4559 17.6775 44.6204 17.513C44.7849 17.3485 45.008 17.2561 45.2406 17.2561H47.8722C48.1049 17.2561 48.328 17.3485 48.4925 17.513C48.657 17.6775 48.7494 17.9006 48.7494 18.1332C48.7494 18.3659 48.657 18.589 48.4925 18.7535C48.328 18.918 48.1049 19.0104 47.8722 19.0104ZM37.3196 8.12448C35.8731 6.72825 34.0831 5.73937 32.1311 5.25815C30.1791 4.77692 28.1346 4.82046 26.2049 5.38434C24.2752 5.94822 22.5289 7.0124 21.1431 8.46894C19.7574 9.92548 18.7815 11.7226 18.3143 13.678C17.8477 15.6337 17.9067 17.6781 18.4853 19.6037C19.064 21.5292 20.1417 23.2675 21.6091 24.642C22.7208 25.7273 23.6003 27.0271 24.1944 28.4627C24.7886 29.8982 25.0848 31.4394 25.0652 32.9929V33.9227H33.8371V32.8438C33.8175 31.325 34.1093 29.8182 34.6947 28.4166C35.2801 27.015 36.1466 25.7483 37.2407 24.6947C38.3741 23.6351 39.2792 22.3553 39.9004 20.9335C40.5216 19.5118 40.8459 17.9781 40.8532 16.4266C40.8606 14.8751 40.551 13.3384 39.9434 11.9108C39.3358 10.4832 38.4429 9.19474 37.3196 8.12448ZM26.2757 9.29114C26.2406 9.30869 23.0477 10.6859 22.4161 13.914C22.3829 14.084 22.3001 14.2404 22.1782 14.3634C22.0563 14.4865 21.9006 14.5707 21.7309 14.6054C21.5612 14.6401 21.385 14.6238 21.2245 14.5585C21.064 14.4932 20.9265 14.3819 20.8292 14.2385C20.7646 14.1431 20.7196 14.0358 20.6969 13.9229C20.6742 13.8099 20.6741 13.6936 20.6968 13.5806C21.0006 12.2826 21.6027 11.0732 22.4554 10.0485C23.3081 9.02373 24.3879 8.2118 25.6091 7.67711C25.7536 7.60062 25.9166 7.566 26.0798 7.57717C26.2429 7.58833 26.3997 7.64483 26.5324 7.7403C26.6652 7.83577 26.7687 7.96641 26.8312 8.11751C26.8937 8.26861 26.9128 8.43417 26.8863 8.59553C26.8593 8.75679 26.7878 8.90732 26.68 9.03021C26.5721 9.15309 26.4321 9.24346 26.2757 9.29114ZM28.574 31.2911C28.574 31.5238 28.4816 31.7469 28.3171 31.9114C28.1526 32.0759 27.9294 32.1683 27.6968 32.1683C27.4641 32.1683 27.241 32.0759 27.0765 31.9114C26.912 31.7469 26.8196 31.5238 26.8196 31.2911V28.6596C26.8196 28.4269 26.912 28.2038 27.0765 28.0393C27.241 27.8748 27.4641 27.7824 27.6968 27.7824C27.9294 27.7824 28.1526 27.8748 28.3171 28.0393C28.4816 28.2038 28.574 28.4269 28.574 28.6596V31.2911ZM28.574 24.2736C28.574 24.5062 28.4816 24.7294 28.3171 24.8939C28.1526 25.0584 27.9294 25.1508 27.6968 25.1508C27.4641 25.1508 27.241 25.0584 27.0765 24.8939C26.912 24.7294 26.8196 24.5062 26.8196 24.2736V23.3964C26.8196 23.1638 26.912 22.9406 27.0765 22.7761C27.241 22.6116 27.4641 22.5192 27.6968 22.5192C27.9294 22.5192 28.1526 22.6116 28.3171 22.7761C28.4816 22.9406 28.574 23.1638 28.574 23.3964V24.2736ZM32.0828 31.2911C32.0828 31.5238 31.9903 31.7469 31.8258 31.9114C31.6613 32.0759 31.4382 32.1683 31.2056 32.1683C30.9729 32.1683 30.7498 32.0759 30.5853 31.9114C30.4208 31.7469 30.3284 31.5238 30.3284 31.2911V28.6596C30.3284 28.4269 30.4208 28.2038 30.5853 28.0393C30.7498 27.8748 30.9729 27.7824 31.2056 27.7824C31.4382 27.7824 31.6613 27.8748 31.8258 28.0393C31.9903 28.2038 32.0828 28.4269 32.0828 28.6596V31.2911ZM32.0828 24.2736C32.0828 24.5062 31.9903 24.7294 31.8258 24.8939C31.6613 25.0584 31.4382 25.1508 31.2056 25.1508C30.9729 25.1508 30.7498 25.0584 30.5853 24.8939C30.4208 24.7294 30.3284 24.5062 30.3284 24.2736V23.3964C30.3284 23.1638 30.4208 22.9406 30.5853 22.7761C30.7498 22.6116 30.9729 22.5192 31.2056 22.5192C31.4382 22.5192 31.6613 22.6116 31.8258 22.7761C31.9903 22.9406 32.0828 23.1638 32.0828 23.3964V24.2736Z" fill="#FDA700"/>
<path d="M25.0655 35.678V38.3096C25.0669 38.7744 25.2522 39.2199 25.5809 39.5486C25.9096 39.8773 26.3551 40.0626 26.8199 40.0639H32.0831C32.5479 40.0626 32.9934 39.8773 33.3221 39.5486C33.6508 39.2199 33.8361 38.7744 33.8375 38.3096V35.678H25.0655Z" fill="#FDA700"/>
</g>
</svg>
