<svg width="41" height="41" viewBox="0 0 41 41" fill="none" xmlns="http://www.w3.org/2000/svg">
<g clip-path="url(#clip0_1_667)">
<path d="M23.691 25.6559C23.3046 26.0412 22.8343 26.3319 22.3169 26.5052L17.3449 28.1624C16.9865 28.2821 16.6111 28.343 16.2333 28.3429C15.2941 28.3429 14.4112 27.9772 13.7473 27.3131C12.7995 26.3652 12.4742 24.9867 12.898 23.7154L14.5554 18.7437C14.7285 18.2261 15.0192 17.7558 15.4046 17.3695L26.1433 6.63086H5.13281C2.76352 6.63086 0.835938 8.55844 0.835938 10.9277V35.9277C0.835938 38.297 2.76352 40.2246 5.13281 40.2246H30.1328C32.5021 40.2246 34.4297 38.297 34.4297 35.9277V14.9173L23.691 25.6559Z" fill="#FDA700"/>
<path d="M17.062 19.0268C16.9333 19.1554 16.8364 19.3123 16.7789 19.4849L15.1216 24.4567C15.0528 24.6631 15.0428 24.8846 15.0928 25.0964C15.1428 25.3082 15.2508 25.5019 15.4047 25.6558C15.5586 25.8097 15.7523 25.9177 15.9641 25.9677C16.1758 26.0177 16.3974 26.0077 16.6038 25.9389L21.5757 24.2817C21.7483 24.2242 21.9051 24.1273 22.0338 23.9986L36.6731 9.35932L31.7013 4.38752L17.062 19.0268ZM38.0542 0.79666C37.2914 0.0339258 36.0548 0.0339258 35.292 0.79666L33.3585 2.73018L38.3304 7.70205L40.2639 5.76854C41.0267 5.0058 41.0267 3.76916 40.2639 3.00643L38.0542 0.79666Z" fill="#FDA700"/>
</g>
<defs>
<clipPath id="clip0_1_667">
<rect width="40" height="40" fill="white" transform="translate(0.835938 0.224609)"/>
</clipPath>
</defs>
</svg>
