<svg width="91" height="91" viewBox="0 0 91 91" fill="none" xmlns="http://www.w3.org/2000/svg">
<g clip-path="url(#clip0_1_533)">
<path d="M45.3819 0.708984C20.5324 0.708984 0.383789 20.8576 0.383789 45.7071C0.383789 70.5566 20.5324 90.709 45.3819 90.709C70.2314 90.709 90.3838 70.5566 90.3838 45.7071C90.3838 20.8576 70.2314 0.708984 45.3819 0.708984ZM54.7495 70.4499C52.4333 71.3642 50.5895 72.0575 49.2066 72.5375C47.6555 73.0441 46.0305 73.2875 44.399 73.2576C41.5952 73.2576 39.4124 72.5718 37.8581 71.2042C36.3038 69.8366 35.5305 68.1033 35.5305 65.9966C35.5305 65.1776 35.5876 64.3395 35.7019 63.4861C35.8432 62.5141 36.03 61.5492 36.2619 60.5947L39.1609 50.3547C39.4162 49.3718 39.6371 48.4385 39.8124 47.5699C39.9876 46.6937 40.0714 45.8899 40.0714 45.1585C40.0714 43.8556 39.8009 42.9414 39.2638 42.4271C38.719 41.9128 37.6943 41.6614 36.1666 41.6614C35.42 41.6614 34.6505 41.7718 33.8619 42.0042C33.0809 42.2442 32.4028 42.4614 31.8466 42.6747L32.6124 39.5204C34.5095 38.7471 36.3266 38.0842 38.06 37.5356C39.645 37.0053 41.303 36.7252 42.9743 36.7052C45.759 36.7052 47.9076 37.3833 49.42 38.7242C50.9247 40.069 51.6828 41.8176 51.6828 43.9661C51.6828 44.4118 51.6295 45.1966 51.5266 46.3166C51.4373 47.3632 51.2433 48.3982 50.9476 49.4061L48.0638 59.6156C47.8053 60.5391 47.593 61.4749 47.4276 62.4195C47.2706 63.2056 47.1776 64.0031 47.1495 64.8042C47.1495 66.1604 47.4505 67.0861 48.06 67.5775C48.6619 68.069 49.7171 68.3166 51.2105 68.3166C51.9152 68.3166 52.7038 68.1909 53.5952 67.9471C54.479 67.7033 55.119 67.4861 55.5228 67.2995L54.7495 70.4499ZM54.239 29.0099C52.9278 30.2465 51.1839 30.9194 49.3819 30.8842C47.4924 30.8842 45.8619 30.2595 44.5057 29.0099C43.8607 28.4426 43.3456 27.7431 42.9952 26.9588C42.6448 26.1746 42.4675 25.3241 42.4752 24.4652C42.4752 22.6937 43.1609 21.1699 44.5057 19.909C45.8198 18.6626 47.571 17.9826 49.3819 18.0157C51.2752 18.0157 52.8981 18.6442 54.239 19.909C55.5838 21.1699 56.2581 22.6937 56.2581 24.4652C56.2581 26.2442 55.5838 27.7604 54.239 29.0099Z" fill="#2CC47B"/>
</g>
<defs>
<clipPath id="clip0_1_533">
<rect width="90" height="90" fill="white" transform="translate(0.383789 0.708984)"/>
</clipPath>
</defs>
</svg>
