<svg width="36" height="36" viewBox="0 0 36 36" fill="none" xmlns="http://www.w3.org/2000/svg">
<g clip-path="url(#clip0_1_202)">
<path d="M35.1698 15.1491L18.5793 3.00183C18.4234 2.8877 18.2353 2.82617 18.0421 2.82617C17.8489 2.82617 17.6608 2.8877 17.5049 3.00183L0.914249 15.1491C0.509014 15.4458 0.420967 16.0149 0.717715 16.4201C1.01446 16.8253 1.58356 16.9132 1.98872 16.6166L18.042 4.86264L34.0953 16.6166C34.2509 16.7308 34.4388 16.7924 34.6318 16.7922C34.9118 16.7922 35.1881 16.6634 35.3663 16.42C35.6631 16.0149 35.575 15.4458 35.1698 15.1491Z" fill="#304461"/>
<path d="M30.774 16.8223C30.2718 16.8223 29.8646 17.2294 29.8646 17.7316V32.2067H22.5897V24.3053C22.5897 21.7979 20.5497 19.758 18.0424 19.758C15.5351 19.758 13.4951 21.798 13.4951 24.3053V32.2067H6.22014V17.7317C6.22014 17.2295 5.81292 16.8223 5.31075 16.8223C4.80858 16.8223 4.40137 17.2295 4.40137 17.7317V33.1162C4.40137 33.6184 4.80858 34.0256 5.31075 34.0256H14.4045C14.8828 34.0256 15.2741 33.6561 15.3104 33.187C15.3125 33.1658 15.3139 33.1425 15.3139 33.1162V24.3054C15.3139 22.8008 16.5379 21.5769 18.0424 21.5769C19.5469 21.5769 20.7709 22.8009 20.7709 24.3054V33.1162C20.7709 33.1424 20.7723 33.1652 20.7745 33.1862C20.8103 33.6556 21.2018 34.0256 21.6803 34.0256H30.7741C31.2763 34.0256 31.6835 33.6184 31.6835 33.1162V17.7317C31.6834 17.2294 31.2762 16.8223 30.774 16.8223Z" fill="#304461"/>
</g>
<defs>
<clipPath id="clip0_1_202">
<rect width="35" height="35" fill="white" transform="translate(0.541992 0.925781)"/>
</clipPath>
</defs>
</svg>
