<svg width="41" height="41" viewBox="0 0 41 41" fill="none" xmlns="http://www.w3.org/2000/svg">
<g clip-path="url(#clip0_1_609)">
<path d="M9.17263 4.66777C9.01322 4.66784 8.85853 4.61364 8.73403 4.51408L5.22526 1.70706C5.0799 1.59074 4.98671 1.42144 4.96618 1.2364C4.95601 1.14478 4.96399 1.05206 4.98966 0.963521C5.01533 0.874984 5.05819 0.792371 5.11579 0.720397C5.17338 0.648424 5.24459 0.588499 5.32535 0.544046C5.40611 0.499593 5.49483 0.471481 5.58645 0.461315C5.77148 0.440785 5.9571 0.4946 6.10245 0.610923L9.61122 3.41794C9.72524 3.50858 9.80819 3.63248 9.84856 3.77243C9.88893 3.91237 9.8847 4.06142 9.83647 4.19886C9.78824 4.33629 9.6984 4.45529 9.57943 4.53933C9.46047 4.62336 9.31828 4.66825 9.17263 4.66777ZM31.6288 4.66777C31.4833 4.66783 31.3414 4.6227 31.2227 4.53861C31.1041 4.45452 31.0144 4.33563 30.9663 4.19838C30.9181 4.06113 30.9138 3.91231 30.9539 3.77249C30.994 3.63268 31.0766 3.50878 31.1902 3.41794L34.6989 0.610923C34.7709 0.553326 34.8535 0.510469 34.9421 0.484799C35.0306 0.459129 35.1233 0.451149 35.2149 0.461315C35.3066 0.471481 35.3953 0.499593 35.476 0.544046C35.5568 0.588499 35.628 0.648424 35.6856 0.720397C35.7432 0.792371 35.7861 0.874984 35.8117 0.963521C35.8374 1.05206 35.8454 1.14478 35.8352 1.2364C35.8251 1.32802 35.7969 1.41674 35.7525 1.4975C35.708 1.57826 35.6481 1.64947 35.5761 1.70706L32.0674 4.51408C31.9429 4.61364 31.7882 4.66784 31.6288 4.66777ZM35.1375 8.87829H30.8217C31.0609 10.5402 30.892 12.2354 30.3296 13.8175C29.7672 15.3995 28.8282 16.8209 27.5937 17.959C26.8582 18.6704 26.2763 19.525 25.8841 20.4701C25.4918 21.4152 25.2974 22.4306 25.313 23.4537V27.8257C25.311 28.4464 25.1032 29.049 24.7223 29.5391C24.3414 30.0292 23.8088 30.3793 23.2077 30.5344V31.3344C23.2077 31.5206 23.1338 31.699 23.0022 31.8307C22.8706 31.9623 22.6921 32.0362 22.506 32.0362C22.3198 32.0362 22.1413 31.9623 22.0097 31.8307C21.8781 31.699 21.8042 31.5206 21.8042 31.3344V30.6327H18.9972V31.3344C18.9972 31.5206 18.9233 31.699 18.7917 31.8307C18.66 31.9623 18.4816 32.0362 18.2954 32.0362C18.1093 32.0362 17.9308 31.9623 17.7992 31.8307C17.6676 31.699 17.5937 31.5206 17.5937 31.3344V30.5344C16.9926 30.3793 16.46 30.0292 16.0791 29.5391C15.6982 29.049 15.4904 28.4464 15.4884 27.8257V23.573C15.5037 22.5222 15.3057 21.4792 14.9064 20.507C14.5072 19.5348 13.915 18.6537 13.1656 17.9169C12.0073 16.8244 11.1128 15.4826 10.5499 13.9933C9.98698 12.5039 9.77037 10.9059 9.91649 9.3204C9.93052 9.17303 9.95859 9.02566 9.97965 8.87829H5.66386C5.10602 8.87996 4.5715 9.1023 4.17705 9.49675C3.7826 9.8912 3.56026 10.4257 3.55859 10.9836V29.9309C3.56026 30.4888 3.7826 31.0233 4.17705 31.4177C4.5715 31.8122 5.10602 32.0345 5.66386 32.0362H12.6814C13.3432 32.0404 13.9649 32.352 14.3656 32.8783L19.8814 40.2327C19.9525 40.301 20.0365 40.3546 20.1284 40.3902C20.2204 40.4258 20.3185 40.4428 20.4171 40.4402C20.5157 40.4376 20.6128 40.4154 20.7027 40.375C20.7927 40.3345 20.8737 40.2766 20.941 40.2046L26.4358 32.8783C26.6334 32.6185 26.888 32.4074 27.18 32.2614C27.472 32.1154 27.7936 32.0384 28.12 32.0362H35.1375C35.6954 32.0345 36.2299 31.8122 36.6243 31.4177C37.0188 31.0233 37.2411 30.4888 37.2428 29.9309V10.9836C37.2411 10.4257 37.0188 9.8912 36.6243 9.49675C36.2299 9.1023 35.6954 8.87996 35.1375 8.87829ZM5.66386 10.9836H7.76912C7.95524 10.9836 8.13373 11.0575 8.26533 11.1891C8.39694 11.3207 8.47087 11.4992 8.47087 11.6853C8.47087 11.8714 8.39694 12.0499 8.26533 12.1815C8.13373 12.3131 7.95524 12.3871 7.76912 12.3871H5.66386C5.47774 12.3871 5.29925 12.3131 5.16764 12.1815C5.03604 12.0499 4.9621 11.8714 4.9621 11.6853C4.9621 11.4992 5.03604 11.3207 5.16764 11.1891C5.29925 11.0575 5.47774 10.9836 5.66386 10.9836ZM9.60772 22.0572L6.09894 24.8643C5.97663 24.9654 5.82254 25.02 5.66386 25.0186C5.55844 25.0182 5.45448 24.994 5.35971 24.9478C5.26494 24.9017 5.18181 24.8347 5.11649 24.752C5.05814 24.6806 5.0147 24.5983 4.98871 24.5098C4.96272 24.4214 4.95473 24.3286 4.9652 24.237C4.97566 24.1455 5.00438 24.0569 5.04965 23.9766C5.09492 23.8963 5.15583 23.8259 5.22877 23.7695L8.73754 20.9625C8.80821 20.8958 8.89196 20.8445 8.98348 20.8119C9.07501 20.7792 9.17232 20.7659 9.26925 20.7728C9.36617 20.7798 9.46061 20.8068 9.54656 20.8521C9.63252 20.8974 9.70813 20.9601 9.76859 21.0362C9.82906 21.1122 9.87307 21.2 9.89783 21.294C9.92259 21.388 9.92757 21.486 9.91245 21.582C9.89732 21.678 9.86243 21.7698 9.80997 21.8516C9.75752 21.9334 9.68864 22.0034 9.60772 22.0572ZM35.6849 24.752C35.6196 24.8347 35.5365 24.9017 35.4417 24.9478C35.3469 24.994 35.243 25.0182 35.1375 25.0186C34.9789 25.02 34.8248 24.9654 34.7025 24.8643L31.1937 22.0572C31.0658 21.9366 30.9879 21.7723 30.9754 21.5969C30.9629 21.4216 31.0166 21.2479 31.126 21.1103C31.2354 20.9726 31.3925 20.8811 31.5662 20.8537C31.7398 20.8264 31.9174 20.8652 32.0639 20.9625L35.5726 23.7695C35.6457 23.8258 35.7068 23.8961 35.7522 23.9764C35.7976 24.0567 35.8263 24.1453 35.8368 24.237C35.8473 24.3286 35.8392 24.4214 35.8131 24.5099C35.787 24.5984 35.7434 24.6807 35.6849 24.752ZM35.1375 12.3871H33.0323C32.8462 12.3871 32.6677 12.3131 32.5361 12.1815C32.4045 12.0499 32.3305 11.8714 32.3305 11.6853C32.3305 11.4992 32.4045 11.3207 32.5361 11.1891C32.6677 11.0575 32.8462 10.9836 33.0323 10.9836H35.1375C35.3237 10.9836 35.5021 11.0575 35.6338 11.1891C35.7654 11.3207 35.8393 11.4992 35.8393 11.6853C35.8393 11.8714 35.7654 12.0499 35.6338 12.1815C35.5021 12.3131 35.3237 12.3871 35.1375 12.3871ZM26.6954 3.67829C25.5382 2.56131 24.1062 1.77021 22.5446 1.38523C20.9831 1.00025 19.3474 1.03508 17.8037 1.48618C16.2599 1.93729 14.8628 2.78863 13.7543 3.95386C12.6457 5.11909 11.8649 6.55677 11.4912 8.1211C11.1179 9.68569 11.1651 11.3212 11.628 12.8616C12.0909 14.4021 12.9531 15.7927 14.127 16.8923C15.0164 17.7606 15.72 18.8004 16.1953 19.9488C16.6706 21.0972 16.9076 22.3303 16.8919 23.573V24.3169H23.9095V23.4537C23.8937 22.2387 24.1272 21.0333 24.5955 19.912C25.0638 18.7907 25.757 17.7774 26.6323 16.9344C27.539 16.0868 28.2631 15.0629 28.7601 13.9255C29.257 12.7881 29.5164 11.5612 29.5224 10.32C29.5283 9.07876 29.2806 7.84942 28.7945 6.70733C28.3084 5.56525 27.5941 4.5345 26.6954 3.67829ZM17.8603 4.61163C17.8323 4.62566 15.2779 5.72741 14.7726 8.30987C14.7461 8.4459 14.6799 8.57102 14.5823 8.66946C14.4848 8.76791 14.3603 8.83526 14.2245 8.86303C14.0887 8.8908 13.9477 8.87775 13.8194 8.82551C13.691 8.77328 13.581 8.6842 13.5032 8.56952C13.4515 8.49321 13.4155 8.40737 13.3973 8.31701C13.3791 8.22665 13.3791 8.13358 13.3972 8.04321C13.6402 7.00478 14.122 6.03729 14.8041 5.21749C15.4863 4.3977 16.3501 3.74815 17.327 3.3204C17.4426 3.2592 17.5731 3.23151 17.7036 3.24045C17.8341 3.24938 17.9595 3.29458 18.0657 3.37095C18.1719 3.44732 18.2547 3.55184 18.3047 3.67272C18.3547 3.7936 18.37 3.92605 18.3488 4.05513C18.3272 4.18414 18.27 4.30457 18.1837 4.40288C18.0975 4.50118 17.9855 4.57348 17.8603 4.61163ZM19.6989 22.2116C19.6989 22.3977 19.625 22.5762 19.4934 22.7078C19.3618 22.8394 19.1833 22.9134 18.9972 22.9134C18.8111 22.9134 18.6326 22.8394 18.501 22.7078C18.3694 22.5762 18.2954 22.3977 18.2954 22.2116V20.1064C18.2954 19.9202 18.3694 19.7418 18.501 19.6101C18.6326 19.4785 18.8111 19.4046 18.9972 19.4046C19.1833 19.4046 19.3618 19.4785 19.4934 19.6101C19.625 19.7418 19.6989 19.9202 19.6989 20.1064V22.2116ZM19.6989 16.5976C19.6989 16.7837 19.625 16.9622 19.4934 17.0938C19.3618 17.2254 19.1833 17.2993 18.9972 17.2993C18.8111 17.2993 18.6326 17.2254 18.501 17.0938C18.3694 16.9622 18.2954 16.7837 18.2954 16.5976V15.8958C18.2954 15.7097 18.3694 15.5312 18.501 15.3996C18.6326 15.268 18.8111 15.1941 18.9972 15.1941C19.1833 15.1941 19.3618 15.268 19.4934 15.3996C19.625 15.5312 19.6989 15.7097 19.6989 15.8958V16.5976ZM22.506 22.2116C22.506 22.3977 22.432 22.5762 22.3004 22.7078C22.1688 22.8394 21.9903 22.9134 21.8042 22.9134C21.6181 22.9134 21.4396 22.8394 21.308 22.7078C21.1764 22.5762 21.1025 22.3977 21.1025 22.2116V20.1064C21.1025 19.9202 21.1764 19.7418 21.308 19.6101C21.4396 19.4785 21.6181 19.4046 21.8042 19.4046C21.9903 19.4046 22.1688 19.4785 22.3004 19.6101C22.432 19.7418 22.506 19.9202 22.506 20.1064V22.2116ZM22.506 16.5976C22.506 16.7837 22.432 16.9622 22.3004 17.0938C22.1688 17.2254 21.9903 17.2993 21.8042 17.2993C21.6181 17.2993 21.4396 17.2254 21.308 17.0938C21.1764 16.9622 21.1025 16.7837 21.1025 16.5976V15.8958C21.1025 15.7097 21.1764 15.5312 21.308 15.3996C21.4396 15.268 21.6181 15.1941 21.8042 15.1941C21.9903 15.1941 22.1688 15.268 22.3004 15.3996C22.432 15.5312 22.506 15.7097 22.506 15.8958V16.5976Z" fill="#FDA700"/>
<path d="M16.8916 25.7207V27.826C16.8927 28.1979 17.0409 28.5542 17.3039 28.8172C17.5669 29.0801 17.9232 29.2284 18.2951 29.2295H22.5056C22.8775 29.2284 23.2339 29.0801 23.4968 28.8172C23.7598 28.5542 23.908 28.1979 23.9091 27.826V25.7207H16.8916Z" fill="#FDA700"/>
</g>
<defs>
<clipPath id="clip0_1_609">
<rect width="40" height="40" fill="white" transform="translate(0.400391 0.457031)"/>
</clipPath>
</defs>
</svg>
