<svg width="41" height="41" viewBox="0 0 41 41" fill="none" xmlns="http://www.w3.org/2000/svg">
<g clip-path="url(#clip0_1_654)">
<path d="M24.5859 0.994141H5.41927C2.88594 0.994141 0.835938 3.04414 0.835938 5.57747V31.4108C0.835938 33.9441 2.88594 35.9941 5.41927 35.9941H19.0026C17.6026 33.7775 16.6693 31.1608 16.6693 28.1608V24.0941C16.4193 24.2441 16.1359 24.3275 15.8359 24.3275H7.5026C6.58594 24.3275 5.83594 23.5775 5.83594 22.6608C5.83594 21.7441 6.58594 20.9941 7.5026 20.9941H15.8359C16.1526 20.9941 16.4359 21.0775 16.6859 21.2275C16.7526 19.8108 17.4193 18.5108 18.4693 17.6608H7.5026C6.58594 17.6608 5.83594 16.9108 5.83594 15.9941C5.83594 15.0775 6.58594 14.3275 7.5026 14.3275H22.5026C23.2026 14.3275 23.8026 14.7608 24.0526 15.3775L28.8026 13.7608C28.9193 13.7108 29.0359 13.6775 29.1693 13.6608V5.57747C29.1693 3.04414 27.1193 0.994141 24.5859 0.994141ZM14.1693 10.9941H7.5026C6.58594 10.9941 5.83594 10.2441 5.83594 9.32747C5.83594 8.41081 6.58594 7.66081 7.5026 7.66081H14.1693C15.0859 7.66081 15.8359 8.41081 15.8359 9.32747C15.8359 10.2441 15.0859 10.9941 14.1693 10.9941Z" fill="#FDA700"/>
<path d="M39.706 19.8916L30.956 16.9149C30.6074 16.7966 30.2295 16.7966 29.881 16.9149L21.131 19.8916C20.8015 20.0039 20.5154 20.2165 20.3128 20.4995C20.1102 20.7825 20.0011 21.1219 20.001 21.4699V28.1666C20.001 36.6116 29.366 40.6916 29.7643 40.8616C29.9716 40.9483 30.194 40.9928 30.4186 40.9925C30.6433 40.9922 30.8656 40.9472 31.0726 40.8599C31.471 40.6899 40.836 36.6116 40.836 28.1666V21.4699C40.8363 21.1217 40.7275 20.7822 40.5248 20.4991C40.3221 20.2159 40.0357 20.0035 39.706 19.8916ZM36.336 26.1599L31.336 32.8266C31.1811 33.034 30.9799 33.2023 30.7484 33.318C30.5168 33.4338 30.2615 33.4938 30.0026 33.4933C29.7837 33.4937 29.5669 33.4507 29.3646 33.3669C29.1624 33.2831 28.9788 33.1601 28.8243 33.0049L25.491 29.6716C25.3362 29.5169 25.2135 29.3332 25.1297 29.131C25.046 28.9288 25.0029 28.7121 25.0029 28.4933C25.0029 28.2744 25.046 28.0577 25.1297 27.8556C25.2135 27.6534 25.3362 27.4697 25.491 27.3149C25.6457 27.1602 25.8294 27.0375 26.0316 26.9537C26.2338 26.87 26.4505 26.8269 26.6693 26.8269C26.8881 26.8269 27.1048 26.87 27.307 26.9537C27.5092 27.0375 27.6929 27.1602 27.8476 27.3149L29.8226 29.2899L33.6693 24.1599C33.9345 23.8063 34.3294 23.5725 34.7669 23.51C34.9836 23.4791 35.2043 23.4911 35.4163 23.5454C35.6283 23.5997 35.8275 23.6953 36.0026 23.8266C36.1777 23.9579 36.3253 24.1225 36.4368 24.3108C36.5483 24.4991 36.6216 24.7076 36.6526 24.9242C36.6835 25.1409 36.6715 25.3616 36.6172 25.5736C36.5628 25.7856 36.4673 25.9848 36.336 26.1599Z" fill="#FDA700"/>
</g>
<defs>
<clipPath id="clip0_1_654">
<rect width="40" height="40" fill="white" transform="translate(0.835938 0.994141)"/>
</clipPath>
</defs>
</svg>
