<svg width="31" height="31" viewBox="0 0 31 31" fill="none" xmlns="http://www.w3.org/2000/svg">
<g clip-path="url(#clip0_1_519)">
<path d="M27.6211 4.89258H2.89453C1.43771 4.89258 0.257812 6.0798 0.257812 7.5293V23.3496C0.257812 24.8077 1.44639 25.9863 2.89453 25.9863H27.6211C29.0657 25.9863 30.2578 24.8127 30.2578 23.3496V7.5293C30.2578 6.08238 29.0826 4.89258 27.6211 4.89258ZM27.2518 6.65039L17.1223 16.7266C16.6242 17.2246 15.9621 17.4988 15.2578 17.4988C14.5535 17.4988 13.8914 17.2246 13.3917 16.7249L3.26379 6.65039H27.2518ZM2.01562 22.9918V7.88818L9.6116 15.4441L2.01562 22.9918ZM3.2649 24.2285L10.8579 16.6838L12.1504 17.9695C12.9804 18.7996 14.084 19.2567 15.2578 19.2567C16.4316 19.2567 17.5352 18.7996 18.3636 17.9712L19.6577 16.6838L27.2507 24.2285H3.2649ZM28.5 22.9918L20.904 15.4441L28.5 7.88818V22.9918Z" fill="white"/>
</g>
<defs>
<clipPath id="clip0_1_519">
<rect width="30" height="30" fill="white" transform="translate(0.257812 0.439453)"/>
</clipPath>
</defs>
</svg>
