<svg width="41" height="41" viewBox="0 0 41 41" fill="none" xmlns="http://www.w3.org/2000/svg">
<path d="M2.39909 34.8314H15.8924C13.0602 33.1474 10.9138 30.5172 9.83171 27.4049C8.74966 24.2926 8.80155 20.8981 9.97823 17.8203C11.1549 14.7425 13.3808 12.1792 16.2631 10.5825C19.1455 8.98588 22.4991 8.45848 25.7324 9.09338V6.16471H23.0658C22.5353 6.16471 22.0266 5.954 21.6515 5.57893C21.2765 5.20386 21.0658 4.69515 21.0658 4.16471V1.49805H2.39909C2.22228 1.49805 2.05271 1.56828 1.92768 1.69331C1.80266 1.81833 1.73242 1.9879 1.73242 2.16471V34.1647C1.73242 34.3415 1.80266 34.5111 1.92768 34.6361C2.05271 34.7611 2.22228 34.8314 2.39909 34.8314ZM5.06576 3.49805H18.3991C18.5759 3.49805 18.7455 3.56829 18.8705 3.69331C18.9955 3.81833 19.0658 3.9879 19.0658 4.16471C19.0658 4.34152 18.9955 4.51109 18.8705 4.63612C18.7455 4.76114 18.5759 4.83138 18.3991 4.83138H5.06576C4.88894 4.83138 4.71938 4.76114 4.59435 4.63612C4.46933 4.51109 4.39909 4.34152 4.39909 4.16471C4.39909 3.9879 4.46933 3.81833 4.59435 3.69331C4.71938 3.56829 4.88894 3.49805 5.06576 3.49805ZM5.06576 6.83138H18.3991C18.5759 6.83138 18.7455 6.90162 18.8705 7.02664C18.9955 7.15167 19.0658 7.32124 19.0658 7.49805C19.0658 7.67486 18.9955 7.84443 18.8705 7.96945C18.7455 8.09448 18.5759 8.16471 18.3991 8.16471H5.06576C4.88894 8.16471 4.71938 8.09448 4.59435 7.96945C4.46933 7.84443 4.39909 7.67486 4.39909 7.49805C4.39909 7.32124 4.46933 7.15167 4.59435 7.02664C4.71938 6.90162 4.88894 6.83138 5.06576 6.83138ZM5.06576 10.1647H12.3991C12.5759 10.1647 12.7455 10.235 12.8705 10.36C12.9955 10.485 13.0658 10.6546 13.0658 10.8314C13.0658 11.0082 12.9955 11.1778 12.8705 11.3028C12.7455 11.4278 12.5759 11.498 12.3991 11.498H5.06576C4.88894 11.498 4.71938 11.4278 4.59435 11.3028C4.46933 11.1778 4.39909 11.0082 4.39909 10.8314C4.39909 10.6546 4.46933 10.485 4.59435 10.36C4.71938 10.235 4.88894 10.1647 5.06576 10.1647ZM5.06576 13.498H9.06576C9.24257 13.498 9.41214 13.5683 9.53716 13.6933C9.66218 13.8183 9.73242 13.9879 9.73242 14.1647C9.73242 14.3415 9.66218 14.5111 9.53716 14.6361C9.41214 14.7611 9.24257 14.8314 9.06576 14.8314H5.06576C4.88894 14.8314 4.71938 14.7611 4.59435 14.6361C4.46933 14.5111 4.39909 14.3415 4.39909 14.1647C4.39909 13.9879 4.46933 13.8183 4.59435 13.6933C4.71938 13.5683 4.88894 13.498 5.06576 13.498ZM5.06576 16.8314H7.73242C7.90923 16.8314 8.0788 16.9016 8.20383 17.0266C8.32885 17.1517 8.39909 17.3212 8.39909 17.498C8.39909 17.6749 8.32885 17.8444 8.20383 17.9695C8.0788 18.0945 7.90923 18.1647 7.73242 18.1647H5.06576C4.88894 18.1647 4.71938 18.0945 4.59435 17.9695C4.46933 17.8444 4.39909 17.6749 4.39909 17.498C4.39909 17.3212 4.46933 17.1517 4.59435 17.0266C4.71938 16.9016 4.88894 16.8314 5.06576 16.8314ZM5.06576 20.1647H7.06576C7.24257 20.1647 7.41214 20.235 7.53716 20.36C7.66218 20.485 7.73242 20.6546 7.73242 20.8314C7.73242 21.0082 7.66218 21.1778 7.53716 21.3028C7.41214 21.4278 7.24257 21.498 7.06576 21.498H5.06576C4.88894 21.498 4.71938 21.4278 4.59435 21.3028C4.46933 21.1778 4.39909 21.0082 4.39909 20.8314C4.39909 20.6546 4.46933 20.485 4.59435 20.36C4.71938 20.235 4.88894 20.1647 5.06576 20.1647ZM5.06576 23.498H7.06576C7.24257 23.498 7.41214 23.5683 7.53716 23.6933C7.66218 23.8183 7.73242 23.9879 7.73242 24.1647C7.73242 24.3415 7.66218 24.5111 7.53716 24.6361C7.41214 24.7611 7.24257 24.8314 7.06576 24.8314H5.06576C4.88894 24.8314 4.71938 24.7611 4.59435 24.6361C4.46933 24.5111 4.39909 24.3415 4.39909 24.1647C4.39909 23.9879 4.46933 23.8183 4.59435 23.6933C4.71938 23.5683 4.88894 23.498 5.06576 23.498ZM5.06576 26.8314H7.73242C7.90923 26.8314 8.0788 26.9016 8.20383 27.0266C8.32885 27.1517 8.39909 27.3212 8.39909 27.498C8.39909 27.6749 8.32885 27.8444 8.20383 27.9695C8.0788 28.0945 7.90923 28.1647 7.73242 28.1647H5.06576C4.88894 28.1647 4.71938 28.0945 4.59435 27.9695C4.46933 27.8444 4.39909 27.6749 4.39909 27.498C4.39909 27.3212 4.46933 27.1517 4.59435 27.0266C4.71938 26.9016 4.88894 26.8314 5.06576 26.8314ZM5.06576 30.1647H9.06576C9.24257 30.1647 9.41214 30.235 9.53716 30.36C9.66218 30.485 9.73242 30.6546 9.73242 30.8314C9.73242 31.0082 9.66218 31.1778 9.53716 31.3028C9.41214 31.4278 9.24257 31.4981 9.06576 31.4981H5.06576C4.88894 31.4981 4.71938 31.4278 4.59435 31.3028C4.46933 31.1778 4.39909 31.0082 4.39909 30.8314C4.39909 30.6546 4.46933 30.485 4.59435 30.36C4.71938 30.235 4.88894 30.1647 5.06576 30.1647Z" fill="#FDA700"/>
<path d="M22.3994 4.16412C22.3994 4.34093 22.4697 4.5105 22.5947 4.63552C22.7197 4.76055 22.8893 4.83079 23.0661 4.83079H24.7921L22.3994 2.43945V4.16412ZM23.0661 10.1641C20.5609 10.1641 18.1119 10.907 16.0289 12.2988C13.9458 13.6907 12.3223 15.6689 11.3636 17.9835C10.4049 20.298 10.1541 22.8448 10.6428 25.3019C11.1316 27.759 12.3379 30.016 14.1094 31.7875C15.8809 33.5589 18.1378 34.7653 20.5949 35.2541C23.052 35.7428 25.5989 35.492 27.9134 34.5333C30.2279 33.5745 32.2062 31.951 33.598 29.868C34.9899 27.785 35.7328 25.336 35.7328 22.8308C35.729 19.4725 34.3933 16.2529 32.0187 13.8782C29.644 11.5035 26.4244 10.1678 23.0661 10.1641ZM23.0661 34.1641C20.0603 34.1641 17.1776 32.9701 15.0522 30.8447C12.9268 28.7193 11.7328 25.8366 11.7328 22.8308C11.7328 19.825 12.9268 16.9423 15.0522 14.8169C17.1776 12.6915 20.0603 11.4975 23.0661 11.4975C23.2429 11.4975 23.4125 11.5677 23.5375 11.6927C23.6625 11.8177 23.7328 11.9873 23.7328 12.1641C23.7328 12.3409 23.6625 12.5105 23.5375 12.6355C23.4125 12.7605 23.2429 12.8308 23.0661 12.8308C20.5525 12.832 18.1317 13.7802 16.286 15.4865C14.4403 17.1927 13.3052 19.5317 13.1069 22.0375C12.9085 24.5432 13.6615 27.0316 15.2159 29.007C16.7702 30.9823 19.0117 32.2996 21.4937 32.6962C23.9758 33.0929 26.5162 32.5398 28.6087 31.1472C30.7012 29.7546 32.1923 27.6248 32.7847 25.1821C33.3772 22.7393 33.0276 20.163 31.8055 17.9666C30.5835 15.7701 28.5787 14.1146 26.1908 13.3301C26.1076 13.3027 26.0306 13.2592 25.9643 13.2021C25.8979 13.1449 25.8435 13.0753 25.804 12.9971C25.7646 12.9189 25.741 12.8337 25.7344 12.7464C25.7279 12.659 25.7387 12.5713 25.7661 12.4881C25.7935 12.4049 25.837 12.328 25.8942 12.2616C25.9513 12.1953 26.0209 12.1408 26.0991 12.1014C26.1773 12.062 26.2625 12.0383 26.3498 12.0318C26.4372 12.0253 26.5249 12.0361 26.6081 12.0635C29.1693 12.9047 31.3467 14.6314 32.7495 16.9335C34.1522 19.2357 34.6884 21.9624 34.2618 24.6243C33.8352 27.2861 32.4737 29.7087 30.4218 31.4572C28.3699 33.2056 25.7619 34.1654 23.0661 34.1641ZM26.5328 18.4308C26.5853 18.3607 26.6511 18.3017 26.7264 18.2571C26.8018 18.2125 26.8851 18.1832 26.9718 18.1708C27.0585 18.1584 27.1467 18.1632 27.2315 18.185C27.3163 18.2067 27.396 18.2449 27.4661 18.2975C27.5361 18.35 27.5951 18.4158 27.6397 18.4911C27.6843 18.5665 27.7137 18.6498 27.7261 18.7365C27.7384 18.8232 27.7336 18.9114 27.7119 18.9962C27.6902 19.081 27.6519 19.1607 27.5994 19.2308L21.5994 27.2308C21.5423 27.3075 21.4693 27.371 21.3855 27.417C21.3016 27.463 21.2088 27.4905 21.1134 27.4975H21.0661C20.8893 27.4974 20.7197 27.4272 20.5948 27.3021L18.5948 25.3021C18.4733 25.1764 18.4061 25.008 18.4076 24.8332C18.4092 24.6584 18.4793 24.4912 18.6029 24.3676C18.7265 24.244 18.8937 24.1739 19.0685 24.1723C19.2433 24.1708 19.4117 24.238 19.5374 24.3595L20.9941 25.8161L26.5328 18.4308ZM33.5848 32.0395C33.1768 32.5042 32.739 32.9418 32.2741 33.3495L37.6361 38.7108C37.6732 38.7487 37.7175 38.7788 37.7664 38.7994C37.8152 38.82 37.8677 38.8307 37.9208 38.8308C37.9719 38.8307 38.0224 38.8204 38.0695 38.8005C38.1165 38.7805 38.1591 38.7514 38.1948 38.7148L38.9461 37.9641C38.9837 37.9282 39.0138 37.8851 39.0344 37.8373C39.055 37.7896 39.0658 37.7381 39.0661 37.6861C39.0661 37.6329 39.0555 37.5801 39.0349 37.531C39.0143 37.4819 38.9841 37.4374 38.9461 37.4001L33.5848 32.0395Z" fill="#FDA700"/>
</svg>
