<svg width="41" height="41" viewBox="0 0 41 41" fill="none" xmlns="http://www.w3.org/2000/svg">
<g clip-path="url(#clip0_1_692)">
<path d="M39.273 22.1751L36.2072 19.1031C35.7891 18.6801 35.1072 18.6761 34.6843 19.0941L34.6753 19.1031L24.4014 29.377L20.6438 25.6133C20.2258 25.1902 19.5439 25.1863 19.1209 25.6043L19.1119 25.6133L16.04 28.6852C15.6179 29.1087 15.6179 29.7938 16.04 30.2172L23.6352 37.8266C24.0536 38.2498 24.7359 38.2538 25.1591 37.8354L25.1679 37.8266L39.2733 23.707C39.6949 23.2832 39.6944 22.5982 39.2719 22.1751H39.273ZM18.9715 20.7863H25.167C28.0966 20.7863 30.7278 18.6027 30.898 15.6771C30.9447 14.8821 30.8154 14.0865 30.5193 13.3472C30.2232 12.6079 29.7676 11.9431 29.1851 11.4001C29.6831 10.4668 29.8967 9.40794 29.7994 8.35453C29.5438 5.49891 26.9262 3.42578 24.0576 3.42578H18.9715C18.3723 3.42578 17.8865 3.91156 17.8865 4.51078V19.7012C17.8865 20.3005 18.3722 20.7863 18.9715 20.7863ZM21.684 7.22336H24.3966C25.2954 7.22336 26.0242 7.95203 26.0242 8.85094C26.0242 9.74984 25.2955 10.4785 24.3966 10.4785H21.684V7.22336ZM21.684 13.7335H25.4816C26.3804 13.7335 27.1092 14.4622 27.1092 15.3611C27.1092 16.26 26.3805 16.9887 25.4816 16.9887H21.684V13.7335ZM11.0454 4.93461C10.9052 4.49651 10.6295 4.11428 10.258 3.84308C9.88646 3.57188 9.43838 3.42575 8.97842 3.42578H7.26404C6.80406 3.42575 6.35597 3.57188 5.98444 3.84307C5.61292 4.11427 5.33717 4.49651 5.19701 4.93461L0.565994 19.4116C0.406073 19.9891 0.744588 20.587 1.32209 20.7469C1.41615 20.773 1.51334 20.7862 1.61099 20.7863H3.30162C3.53893 20.7863 3.76969 20.7085 3.95857 20.5648C4.14744 20.4211 4.284 20.2195 4.34732 19.9908L5.15701 17.5312H11.0854L11.8951 19.9908C11.9584 20.2195 12.0949 20.4211 12.2838 20.5648C12.4727 20.7085 12.7035 20.7863 12.9408 20.7863H14.6314C15.2306 20.7863 15.7164 20.3005 15.7165 19.7013C15.7165 19.6034 15.7033 19.5059 15.6771 19.4116L11.0454 4.93461ZM6.58654 13.191L8.12115 8.53219L9.65576 13.191H6.58654Z" fill="#FDA700"/>
</g>
<defs>
<clipPath id="clip0_1_692">
<rect width="40" height="40" fill="white" transform="translate(0.0576172 0.787109)"/>
</clipPath>
</defs>
</svg>
