<svg width="41" height="41" viewBox="0 0 41 41" fill="none" xmlns="http://www.w3.org/2000/svg">
<path d="M13.4863 25.4219C13.138 25.4219 12.9034 25.4559 12.7822 25.49V27.7196C12.9261 27.7536 13.1059 27.7631 13.3538 27.7631C14.2604 27.7631 14.8187 27.3051 14.8187 26.5329C14.8187 25.8383 14.338 25.4219 13.4863 25.4219ZM20.086 25.4446C19.7075 25.4446 19.4614 25.4787 19.3157 25.5127V30.4526C19.4614 30.4866 19.6961 30.4866 19.9081 30.4866C21.4544 30.498 22.4613 29.6463 22.4613 27.8445C22.4726 26.2736 21.5547 25.4446 20.086 25.4446Z" fill="#FDA700"/>
<path d="M24.3377 1.42383H9.19645C8.19252 1.42383 7.22971 1.82264 6.51983 2.53252C5.80994 3.24241 5.41113 4.20522 5.41113 5.20915V35.4917C5.41113 36.4956 5.80994 37.4584 6.51983 38.1683C7.22971 38.8782 8.19252 39.277 9.19645 39.277H31.9084C32.9123 39.277 33.8751 38.8782 34.585 38.1683C35.2949 37.4584 35.6937 36.4956 35.6937 35.4917V12.7798L24.3377 1.42383ZM15.817 28.2807C15.2321 28.8295 14.3691 29.0756 13.3641 29.0756C13.1692 29.0777 12.9744 29.0663 12.7811 29.0415V31.7404H11.0891V24.2909C11.8519 24.1774 12.6241 24.1244 13.3963 24.1357C14.4505 24.1357 15.2 24.3364 15.7053 24.7395C16.186 25.1218 16.5116 25.7483 16.5116 26.4864C16.5097 27.2283 16.2636 27.8548 15.817 28.2807ZM23.0223 30.8452C22.2274 31.5058 21.018 31.8199 19.5398 31.8199C18.6541 31.8199 18.0276 31.7632 17.6018 31.7064V24.2928C18.3656 24.1813 19.137 24.1288 19.9089 24.1357C21.3416 24.1357 22.2728 24.3931 22.9996 24.942C23.7851 25.525 24.2772 26.4543 24.2772 27.7886C24.2772 29.2327 23.7491 30.2301 23.0223 30.8452ZM30.0157 25.5931H27.1162V27.3173H29.8264V28.7065H27.1162V31.7423H25.4014V24.1925H30.0157V25.5931ZM24.3377 14.6724H22.4451V5.20915L31.9084 14.6724H24.3377Z" fill="#FDA700"/>
</svg>
