<svg width="31" height="31" viewBox="0 0 31 31" fill="none" xmlns="http://www.w3.org/2000/svg">
<g clip-path="url(#clip0_1_522)">
<path d="M6.37086 20.0416C9.32983 23.5787 12.8918 26.3636 16.9573 28.3342C18.5051 29.0677 20.5752 29.938 22.8814 30.0872C23.0244 30.0934 23.1612 30.0996 23.3041 30.0996C24.852 30.0996 26.0953 29.565 27.1085 28.4647C27.1147 28.4585 27.1272 28.4461 27.1334 28.4336C27.4939 27.9985 27.9042 27.6069 28.3331 27.1904C28.6253 26.9106 28.9237 26.6185 29.2096 26.3201C30.5337 24.9401 30.5337 23.1871 29.1972 21.8505L25.4612 18.1145C24.8271 17.4556 24.0687 17.1075 23.2731 17.1075C22.4774 17.1075 21.7128 17.4556 21.06 18.1083L18.8346 20.3338C18.6295 20.2156 18.4181 20.11 18.2192 20.0105C17.9705 19.8862 17.7405 19.7681 17.5354 19.6375C15.5089 18.3507 13.6688 16.6723 11.9096 14.5153C11.0207 13.3901 10.4239 12.4452 10.0074 11.4817C10.5917 10.9533 11.1388 10.4001 11.6672 9.85924C11.8537 9.66654 12.0464 9.47383 12.2391 9.28113C12.9104 8.60976 13.271 7.83272 13.271 7.04325C13.271 6.25377 12.9167 5.47673 12.2391 4.80537L10.3866 2.9529C10.169 2.73533 9.9639 2.52398 9.75254 2.30641C9.34226 1.8837 8.91334 1.44855 8.49063 1.05692C7.85035 0.429075 7.09817 0.0996094 6.30248 0.0996094C5.51301 0.0996094 4.75461 0.429075 4.08947 1.06314L1.76456 3.38805C0.91914 4.23347 0.440482 5.25916 0.341021 6.44648C0.222911 7.93218 0.496429 9.51113 1.20509 11.4195C2.29295 14.3723 3.93406 17.1137 6.37086 20.0416ZM1.85781 6.57702C1.9324 5.75025 2.24943 5.06024 2.8462 4.46347L5.15868 2.151C5.51922 1.80288 5.91707 1.62261 6.30248 1.62261C6.68168 1.62261 7.06709 1.80288 7.42142 2.16343C7.83791 2.54884 8.22954 2.9529 8.65225 3.38183C8.86361 3.5994 9.08118 3.81697 9.29875 4.04076L11.1512 5.89323C11.5366 6.27864 11.7356 6.67027 11.7356 7.05568C11.7356 7.44109 11.5366 7.83272 11.1512 8.21813C10.9585 8.41084 10.7658 8.60976 10.5731 8.80247C9.99498 9.3868 9.45416 9.94006 8.85739 10.4684L8.82631 10.4995C8.31035 11.0155 8.39117 11.5066 8.51549 11.8796C8.52171 11.8982 8.52793 11.9106 8.53414 11.9293C9.0128 13.0793 9.67795 14.1734 10.7161 15.4788C12.581 17.7788 14.5453 19.5629 16.7086 20.9367C16.9759 21.1108 17.2619 21.2476 17.5292 21.3843C17.7778 21.5086 18.0078 21.6268 18.213 21.7573C18.2378 21.7697 18.2565 21.7822 18.2813 21.7946C18.4865 21.9003 18.6854 21.95 18.8843 21.95C19.3816 21.95 19.7049 21.633 19.8106 21.5273L22.1355 19.2024C22.496 18.8418 22.8876 18.6491 23.2731 18.6491C23.7455 18.6491 24.1309 18.9413 24.3733 19.2024L28.1218 22.9446C28.8678 23.6906 28.8615 24.4987 28.1031 25.2882C27.8421 25.5679 27.5685 25.8352 27.2764 26.1149C26.8412 26.5377 26.3874 26.9728 25.9772 27.4639C25.2623 28.2347 24.4106 28.5953 23.3104 28.5953C23.2047 28.5953 23.0928 28.589 22.9871 28.5828C20.9481 28.4523 19.0522 27.6566 17.6286 26.979C13.7621 25.1079 10.368 22.4535 7.55196 19.0843C5.23327 16.2931 3.67297 13.6947 2.64106 10.9098C2.00078 9.20031 1.75834 7.82651 1.85781 6.57702Z" fill="white"/>
</g>
<defs>
<clipPath id="clip0_1_522">
<rect width="30" height="30" fill="white" transform="translate(0.257812 0.0996094)"/>
</clipPath>
</defs>
</svg>
