<svg width="41" height="41" viewBox="0 0 41 41" fill="none" xmlns="http://www.w3.org/2000/svg">
<path d="M28.5371 37.709C28.5371 38.3984 29.0977 38.959 29.7871 38.959C30.4765 38.959 31.0371 38.3984 31.0371 37.709V29.584H28.5371V37.709ZM27.2871 24.2546C22.9815 23.1402 19.7871 19.2334 19.7871 14.584C19.7871 10.3965 22.3771 6.80711 26.0371 5.32023V2.70898H18.5371V6.45898C18.5371 7.14836 17.9765 7.70898 17.2871 7.70898H11.0371C10.3477 7.70898 9.78711 7.14836 9.78711 6.45898V2.70898H2.28711V25.209H4.85023C4.99527 24.5037 5.37898 23.87 5.93671 23.4146C6.49444 22.9592 7.19209 22.71 7.91211 22.709H22.9121C23.6321 22.7102 24.3297 22.9594 24.8874 23.4148C25.4451 23.8701 25.8288 24.5038 25.974 25.209H27.2871V24.2546ZM3.53711 15.209H6.03711V16.459H3.53711V15.209ZM8.53711 21.459H3.53711V20.209H8.53711V21.459ZM11.0371 21.459H9.78711V20.209H11.0371V21.459ZM13.5371 21.459H12.2871V20.209H13.5371V21.459ZM13.5371 18.959H3.53711V17.709H13.5371V18.959ZM13.5371 16.459H7.28711V15.209H13.5371V16.459Z" fill="#FDA700"/>
<path d="M22.9121 23.959H7.91211C6.87836 23.959 6.03711 24.8002 6.03711 25.834V35.834C6.03711 36.8677 6.87836 37.709 7.91211 37.709H22.9121C23.9459 37.709 24.7871 36.8677 24.7871 35.834V25.834C24.7871 24.8002 23.9459 23.959 22.9121 23.959ZM8.53711 28.959H9.78711V30.209H8.53711V28.959ZM19.7871 35.209H8.53711V33.959H19.7871V35.209ZM22.2871 35.209H21.0371V33.959H22.2871V35.209ZM22.2871 32.709H8.53711V31.459H22.2871V32.709ZM22.2871 30.209H11.0371V28.959H22.2871V30.209ZM22.2871 27.709H8.53711V26.459H22.2871V27.709ZM29.7871 5.83398C24.9621 5.83398 21.0371 9.75898 21.0371 14.584C21.0371 19.409 24.9621 23.334 29.7871 23.334C34.6121 23.334 38.5371 19.409 38.5371 14.584C38.5371 9.75898 34.6121 5.83398 29.7871 5.83398ZM29.7871 21.459C25.9902 21.459 22.9121 18.3809 22.9121 14.584C22.9121 10.7871 25.9902 7.70898 29.7871 7.70898C33.584 7.70898 36.6621 10.7871 36.6621 14.584C36.6621 18.3809 33.584 21.459 29.7871 21.459ZM12.2871 3.95898H13.5371V6.45898H14.7871V3.95898H16.0371V6.45898H17.2871V2.70898H11.0371V6.45898H12.2871V3.95898ZM31.6621 27.084H27.9121C27.7512 27.0912 27.5992 27.1602 27.4879 27.2766C27.3766 27.393 27.3144 27.5479 27.3144 27.709C27.3144 27.8701 27.3766 28.0249 27.4879 28.1414C27.5992 28.2578 27.7512 28.3268 27.9121 28.334H31.6621C31.823 28.3268 31.975 28.2578 32.0863 28.1414C32.1976 28.0249 32.2598 27.8701 32.2598 27.709C32.2598 27.5479 32.1976 27.393 32.0863 27.2766C31.975 27.1602 31.823 27.0912 31.6621 27.084ZM29.7871 24.584C29.3627 24.584 28.9477 24.549 28.5371 24.4971V25.834H31.0371V24.4971C30.6265 24.549 30.2115 24.584 29.7871 24.584Z" fill="#FDA700"/>
</svg>
