<svg width="41" height="41" viewBox="0 0 41 41" fill="none" xmlns="http://www.w3.org/2000/svg">
<g clip-path="url(#clip0_1_645)">
<path d="M9.12534 22.0852H2.0938C1.43744 22.0852 0.921875 22.6007 0.921875 23.2571V37.3202C0.921875 37.9765 1.43744 38.4921 2.0938 38.4921H9.12534C9.78169 38.4921 10.2973 37.9765 10.2973 37.3202V23.2571C10.2973 22.6007 9.78169 22.0852 9.12534 22.0852ZM5.60957 29.1167C4.95321 29.1167 4.43764 28.6011 4.43764 27.9448C4.43764 27.2884 4.95321 26.7729 5.60957 26.7729C6.26592 26.7729 6.78149 27.2884 6.78149 27.9448C6.78149 28.6011 6.26592 29.1167 5.60957 29.1167ZM29.8424 12.9489C29.7536 12.8852 29.6846 12.7976 29.6435 12.6964C29.6024 12.5951 29.5908 12.4842 29.6101 12.3766L30.2464 8.66173L27.5466 6.0306C27.3887 5.87724 27.3303 5.64153 27.399 5.43089C27.4326 5.32672 27.4949 5.23413 27.5786 5.16369C27.6624 5.09325 27.7644 5.04782 27.8727 5.03259L31.6014 4.49015L33.27 1.11056C33.3696 0.90805 33.6066 0.835938 33.7954 0.835938C33.9842 0.835938 34.2211 0.90805 34.3196 1.10946L35.9893 4.49015L39.718 5.03259C39.9411 5.06463 40.122 5.21799 40.1918 5.43199C40.2252 5.53562 40.229 5.64651 40.2029 5.75223C40.1769 5.85794 40.1219 5.95431 40.0441 6.03053L37.3443 8.66165L37.9807 12.3766C38 12.4842 37.9884 12.595 37.9473 12.6963C37.9061 12.7976 37.8372 12.8851 37.7483 12.9488C37.5717 13.0767 37.3327 13.0996 37.1338 12.9946L33.7954 11.2413L30.4593 12.9935C30.261 13.098 30.0246 13.0799 29.8424 12.9489ZM16.9524 12.95C16.7692 12.8173 16.68 12.5975 16.7189 12.3766L17.3553 8.66173L14.6555 6.0306C14.4976 5.87724 14.4391 5.64153 14.5078 5.43089C14.5414 5.32672 14.6037 5.23413 14.6875 5.16369C14.7713 5.09325 14.8732 5.04782 14.9816 5.03259L18.7103 4.49015L20.3788 1.11056C20.4785 0.90805 20.7154 0.835938 20.9043 0.835938C21.0931 0.835938 21.33 0.90805 21.4284 1.10946L23.0982 4.49015L26.8268 5.03259C27.05 5.06463 27.2308 5.21799 27.3006 5.43199C27.334 5.53562 27.3379 5.64651 27.3118 5.75223C27.2857 5.85794 27.2307 5.95431 27.1529 6.03053L24.4532 8.66165L25.0895 12.3766C25.1088 12.4842 25.0972 12.595 25.0561 12.6963C25.015 12.7976 24.946 12.8851 24.8572 12.9488C24.6805 13.0767 24.4415 13.0996 24.2426 12.9946L20.9043 11.2413L17.5682 12.9935C17.4717 13.0443 17.3629 13.0671 17.2541 13.0594C17.1453 13.0517 17.0408 13.0139 16.9524 12.95ZM4.06013 12.9489C3.97129 12.8852 3.90231 12.7976 3.86119 12.6964C3.82006 12.5951 3.80848 12.4842 3.82778 12.3766L4.46413 8.66173L1.76433 6.0306C1.60643 5.87724 1.54799 5.64153 1.61667 5.43089C1.65029 5.32672 1.71256 5.23413 1.79634 5.16369C1.88013 5.09325 1.98204 5.04782 2.09044 5.03259L5.81911 4.49015L7.48777 1.11064C7.5873 0.90805 7.82427 0.835938 8.0131 0.835938C8.20194 0.835938 8.43882 0.90805 8.53727 1.10946L10.207 4.49015L13.9357 5.03259C14.1588 5.06463 14.3397 5.21799 14.4095 5.43199C14.4428 5.53562 14.4467 5.64651 14.4206 5.75223C14.3946 5.85794 14.3396 5.95431 14.2618 6.03053L11.562 8.66165L12.1984 12.3766C12.2177 12.4842 12.2061 12.595 12.165 12.6963C12.1238 12.7976 12.0548 12.8851 11.966 12.9488C11.7894 13.0767 11.5504 13.0996 11.3514 12.9946L8.0131 11.2413L4.67703 12.9935C4.47866 13.098 4.24232 13.0799 4.06013 12.9489ZM35.8217 31.3199C35.9858 31.7183 36.0796 32.1637 36.0796 32.6325C36.0796 34.2497 34.978 35.6092 33.4779 36.0076C33.642 36.406 33.7357 36.8514 33.7357 37.3202C33.7357 39.2656 32.1654 40.8359 30.22 40.8359H24.1493C21.7352 40.8359 19.3914 39.8516 17.6805 38.1404C16.3913 36.8748 14.6334 36.1482 12.8521 36.1482H12.6411V24.429H13.8365C15.9693 24.3821 18.1023 23.7961 19.9773 22.7415C24.3603 20.2336 24.3603 18.9443 24.3603 16.4131C24.3603 16.1084 24.4775 15.71 24.712 15.499C24.9229 15.2647 25.2276 15.0537 25.5323 15.0537C28.0167 15.0537 30.0324 16.2256 30.9231 18.2178C31.7435 20.0461 31.4388 22.2728 30.1731 24.4291H34.9077C36.8532 24.4291 38.4235 25.9994 38.4235 27.9449C38.4234 29.562 37.3219 30.9215 35.8217 31.3199Z" fill="#FDA700"/>
</g>
<defs>
<clipPath id="clip0_1_645">
<rect width="40" height="40" fill="white" transform="translate(0.571289 0.835938)"/>
</clipPath>
</defs>
</svg>
