<svg width="41" height="41" viewBox="0 0 41 41" fill="none" xmlns="http://www.w3.org/2000/svg">
<g clip-path="url(#clip0_1_671)">
<path d="M16.4654 21.2262H18.8093V23.5702H16.4654V21.2262ZM2.43207 18.8741H22.3514C22.7686 12.5053 28.9953 8.08922 35.2169 9.91836V8.33445C35.2169 7.68719 34.6922 7.1625 34.045 7.1625H23.4991V3.64656C23.4991 2.9993 22.9744 2.47461 22.3271 2.47461H12.9475C12.3002 2.47461 11.7755 2.9993 11.7755 3.64656V7.1625H1.22957C0.582305 7.1625 0.0576172 7.68719 0.0576172 8.33445V16.8537C0.242617 17.9976 1.23676 18.8741 2.43207 18.8741ZM14.1194 4.81852H21.1552V7.1625H14.1194V4.81852Z" fill="#FDA700"/>
<path d="M27.2866 28.2097C24.8063 26.7522 22.9685 24.2362 22.4668 21.2176H21.1533V24.7417C21.1533 25.389 20.6286 25.9137 19.9814 25.9137H15.2935C14.6462 25.9137 14.1215 25.389 14.1215 24.7417V21.2176H2.43207C1.59804 21.2182 0.77874 20.9978 0.0576172 20.5788L0.0576172 35.9537C0.0576172 36.6009 0.582305 37.1256 1.22957 37.1256H27.3314C27.2504 36.5087 27.3029 36.8926 27.2866 28.2097ZM37.8071 14.104C34.8064 11.1033 29.924 11.1033 26.9233 14.104C22.9733 18.054 24.438 24.7712 29.6306 26.737V29.4335H35.0998V26.737C40.2907 24.7719 41.7574 18.0544 37.8071 14.104ZM32.3652 24.8944C32.3653 24.8944 32.3651 24.8944 32.3652 24.8944C29.4029 24.8944 27.0167 22.5092 27.0167 19.546C27.0167 16.5836 29.402 14.1976 32.3651 14.1976C35.3275 14.1976 37.7136 16.5829 37.7136 19.546C37.7136 22.5082 35.3283 24.8944 32.3652 24.8944ZM29.6305 36.4615C29.6305 37.9694 30.8573 39.1962 32.3651 39.1962C33.873 39.1962 35.0997 37.9694 35.0997 36.4615V31.7776H29.6305V36.4615Z" fill="#FDA700"/>
</g>
<defs>
<clipPath id="clip0_1_671">
<rect width="40" height="40" fill="white" transform="translate(0.0576172 0.835938)"/>
</clipPath>
</defs>
</svg>
