<svg width="41" height="41" viewBox="0 0 41 41" fill="none" xmlns="http://www.w3.org/2000/svg">
<g clip-path="url(#clip0_1_685)">
<path d="M39.6353 33.8248L37.1466 31.3362L31.3401 37.1427L33.8287 39.6314C35.4322 41.2348 38.0319 41.2348 39.6353 39.6314C41.2387 38.028 41.2387 35.4283 39.6353 33.8248ZM38.3059 9.24031L34.9576 0.84L32.3349 3.46266L35.6833 11.863L38.3059 9.24031ZM33.8793 13.667L30.5309 5.26664L25.2418 10.5558L31.1161 16.4302L33.8793 13.667ZM27.3503 15.9788L7.81813 35.5109L6.16086 33.8537L25.693 14.3216L22.997 11.6255L2.29781 32.3248C0.35125 34.2714 0.35125 37.4274 2.29781 39.374C4.24438 41.3205 7.40047 41.3205 9.34703 39.374L30.0463 18.6748L27.3503 15.9788ZM13.8937 17.4144L17.4183 13.8898L10.2369 6.70836L0.837891 0.833984L6.71227 10.233L13.8937 17.4144ZM32.5233 26.7128L31.3823 27.8537L27.7821 24.2536L24.2575 27.7782L27.8577 31.3784L26.7167 32.5194L29.6829 35.4855L35.4894 29.679L32.5233 26.7128Z" fill="#FDA700"/>
</g>
<defs>
<clipPath id="clip0_1_685">
<rect width="40" height="40" fill="white" transform="translate(0.837891 0.833984)"/>
</clipPath>
</defs>
</svg>
