<svg width="91" height="91" viewBox="0 0 91 91" fill="none" xmlns="http://www.w3.org/2000/svg">
<g clip-path="url(#clip0_1_530)">
<path d="M38.402 0.708984H4.65198C2.59094 0.708984 0.902344 2.39758 0.902344 4.45862V45.709C0.902344 47.7711 2.59094 49.4586 4.65198 49.4586H38.402C40.4641 49.4586 42.1527 47.7711 42.1527 45.709V4.45862C42.1527 2.39758 40.4641 0.708984 38.402 0.708984ZM87.1527 41.9594H53.4027C51.3406 41.9594 49.652 43.6469 49.652 45.709V86.9594C49.652 89.0204 51.3406 90.709 53.4027 90.709H87.1527C89.2137 90.709 90.9023 89.0204 90.9023 86.9594V45.709C90.9023 43.6469 89.2137 41.9594 87.1527 41.9594ZM38.402 56.959H4.65198C2.59094 56.959 0.902344 58.6476 0.902344 60.7086V86.9594C0.902344 89.0204 2.59094 90.709 4.65198 90.709H38.402C40.4641 90.709 42.1527 89.0204 42.1527 86.9594V60.7086C42.1527 58.6476 40.4641 56.959 38.402 56.959ZM87.1527 0.708984H53.4027C51.3406 0.708984 49.652 2.39758 49.652 4.45862V30.7094C49.652 32.7704 51.3406 34.459 53.4027 34.459H87.1527C89.2137 34.459 90.9023 32.7704 90.9023 30.7094V4.45862C90.9023 2.39758 89.2137 0.708984 87.1527 0.708984Z" fill="#FDA700"/>
</g>
<defs>
<clipPath id="clip0_1_530">
<rect width="90" height="90" fill="white" transform="translate(0.902344 0.708984)"/>
</clipPath>
</defs>
</svg>
