<svg width="41" height="41" viewBox="0 0 41 41" fill="none" xmlns="http://www.w3.org/2000/svg">
<path d="M28.8684 29.012L27.2364 25.748L25.6045 29.012H28.8684Z" fill="#FDA700"/>
<path d="M35.2434 16.3125H33.583V12.7998C33.583 12.6359 33.5487 12.4739 33.4822 12.3241C33.4156 12.1743 33.3185 12.0402 33.1969 11.9303C33.0753 11.8205 32.932 11.7373 32.7763 11.6863C32.6206 11.6352 32.4559 11.6174 32.2929 11.6339C32.1063 11.6528 27.9268 12.1255 25.8459 16.3125H24.1431V18.882C24.1431 22.112 21.5152 24.7398 18.2852 24.7398H15.7158V35.8401C15.7158 37.7778 17.2923 39.3542 19.2299 39.3542H35.2434C37.181 39.3543 38.7575 37.7778 38.7575 35.8402V19.8267C38.7575 17.889 37.181 16.3125 35.2434 16.3125ZM21.4843 32.0134L26.1884 22.6052C26.2857 22.4106 26.4353 22.2468 26.6204 22.1324C26.8056 22.018 27.0189 21.9573 27.2366 21.9573C27.4542 21.9573 27.6676 22.018 27.8527 22.1324C28.0378 22.2468 28.1874 22.4106 28.2848 22.6052L32.9889 32.0134C33.2784 32.5923 33.0437 33.2962 32.4648 33.5857C31.886 33.8752 31.182 33.6405 30.8926 33.0616L30.0405 31.3574H24.4328L23.5807 33.0616C23.3754 33.4723 22.9615 33.7097 22.5316 33.7097C22.3555 33.7097 22.1767 33.6698 22.0085 33.5857C21.4295 33.2962 21.1949 32.5923 21.4843 32.0134ZM12.3888 10.2246H10.168C10.313 11.3856 10.6846 12.3618 11.2784 13.1484C11.8722 12.3618 12.2438 11.3856 12.3888 10.2246Z" fill="#FDA700"/>
<path d="M18.3629 21.9725C20.0243 21.9725 21.3759 20.6209 21.3759 18.9596V5.22985C21.3759 3.56846 20.0242 2.21681 18.3629 2.21681H4.63316C2.97177 2.21681 1.62012 3.56846 1.62012 5.22985V18.9596C1.62012 20.621 2.97177 21.9725 4.6331 21.9725H6.05663V24.9843C6.05663 25.1248 6.0861 25.2637 6.14313 25.3922C6.20016 25.5206 6.28349 25.6356 6.38773 25.7298C6.49197 25.824 6.61481 25.8952 6.74831 25.939C6.88181 25.9828 7.02301 25.9981 7.16279 25.9839C7.32275 25.9677 10.9062 25.5625 12.6903 21.9725H18.3629ZM12.0335 16.2078C11.8504 16.11 11.6717 16.004 11.498 15.8903C11.3243 16.004 11.1457 16.11 10.9626 16.2078C9.24818 17.1221 7.53683 17.1327 7.46482 17.1327C6.90993 17.1327 6.46007 16.6828 6.46007 16.1279C6.46007 15.573 6.90993 15.1232 7.46482 15.1232C7.47366 15.1231 8.71332 15.1051 9.94682 14.4713C9.24108 13.5675 8.68485 12.3413 8.52416 10.6795H7.46475C6.90986 10.6795 6.46 10.2296 6.46 9.67473C6.46 9.11984 6.90986 8.66998 7.46475 8.66998H10.4933V8.06144C10.4933 7.50655 10.9431 7.05669 11.498 7.05669C12.0529 7.05669 12.5028 7.50655 12.5028 8.06144V8.66998H15.5312C16.0861 8.66998 16.536 9.11984 16.536 9.67473C16.536 10.2296 16.0861 10.6795 15.5312 10.6795H14.4719C14.3112 12.3413 13.755 13.5675 13.0493 14.4713C14.2827 15.1051 15.5226 15.123 15.5354 15.1232C16.0903 15.1232 16.5381 15.573 16.5381 16.1279C16.5381 16.6828 16.0861 17.1327 15.5312 17.1327C15.4592 17.1327 13.7479 17.1222 12.0335 16.2078ZM26.1139 7.96525C26.3101 8.16145 26.5672 8.25958 26.8243 8.25958C27.0814 8.25958 27.3386 8.16151 27.5347 7.96525C27.9271 7.57286 27.9271 6.93672 27.5347 6.54433L27.2463 6.2559C30.9444 6.47501 33.886 9.55249 33.886 13.3046C33.886 13.8595 34.3359 14.3094 34.8908 14.3094C35.4456 14.3094 35.8955 13.8595 35.8955 13.3046C35.8955 8.43675 32.0411 4.45271 27.224 4.24272L27.5347 3.93198C27.9271 3.53959 27.9271 2.90345 27.5347 2.51106C27.1424 2.11874 26.5062 2.11867 26.1138 2.51106L24.0973 4.52773C23.7049 4.92012 23.7049 5.55626 24.0973 5.94865L26.1139 7.96525ZM11.4018 30.7438C11.0095 30.3514 10.3733 30.3514 9.98091 30.7438C9.58853 31.1361 9.58853 31.7723 9.98091 32.1647L10.2693 32.4531C6.57126 32.2341 3.62962 29.1565 3.62962 25.4044C3.62962 24.8495 3.17976 24.3996 2.62487 24.3996C2.06998 24.3996 1.62012 24.8495 1.62012 25.4044C1.62012 30.2723 5.47454 34.2563 10.2917 34.4663L9.98091 34.777C9.58853 35.1694 9.58853 35.8056 9.98091 36.1979C10.1771 36.3941 10.4343 36.4922 10.6913 36.4922C10.9484 36.4922 11.2056 36.3941 11.4018 36.1979L13.4184 34.1813C13.8108 33.7889 13.8108 33.1527 13.4184 32.7604L11.4018 30.7438Z" fill="#FDA700"/>
</svg>
