<svg width="51" height="51" viewBox="0 0 51 51" fill="none" xmlns="http://www.w3.org/2000/svg">
<g opacity="0.7" clip-path="url(#clip0_1_578)">
<path d="M45.3825 9.48633C45.3825 12.8523 42.6538 15.5811 39.2881 15.5811C35.9221 15.5811 33.1934 12.8523 33.1934 9.48633C33.1934 6.12051 35.9221 3.39189 39.2881 3.39189C42.6538 3.39189 45.3825 6.12061 45.3825 9.48633ZM28.7393 17.3808L25.8467 13.0431V5.6416C25.8467 2.68848 23.4648 0.253906 20.46 0.253906H6.33906C3.34951 0.253906 0.951172 2.67393 0.951172 5.6418V14.2707C0.951172 17.2316 3.34072 19.6581 6.33906 19.6581H27.5205C28.6875 19.6581 29.3878 18.3534 28.7393 17.3808ZM13.3581 14.1669H8.73311C7.94424 14.1669 7.26563 13.56 7.229 12.7719C7.19053 11.9303 7.85957 11.2372 8.69238 11.2372H13.3997C14.2309 11.2372 14.9016 11.9303 14.8626 12.7714C14.8264 13.56 14.1474 14.1669 13.3581 14.1669ZM18.1066 8.67481H8.73389C7.94541 8.67481 7.26709 8.06943 7.22939 7.28213C7.18896 6.44063 7.85879 5.74512 8.69228 5.74512H18.065C18.8543 5.74512 19.5333 6.35205 19.5695 7.14062C19.6085 7.98174 18.9379 8.67481 18.1066 8.67481ZM12.3266 36.5969C6.01758 36.6187 0.951172 41.8272 0.951172 48.1363V48.4576C0.951172 49.4497 1.75527 50.2539 2.74756 50.2539H21.9861C22.9783 50.2539 23.7825 49.4498 23.7825 48.4575V48.0124C23.7825 41.694 18.6498 36.5748 12.3266 36.5969Z" fill="#FDA700"/>
<path d="M19.5556 29.4075C19.5556 33.3774 16.3375 36.596 12.3671 36.596C8.39717 36.596 5.17871 33.3774 5.17871 29.4075C5.17871 25.4376 8.39717 22.219 12.3672 22.219C16.3375 22.219 19.5556 25.4376 19.5556 29.4075ZM48.5323 23.7881H30.0429C30.588 19.1662 34.5187 15.5801 39.2882 15.5801C44.0565 15.5801 47.9872 19.1662 48.5323 23.7881ZM49.4864 26.8154C50.2955 26.8154 50.9513 27.4712 50.9513 28.2803V45.6505C50.9513 46.4825 50.2569 47.1534 49.4151 47.1134C48.628 47.0761 48.0216 46.3975 48.0216 45.6085V43.9767H26.134C25.1494 40.6251 22.9728 37.7773 20.0949 35.9307C21.585 34.168 22.4855 31.8905 22.4855 29.4072C22.4855 28.5118 22.3682 27.6436 22.1484 26.8154H49.4864Z" fill="#FDA700"/>
</g>
<defs>
<clipPath id="clip0_1_578">
<rect width="50" height="50" fill="white" transform="translate(0.951172 0.253906)"/>
</clipPath>
</defs>
</svg>
