<svg width="31" height="31" viewBox="0 0 31 31" fill="none" xmlns="http://www.w3.org/2000/svg">
<g clip-path="url(#clip0_1_525)">
<path d="M19.9124 11.0709C19.911 9.83678 19.4202 8.65358 18.5475 7.78092C17.6748 6.90825 16.4916 6.41738 15.2575 6.41602C9.08631 6.66019 9.08838 15.4832 15.2575 15.7263C16.4917 15.7248 17.6749 15.2339 18.5475 14.3611C19.4202 13.4884 19.911 12.3051 19.9124 11.0709ZM11.6372 11.0709C11.6383 10.1111 12.0201 9.19092 12.6988 8.51222C13.3775 7.83353 14.2977 7.45176 15.2575 7.45067C20.049 7.62139 20.0474 14.5225 15.2575 14.6917C14.2976 14.6905 13.3774 14.3086 12.6988 13.6298C12.0201 12.951 11.6383 12.0308 11.6372 11.0709Z" fill="white" stroke="white" stroke-width="0.5"/>
<path d="M18.2801 24.7471C21.0798 21.3985 25.0777 15.7912 25.0777 11.0695C24.5402 -1.95314 5.97701 -1.95779 5.43848 11.0695C5.43848 15.7912 9.43586 21.3985 12.2361 24.7476C10.1332 25.2287 8.86318 26.1801 8.86318 27.3224C8.86318 29.2054 12.158 30.2204 15.2578 30.2204C18.3577 30.2204 21.6525 29.2049 21.6525 27.3224C21.6525 26.1801 20.383 25.2287 18.2801 24.7471ZM15.2578 2.2848C17.5869 2.28754 19.8197 3.21395 21.4666 4.86081C23.1134 6.50767 24.0398 8.74051 24.0426 11.0695C24.0426 16.9753 16.963 24.7838 15.2578 26.5784C13.5527 24.7838 6.47313 16.9753 6.47313 11.0695C6.47587 8.74051 7.40228 6.50767 9.04914 4.86081C10.696 3.21395 12.9288 2.28754 15.2578 2.2848ZM15.2578 29.1858C9.97594 29.0937 7.54037 26.744 13.0101 25.6529C14.0395 26.8314 14.7876 27.5841 14.8926 27.6886C14.9896 27.7853 15.1209 27.8396 15.2578 27.8396C15.3948 27.8396 15.5261 27.7853 15.6231 27.6886C15.7281 27.5841 16.4756 26.8314 17.5061 25.6529C22.9748 26.7435 20.5397 29.0932 15.2578 29.1858Z" fill="white" stroke="white" stroke-width="0.5"/>
</g>
<defs>
<clipPath id="clip0_1_525">
<rect width="30" height="30" fill="white" transform="translate(0.257812 0.759766)"/>
</clipPath>
</defs>
</svg>
