<svg width="201" height="41" viewBox="0 0 201 41" fill="none" xmlns="http://www.w3.org/2000/svg">
<path d="M25.0327 15.9239L20.3204 0.712891L15.6086 15.9239H0.363281L12.698 25.3243L7.98614 40.5374L20.3204 31.1329L32.6551 40.5374L27.9433 25.3243L40.278 15.9239H25.0327ZM65.0539 15.9239L60.342 0.712891L55.6298 15.9239H40.3845L52.7192 25.3243L48.0074 40.5374L60.342 31.1329L72.6767 40.5374L67.9645 25.3243L80.2992 15.9239H65.0539ZM105.075 15.9239L100.363 0.712891L95.6514 15.9239H80.4057L92.7404 25.3243L88.0286 40.5374L100.363 31.1329L112.698 40.5374L107.986 25.3243L120.32 15.9239H105.075ZM145.096 15.9239L140.384 0.712891L135.673 15.9239H120.427L132.762 25.3243L128.05 40.5374L140.384 31.1329L152.719 40.5374L148.007 25.3243L160.342 15.9239H145.096ZM180.406 0.712891L175.694 15.9239H160.449L172.783 25.3243L168.071 40.5374L180.406 31.1329L192.74 40.5374L188.029 25.3243L200.363 15.9239H185.118L180.406 0.712891Z" fill="#FDA700"/>
</svg>
