<svg width="171" height="61" viewBox="0 0 171 61" fill="none" xmlns="http://www.w3.org/2000/svg">
<circle cx="140.463" cy="30.6172" r="30" fill="black" fill-opacity="0.03"/>
<g clip-path="url(#clip0_1_746)">
<path d="M147.247 28.8417C147.123 28.7185 146.986 28.6092 146.838 28.5157L137.149 18.8264C136.694 18.3722 136.078 18.1171 135.436 18.1172C134.794 18.1172 134.178 18.3724 133.724 18.8266C133.27 19.2808 133.015 19.8968 133.015 20.539C133.015 21.1813 133.27 21.7972 133.724 22.2514L142.07 30.5959L133.682 38.9844C133.228 39.4383 132.973 40.054 132.973 40.6961C132.973 41.0139 133.035 41.3287 133.157 41.6224C133.279 41.9161 133.457 42.183 133.682 42.4078C133.907 42.6326 134.173 42.8109 134.467 42.9326C134.761 43.0543 135.076 43.1169 135.393 43.1169C136.035 43.117 136.651 42.862 137.105 42.408L146.838 32.6761C146.986 32.5827 147.123 32.4733 147.247 32.3501C147.477 32.1204 147.658 31.8466 147.78 31.5451C147.901 31.2437 147.96 30.9208 147.953 30.5959C147.96 30.271 147.901 29.948 147.78 29.6465C147.659 29.345 147.477 29.0712 147.247 28.8417Z" fill="#FDA700"/>
</g>
<circle cx="30" cy="30" r="30" transform="matrix(-1 0 0 1 60.4629 0.618164)" fill="black" fill-opacity="0.03"/>
<g clip-path="url(#clip1_1_746)">
<path d="M23.6784 28.8427C23.8024 28.7195 23.9396 28.6102 24.0873 28.5167L33.7771 18.8273C34.2313 18.3732 34.8473 18.1181 35.4896 18.1182C36.1318 18.1182 36.7478 18.3734 37.2019 18.8276C37.656 19.2818 37.9111 19.8977 37.9111 20.54C37.911 21.1823 37.6558 21.7982 37.2017 22.2523L28.8562 30.5969L37.2438 38.9854C37.6978 39.4393 37.9529 40.055 37.9529 40.697C37.953 41.0149 37.8904 41.3297 37.7687 41.6234C37.6471 41.9171 37.4688 42.184 37.244 42.4088C37.0193 42.6336 36.7524 42.8119 36.4587 42.9336C36.165 43.0553 35.8503 43.1179 35.5324 43.1179C34.8904 43.118 34.2746 42.863 33.8206 42.409L24.0873 32.6771C23.9395 32.5836 23.8024 32.4743 23.6784 32.3511C23.4485 32.1214 23.2675 31.8476 23.1462 31.5461C23.0249 31.2446 22.9658 30.9218 22.9726 30.5969C22.9656 30.272 23.0245 29.949 23.1458 29.6475C23.2671 29.346 23.4483 29.0722 23.6784 28.8427Z" fill="#FDA700"/>
</g>
<defs>
<clipPath id="clip0_1_746">
<rect width="25" height="25" fill="white" transform="translate(127.963 18.1172)"/>
</clipPath>
<clipPath id="clip1_1_746">
<rect width="25" height="25" fill="white" transform="matrix(-1 0 0 1 42.9629 18.1182)"/>
</clipPath>
</defs>
</svg>
