<svg width="201" height="41" viewBox="0 0 201 41" fill="none" xmlns="http://www.w3.org/2000/svg">
<path d="M25.5209 15.9239L20.8087 0.712891L16.0969 15.9239H0.851562L13.1863 25.3243L8.47442 40.5374L20.8087 31.1329L33.1434 40.5374L28.4316 25.3243L40.7663 15.9239H25.5209ZM65.5422 15.9239L60.8303 0.712891L56.1181 15.9239H40.8728L53.2075 25.3243L48.4956 40.5374L60.8303 31.1329L73.165 40.5374L68.4528 25.3243L80.7875 15.9239H65.5422ZM105.563 15.9239L100.852 0.712891L96.1397 15.9239H80.894L93.2287 25.3243L88.5169 40.5374L100.852 31.1329L113.186 40.5374L108.474 25.3243L120.809 15.9239H105.563ZM145.585 15.9239L140.873 0.712891L136.161 15.9239H120.916L133.25 25.3243L128.538 40.5374L140.873 31.1329L153.207 40.5374L148.496 25.3243L160.83 15.9239H145.585ZM180.894 0.712891L176.182 15.9239H160.937L173.272 25.3243L168.56 40.5374L180.894 31.1329L193.229 40.5374L188.517 25.3243L200.852 15.9239H185.606L180.894 0.712891Z" fill="#FDA700"/>
</svg>
