<svg width="130" height="130" viewBox="0 0 130 130" fill="none" xmlns="http://www.w3.org/2000/svg">
<g filter="url(#filter0_d_1_736)">
<circle cx="65.0117" cy="62.793" r="56.6895" fill="white" fill-opacity="0.6" shape-rendering="crispEdges"/>
</g>
<g clip-path="url(#clip0_1_736)">
<path d="M79.9377 58.8864C79.6647 58.6153 79.3631 58.3748 79.038 58.1692L57.7204 36.8527C56.7212 35.8536 55.3661 35.2924 53.9531 35.2925C52.5401 35.2926 51.185 35.854 50.1859 36.8532C49.1869 37.8524 48.6257 39.2075 48.6257 40.6205C48.6258 42.0335 49.1872 43.3886 50.1864 44.3877L68.5464 62.7457L50.0937 81.2003C49.0949 82.199 48.5337 83.5535 48.5336 84.966C48.5336 85.6654 48.6713 86.3579 48.9389 87.004C49.2065 87.6502 49.5987 88.2373 50.0932 88.7318C50.5877 89.2264 51.1748 89.6187 51.8209 89.8864C52.467 90.1541 53.1595 90.2919 53.8589 90.2919C55.2713 90.292 56.6259 89.731 57.6247 88.7323L79.038 67.3221C79.3631 67.1165 79.6648 66.876 79.9377 66.6049C80.4434 66.0996 80.8416 65.4972 81.1085 64.834C81.3753 64.1707 81.5052 63.4604 81.4904 62.7457C81.5058 62.0308 81.3761 61.3203 81.1093 60.657C80.8424 59.9937 80.4438 59.3914 79.9377 58.8864Z" fill="#FDA700"/>
</g>
<defs>
<filter id="filter0_d_1_736" x="0.322266" y="0.103516" width="129.379" height="129.379" filterUnits="userSpaceOnUse" color-interpolation-filters="sRGB">
<feFlood flood-opacity="0" result="BackgroundImageFix"/>
<feColorMatrix in="SourceAlpha" type="matrix" values="0 0 0 0 0 0 0 0 0 0 0 0 0 0 0 0 0 0 127 0" result="hardAlpha"/>
<feOffset dy="2"/>
<feGaussianBlur stdDeviation="4"/>
<feComposite in2="hardAlpha" operator="out"/>
<feColorMatrix type="matrix" values="0 0 0 0 0 0 0 0 0 0 0 0 0 0 0 0 0 0 0.25 0"/>
<feBlend mode="normal" in2="BackgroundImageFix" result="effect1_dropShadow_1_736"/>
<feBlend mode="normal" in="SourceGraphic" in2="effect1_dropShadow_1_736" result="shape"/>
</filter>
<clipPath id="clip0_1_736">
<rect width="55" height="55" fill="white" transform="translate(37.5117 35.293)"/>
</clipPath>
</defs>
</svg>
