<svg width="171" height="61" viewBox="0 0 171 61" fill="none" xmlns="http://www.w3.org/2000/svg">
<circle cx="140.276" cy="30.334" r="30" fill="black" fill-opacity="0.03"/>
<g clip-path="url(#clip0_1_757)">
<path d="M147.061 28.5583C146.937 28.435 146.8 28.3257 146.652 28.2323L136.962 18.5429C136.508 18.0888 135.892 17.8337 135.25 17.8337C134.607 17.8338 133.991 18.089 133.537 18.5431C133.083 18.9973 132.828 19.6133 132.828 20.2556C132.828 20.8978 133.083 21.5138 133.538 21.9679L141.883 30.3125L133.495 38.7009C133.041 39.1549 132.786 39.7706 132.786 40.4126C132.786 40.7305 132.849 41.0453 132.971 41.339C133.092 41.6327 133.27 41.8996 133.495 42.1244C133.72 42.3492 133.987 42.5275 134.281 42.6492C134.574 42.7708 134.889 42.8335 135.207 42.8335C135.849 42.8335 136.465 42.5785 136.919 42.1246L146.652 32.3926C146.8 32.2992 146.937 32.1899 147.061 32.0667C147.291 31.837 147.472 31.5632 147.593 31.2617C147.714 30.9602 147.773 30.6373 147.767 30.3125C147.774 29.9875 147.715 29.6646 147.593 29.3631C147.472 29.0616 147.291 28.7878 147.061 28.5583Z" fill="#FDA700"/>
</g>
<circle cx="30" cy="30" r="30" transform="matrix(-1 0 0 1 60.2764 0.334961)" fill="black" fill-opacity="0.03"/>
<g clip-path="url(#clip1_1_757)">
<path d="M23.4919 28.559C23.6159 28.4358 23.753 28.3265 23.9008 28.233L33.5906 18.5437C34.0448 18.0895 34.6608 17.8344 35.303 17.8345C35.9453 17.8345 36.5612 18.0897 37.0154 18.5439C37.4695 18.9981 37.7246 19.614 37.7245 20.2563C37.7245 20.8986 37.4693 21.5145 37.0151 21.9686L28.6697 30.3132L37.0573 38.7017C37.5113 39.1556 37.7664 39.7713 37.7664 40.4133C37.7664 40.7312 37.7038 41.046 37.5822 41.3397C37.4606 41.6334 37.2823 41.9003 37.0575 42.1251C36.8327 42.3499 36.5659 42.5282 36.2722 42.6499C35.9785 42.7716 35.6637 42.8342 35.3459 42.8342C34.7038 42.8343 34.0881 42.5793 33.6341 42.1253L23.9008 32.3934C23.753 32.2999 23.6159 32.1906 23.4919 32.0674C23.262 31.8377 23.081 31.5639 22.9597 31.2624C22.8384 30.961 22.7793 30.6381 22.7861 30.3132C22.7791 29.9883 22.838 29.6653 22.9593 29.3638C23.0806 29.0623 23.2618 28.7885 23.4919 28.559Z" fill="#FDA700"/>
</g>
<defs>
<clipPath id="clip0_1_757">
<rect width="25" height="25" fill="white" transform="translate(127.776 17.834)"/>
</clipPath>
<clipPath id="clip1_1_757">
<rect width="25" height="25" fill="white" transform="matrix(-1 0 0 1 42.7764 17.8347)"/>
</clipPath>
</defs>
</svg>
