<svg width="201" height="41" viewBox="0 0 201 41" fill="none" xmlns="http://www.w3.org/2000/svg">
<path d="M24.9233 15.9239L20.211 0.712891L15.4992 15.9239H0.253906L12.5886 25.3243L7.87676 40.5374L20.211 31.1329L32.5457 40.5374L27.8339 25.3243L40.1686 15.9239H24.9233ZM64.9445 15.9239L60.2327 0.712891L55.5204 15.9239H40.2751L52.6098 25.3243L47.898 40.5374L60.2327 31.1329L72.5674 40.5374L67.8551 25.3243L80.1898 15.9239H64.9445ZM104.966 15.9239L100.254 0.712891L95.5421 15.9239H80.2963L92.631 25.3243L87.9192 40.5374L100.254 31.1329L112.589 40.5374L107.877 25.3243L120.211 15.9239H104.966ZM144.987 15.9239L140.275 0.712891L135.563 15.9239H120.318L132.653 25.3243L127.94 40.5374L140.275 31.1329L152.61 40.5374L147.898 25.3243L160.233 15.9239H144.987ZM180.297 0.712891L175.584 15.9239H160.339L172.674 25.3243L167.962 40.5374L180.297 31.1329L192.631 40.5374L187.919 25.3243L200.254 15.9239H185.009L180.297 0.712891Z" fill="#FDA700"/>
</svg>
