<svg width="133" height="30" viewBox="0 0 133 30" fill="none" xmlns="http://www.w3.org/2000/svg">
<path d="M90.2344 29.0545H77.6024C74.0541 29.0545 71.1445 25.8334 71.1445 21.9053V7.84257C71.1445 3.91443 74.0541 0.693359 77.6024 0.693359H90.2344C93.7827 0.693359 96.6923 3.91443 96.6923 7.84257V21.8267C96.7633 25.8334 93.8537 29.0545 90.2344 29.0545Z" fill="#282521"/>
<path d="M90.9442 10.1997C90.5184 10.4354 90.0216 10.514 89.5248 10.6711C89.7377 10.5925 90.0926 10.1997 90.2345 9.96403C90.4474 9.64978 90.5893 9.33553 90.7313 9.02128V8.94272H90.6603C90.1635 9.25697 89.5958 9.49266 89.0281 9.64978C88.9571 9.64978 88.9571 9.64978 88.8862 9.64978C88.8152 9.57122 88.8152 9.57122 88.7442 9.49266C88.5313 9.25697 88.2475 9.09984 87.9636 8.94272C87.6088 8.78559 87.183 8.70703 86.7572 8.70703C86.3314 8.70703 85.9765 8.86416 85.6217 9.09984C85.2669 9.33553 84.9121 9.57122 84.6992 9.96403C84.4153 10.3568 84.2734 10.7497 84.1314 11.221C84.0605 11.6924 84.0605 12.0852 84.1314 12.5566C84.1314 12.6352 84.1314 12.6352 84.0605 12.6352C81.7895 12.2424 79.8735 11.3782 78.3832 9.4141C78.3122 9.33553 78.3122 9.33553 78.2412 9.4141C77.6025 10.514 77.8864 12.3209 78.738 13.1851C78.8799 13.2637 78.9509 13.4208 79.0928 13.4994C79.0219 13.4994 78.5251 13.4208 78.0283 13.1851C77.9574 13.1065 77.9574 13.1851 77.9574 13.2637C77.9574 13.4208 77.9574 13.4994 77.9574 13.6565C78.0993 14.7564 78.809 15.8562 79.7315 16.2491C79.8735 16.3276 79.9444 16.3276 80.0864 16.4062C79.8735 16.4847 79.6606 16.4847 79.0219 16.4062C78.9509 16.4062 78.8799 16.4062 78.9509 16.4847C79.4477 17.8989 80.4412 18.3702 81.2218 18.6059C81.2928 18.6059 81.4347 18.6059 81.5057 18.6845C81.2218 19.0773 80.3702 19.4701 79.9444 19.6272C79.2348 19.9415 78.3832 20.0201 77.6025 19.9415C77.4606 19.9415 77.4606 19.9415 77.3896 19.9415C77.3896 19.9415 77.3896 20.0201 77.4606 20.0201C77.6025 20.0986 77.8154 20.2558 77.9574 20.3343C78.4541 20.6486 78.9509 20.8843 79.5186 21.0414C82.3573 21.9056 85.4798 21.2771 87.6088 18.9202C89.241 17.1132 89.8797 14.5992 89.8797 12.0852C89.8797 12.0067 89.9506 11.9281 90.0216 11.8495C90.4474 11.4567 90.8022 11.0639 91.1571 10.5925C91.0151 10.2783 91.0151 10.1997 90.9442 10.1997C91.0151 10.1997 91.0151 10.1997 90.9442 10.1997C91.0151 10.1212 91.0151 10.1212 90.9442 10.1997Z" fill="#F0EEEE"/>
<path d="M54.752 29.0545H42.12C38.5717 29.0545 35.6621 25.8334 35.6621 21.9053V7.84257C35.6621 3.91443 38.5717 0.693359 42.12 0.693359H54.752C58.3003 0.693359 61.2099 3.91443 61.2099 7.84257V21.8267C61.2809 25.8334 58.3713 29.0545 54.752 29.0545Z" fill="#282521"/>
<path d="M52.4102 9.64844C51.9134 9.64844 51.5586 10.0413 51.5586 10.5912C51.5586 11.1411 51.9134 11.5339 52.4102 11.5339C52.9069 11.5339 53.2618 11.1411 53.2618 10.5912C53.2618 10.0413 52.836 9.64844 52.4102 9.64844Z" fill="#F0EEEE"/>
<path d="M48.507 10.8281C46.5199 10.8281 44.8877 12.6351 44.8877 14.8348C44.8877 17.0346 46.5199 18.8415 48.507 18.8415C50.494 18.8415 52.1262 17.0346 52.1262 14.8348C52.1972 12.6351 50.565 10.8281 48.507 10.8281ZM48.507 17.506C47.2296 17.506 46.1651 16.3275 46.1651 14.9134C46.1651 13.4993 47.2296 12.3208 48.507 12.3208C49.7844 12.3208 50.8488 13.4993 50.8488 14.9134C50.8488 16.3275 49.7844 17.506 48.507 17.506Z" fill="#F0EEEE"/>
<path d="M51.4167 23.0837H45.5265C43.0427 23.0837 41.0557 20.8839 41.0557 18.1342V11.6135C41.0557 8.86382 43.0427 6.66406 45.5265 6.66406H51.4167C53.9005 6.66406 55.8876 8.86382 55.8876 11.6135V18.1342C55.8876 20.8839 53.9005 23.0837 51.4167 23.0837ZM45.5265 8.23532C43.8233 8.23532 42.475 9.72801 42.475 11.6135V18.1342C42.475 20.0197 43.8233 21.5124 45.5265 21.5124H51.4167C53.1199 21.5124 54.4683 20.0197 54.4683 18.1342V11.6135C54.4683 9.72801 53.1199 8.23532 51.4167 8.23532H45.5265V8.23532Z" fill="#F0EEEE"/>
<path d="M19.2686 29.0545H14.9397L12.9526 28.2689L10.9656 28.9759H6.63662C3.08832 28.9759 0.178711 25.7549 0.178711 21.8267V7.84257C0.178711 3.91443 3.08832 0.693359 6.63662 0.693359H19.2686C22.8169 0.693359 25.7265 3.91443 25.7265 7.84257V21.8267C25.7975 25.8334 22.8879 29.0545 19.2686 29.0545Z" fill="#282521"/>
<path d="M10.965 11.7704V14.8344H7.77148V18.8411H10.965V28.9757H14.9391V18.9196H17.9196L18.4874 14.9129H15.01V12.3204C15.01 11.2205 15.5068 10.1206 17.068 10.1206H18.6293V6.5853C18.6293 6.5853 17.21 6.34961 15.7907 6.34961C12.881 6.34961 10.965 8.23511 10.965 11.7704Z" fill="#F0EEEE"/>
<path d="M125.718 29.0545H113.086C109.538 29.0545 106.628 25.8334 106.628 21.9053V7.84257C106.628 3.91443 109.538 0.693359 113.086 0.693359H125.718C129.266 0.693359 132.176 3.91443 132.176 7.84257V21.8267C132.247 25.8334 129.337 29.0545 125.718 29.0545Z" fill="#282521"/>
<path d="M120.04 13.577C120.395 13.1056 120.891 12.7913 121.388 12.7128C122.382 12.5557 123.375 12.5557 124.085 13.577C124.511 14.1269 124.724 14.834 124.724 15.6196C124.795 17.1909 124.795 18.7621 124.795 20.3334C124.795 20.7262 124.653 20.9619 124.227 20.9619C123.801 20.9619 123.304 20.9619 122.878 20.9619C122.453 20.9619 122.311 20.8047 122.311 20.3334C122.311 19.0764 122.311 17.8194 122.311 16.5624C122.311 16.2481 122.24 16.0124 122.169 15.6982C122.027 15.2268 121.743 14.9911 121.317 14.9911C120.891 14.9911 120.466 15.0697 120.324 15.541C120.182 15.8553 120.04 16.2481 120.04 16.6409C119.969 17.8194 120.04 19.0764 120.04 20.2548C120.04 20.8047 119.898 20.9619 119.401 20.9619C118.975 20.9619 118.55 20.9619 118.195 20.9619C117.769 20.9619 117.627 20.8047 117.627 20.3334C117.627 18.055 117.627 15.6982 117.627 13.4198C117.627 12.9485 117.769 12.7913 118.195 12.7913C118.62 12.7913 118.975 12.7913 119.401 12.7913C119.827 12.7913 119.969 12.9485 120.04 13.4984C120.04 13.4198 120.04 13.4984 120.04 13.577Z" fill="#F0EEEE"/>
<path d="M116.704 16.7997C116.704 17.9781 116.704 19.078 116.704 20.2564C116.704 20.7278 116.562 20.8849 116.136 20.8849C115.711 20.8849 115.285 20.8849 114.93 20.8849C114.504 20.8849 114.362 20.7278 114.362 20.2564C114.362 17.9781 114.362 15.6998 114.362 13.4215C114.362 12.9501 114.504 12.793 114.93 12.793C115.356 12.793 115.711 12.793 116.136 12.793C116.562 12.793 116.775 12.9501 116.775 13.5C116.704 14.5213 116.704 15.6998 116.704 16.7997Z" fill="#F0EEEE"/>
<path d="M114.008 10.5135C114.008 9.57078 114.717 8.78516 115.498 8.78516C116.35 8.78516 116.988 9.57078 116.988 10.435C116.988 11.3777 116.279 12.1634 115.427 12.1634C114.647 12.1634 114.008 11.4563 114.008 10.5135Z" fill="#F0EEEE"/>
</svg>
