<svg width="297" height="31" viewBox="0 0 297 31" fill="none" xmlns="http://www.w3.org/2000/svg">
<path fill-rule="evenodd" clip-rule="evenodd" d="M8.22491 26.1983C9.26022 26.1983 10.1027 27.0683 10.1027 28.1393C10.1027 29.2103 9.26022 30.0818 8.22491 30.0818C7.18961 30.0818 6.3486 29.2103 6.3486 28.1393C6.3486 27.0683 7.18961 26.1983 8.22491 26.1983ZM24.5814 26.1983C25.6182 26.1983 26.4606 27.0683 26.4606 28.1393C26.4606 29.2103 25.6182 30.0818 24.5814 30.0818C23.5461 30.0818 22.7051 29.2103 22.7051 28.1393C22.7051 27.0683 23.5461 26.1983 24.5814 26.1983ZM2.02498 0.784738L5.04099 1.32474C5.52674 1.41324 5.89649 1.83024 5.93854 2.34024L6.2793 6.54173L7.54638 6.5423C7.75315 6.54239 7.95772 6.54248 8.16013 6.54258L10.4864 6.54372C10.6718 6.54382 10.8552 6.54392 11.0365 6.54401L13.605 6.54547C13.7664 6.54557 13.9258 6.54567 14.0833 6.54576L15.8832 6.54695C16.0258 6.54705 16.1666 6.54715 16.3056 6.54725L17.8887 6.54846C18.0137 6.54856 18.137 6.54866 18.2586 6.54876L19.639 6.54999C19.7475 6.55009 19.8545 6.55019 19.9599 6.5503L20.8672 6.55123C20.9634 6.55133 21.0582 6.55144 21.1515 6.55154L22.2021 6.55281C22.284 6.55291 22.3646 6.55302 22.4438 6.55312L23.3309 6.5544C23.3996 6.55451 23.4672 6.55462 23.5334 6.55473L24.0972 6.5557C24.1563 6.55581 24.2142 6.55592 24.271 6.55603L24.899 6.55734C24.947 6.55745 24.994 6.55757 25.0399 6.55768L25.4264 6.55868C25.4664 6.55879 25.5055 6.5589 25.5436 6.55901L25.958 6.56036C25.989 6.56048 26.0193 6.56059 26.0487 6.5607L26.2919 6.56173C26.3167 6.56185 26.3407 6.56196 26.3639 6.56207L26.61 6.56346C26.6279 6.56358 26.6452 6.56369 26.6618 6.56381L26.7959 6.56486C26.8092 6.56498 26.8219 6.5651 26.8341 6.56522L26.9306 6.56628C26.94 6.5664 26.9489 6.56652 26.9573 6.56664L27.023 6.56772C27.0292 6.56784 27.0351 6.56796 27.0406 6.56808L27.0822 6.56916C27.0859 6.56929 27.0895 6.56941 27.0928 6.56953L27.1229 6.571C27.1248 6.57112 27.1265 6.57124 27.128 6.57137C27.1422 6.57273 27.1442 6.57298 27.1463 6.57323C27.954 6.69473 28.6645 7.13123 29.1488 7.80323C29.6331 8.47373 29.8361 9.30023 29.7201 10.1282L28.344 19.9652C28.0845 21.8372 26.5127 23.2487 24.6857 23.2487H8.85016C6.9405 23.2487 5.32374 21.7067 5.16859 19.7342L3.84039 3.39323L1.65523 3.00324C1.06217 2.89524 0.666323 2.31474 0.767824 1.70124C0.872224 1.08774 1.44498 0.688738 2.02498 0.784738ZM7.25549 8.79224L6.462 8.79173L7.33635 19.5497C7.40015 20.3777 8.0541 20.9987 8.85306 20.9987H24.6828C25.4382 20.9987 26.0835 20.4167 26.1908 19.6442L27.5683 9.80573C27.6002 9.57173 27.5436 9.33773 27.4059 9.14873C27.2696 8.95823 27.0695 8.83523 26.8433 8.80223C26.8328 8.80264 26.8078 8.80302 26.7689 8.80336L26.6111 8.8043C26.5782 8.80444 26.5419 8.80457 26.5024 8.80469L25.6809 8.80598C25.6116 8.80603 25.5396 8.80608 25.4649 8.80611L23.5335 8.80603C23.4257 8.80599 23.3159 8.80594 23.2041 8.80589L21 8.80451C20.8679 8.80441 20.7344 8.8043 20.5996 8.8042L19.3524 8.80317C19.2103 8.80304 19.0672 8.80292 18.9231 8.80279L17.602 8.80159C17.4528 8.80145 17.3029 8.80131 17.1524 8.80117L16.2424 8.8003C16.0897 8.80016 15.9366 8.80001 15.7831 8.79986L14.3944 8.79852C14.2396 8.79837 14.0846 8.79822 13.9297 8.79807L13.0007 8.79718C12.8462 8.79703 12.6917 8.79688 12.5376 8.79673L11.6165 8.79587C11.4638 8.79573 11.3115 8.79559 11.1597 8.79545L9.81046 8.79425C9.66267 8.79412 9.51568 8.79399 9.36957 8.79387L7.66447 8.79253C7.52687 8.79243 7.39051 8.79233 7.25549 8.79224ZM22.3539 12.0862C22.9542 12.0862 23.4414 12.5902 23.4414 13.2112C23.4414 13.8322 22.9542 14.3362 22.3539 14.3362H18.3345C17.7327 14.3362 17.247 13.8322 17.247 13.2112C17.247 12.5902 17.7327 12.0862 18.3345 12.0862H22.3539Z" fill="#304461"/>
<path fill-rule="evenodd" clip-rule="evenodd" d="M271.089 5.10118C271.092 5.10118 271.021 5.17474 270.932 5.26245C270.59 5.59489 269.881 6.28665 269.874 7.73384C269.863 9.7582 271.194 13.5169 277.604 19.9253C283.984 26.3025 287.737 27.6493 289.766 27.6493H289.795C291.242 27.6422 291.933 26.932 292.267 26.5911C292.369 26.4864 292.451 26.41 292.509 26.3619C293.918 24.9445 294.639 23.8891 294.632 23.2129C294.622 22.5226 293.763 21.7063 292.576 20.5774C292.199 20.2181 291.788 19.8277 291.356 19.3948C290.234 18.2758 289.678 18.4668 288.456 18.8968C286.765 19.4896 284.445 20.2959 280.841 16.69C277.23 13.0826 278.038 10.7654 278.629 9.07493C279.057 7.85267 279.252 7.2953 278.129 6.17207C277.689 5.73352 277.294 5.31762 276.93 4.93566C275.809 3.75585 274.999 2.90281 274.313 2.89291H274.302C273.624 2.89291 272.572 3.61721 271.082 5.10684C271.087 5.10259 271.088 5.10118 271.089 5.10118ZM289.767 29.7712C286.242 29.7712 281.645 26.9646 276.104 21.4262C270.542 15.8652 267.731 11.2549 267.752 7.72252C267.765 5.38835 268.989 4.19297 269.448 3.74453C269.472 3.71482 269.554 3.63419 269.583 3.60589C271.611 1.57587 272.979 0.755375 274.34 0.770719C275.92 0.792155 277.045 1.9748 278.468 3.47292C278.82 3.84355 279.202 4.24673 279.628 4.67112C281.694 6.73651 281.105 8.42136 280.633 9.77376C280.118 11.2492 279.672 12.5224 282.34 15.1905C285.011 17.8585 286.284 17.4129 287.754 16.8937C289.108 16.4212 290.788 15.8299 292.857 17.8953C293.275 18.314 293.673 18.6917 294.039 19.0411C295.544 20.4713 296.733 21.6016 296.753 23.1861C296.769 24.537 295.949 25.9135 293.923 27.9407L293.026 27.3324L293.785 28.0737C293.336 28.5334 292.142 29.7585 289.807 29.7712H289.767Z" fill="#304461"/>
</svg>
