<svg width="130" height="130" viewBox="0 0 130 130" fill="none" xmlns="http://www.w3.org/2000/svg">
<g filter="url(#filter0_d_1_741)">
<circle cx="64.6987" cy="62.793" r="56.6895" transform="rotate(180 64.6987 62.793)" fill="white" fill-opacity="0.6" shape-rendering="crispEdges"/>
</g>
<g clip-path="url(#clip0_1_741)">
<path d="M49.7728 66.6995C50.0457 66.9706 50.3474 67.2111 50.6725 67.4167L71.99 88.7333C72.9892 89.7323 74.3444 90.2935 75.7574 90.2935C77.1704 90.2934 78.5254 89.732 79.5245 88.7328C80.5236 87.7336 81.0848 86.3784 81.0847 84.9654C81.0846 83.5524 80.5232 82.1974 79.524 81.1983L61.164 62.8403L79.6167 44.3856C80.6156 43.3869 81.1767 42.0324 81.1768 40.62C81.1769 39.9206 81.0392 39.2281 80.7716 38.5819C80.504 37.9358 80.1117 37.3486 79.6172 36.8541C79.1227 36.3595 78.5357 35.9672 77.8896 35.6995C77.2435 35.4319 76.5509 35.2941 75.8516 35.294C74.4391 35.2939 73.0845 35.8549 72.0857 36.8536L50.6725 58.2639C50.3473 58.4694 50.0457 58.7099 49.7728 58.9811C49.2671 59.4864 48.8688 60.0888 48.602 60.752C48.3351 61.4152 48.2052 62.1255 48.22 62.8403C48.2046 63.5551 48.3343 64.2656 48.6012 64.9289C48.8681 65.5922 49.2666 66.1945 49.7728 66.6995Z" fill="#FDA700"/>
</g>
<defs>
<filter id="filter0_d_1_741" x="0.00927734" y="0.103516" width="129.379" height="129.379" filterUnits="userSpaceOnUse" color-interpolation-filters="sRGB">
<feFlood flood-opacity="0" result="BackgroundImageFix"/>
<feColorMatrix in="SourceAlpha" type="matrix" values="0 0 0 0 0 0 0 0 0 0 0 0 0 0 0 0 0 0 127 0" result="hardAlpha"/>
<feOffset dy="2"/>
<feGaussianBlur stdDeviation="4"/>
<feComposite in2="hardAlpha" operator="out"/>
<feColorMatrix type="matrix" values="0 0 0 0 0 0 0 0 0 0 0 0 0 0 0 0 0 0 0.25 0"/>
<feBlend mode="normal" in2="BackgroundImageFix" result="effect1_dropShadow_1_741"/>
<feBlend mode="normal" in="SourceGraphic" in2="effect1_dropShadow_1_741" result="shape"/>
</filter>
<clipPath id="clip0_1_741">
<rect width="55" height="55" fill="white" transform="matrix(-1 0 0 -1 92.1987 90.293)"/>
</clipPath>
</defs>
</svg>
