<svg width="201" height="41" viewBox="0 0 201 41" fill="none" xmlns="http://www.w3.org/2000/svg">
<path d="M25.6303 15.9239L20.9181 0.712891L16.2062 15.9239H0.960938L13.2956 25.3243L8.58379 40.5374L20.9181 31.1329L33.2528 40.5374L28.5409 25.3243L40.8756 15.9239H25.6303ZM65.6515 15.9239L60.9397 0.712891L56.2275 15.9239H40.9822L53.3169 25.3243L48.605 40.5374L60.9397 31.1329L73.2744 40.5374L68.5622 25.3243L80.8968 15.9239H65.6515ZM105.673 15.9239L100.961 0.712891L96.2491 15.9239H81.0034L93.3381 25.3243L88.6262 40.5374L100.961 31.1329L113.296 40.5374L108.584 25.3243L120.918 15.9239H105.673ZM145.694 15.9239L140.982 0.712891L136.27 15.9239H121.025L133.36 25.3243L128.647 40.5374L140.982 31.1329L153.317 40.5374L148.605 25.3243L160.94 15.9239H145.694ZM181.004 0.712891L176.292 15.9239H161.046L173.381 25.3243L168.669 40.5374L181.004 31.1329L193.338 40.5374L188.626 25.3243L200.961 15.9239H185.716L181.004 0.712891Z" fill="#FDA700"/>
</svg>
