<svg width="30" height="30" viewBox="0 0 30 30" fill="none" xmlns="http://www.w3.org/2000/svg">
<path fill-rule="evenodd" clip-rule="evenodd" d="M4.08935 5.10118C4.09218 5.10118 4.02144 5.17474 3.93232 5.26245C3.58998 5.59489 2.88124 6.28665 2.87409 7.73384C2.86285 9.7582 4.19403 13.5169 10.6038 19.9253C16.9839 26.3025 20.7369 27.6493 22.7655 27.6493H22.7953C24.2424 27.6422 24.9328 26.932 25.2666 26.5911C25.3685 26.4864 25.4505 26.41 25.5086 26.3619C26.9175 24.9445 27.639 23.8891 27.632 23.2129C27.622 22.5226 26.7633 21.7063 25.5765 20.5774C25.1987 20.2181 24.7885 19.8277 24.3556 19.3948C23.2338 18.2758 22.6778 18.4668 21.4556 18.8968C19.7651 19.4896 17.4451 20.2959 13.8405 16.69C10.2303 13.0826 11.0381 10.7654 11.6294 9.07493C12.0567 7.85267 12.2519 7.2953 11.1286 6.17207C10.6887 5.73352 10.294 5.31762 9.93043 4.93566C8.80862 3.75585 7.99944 2.90281 7.31333 2.89291H7.30202C6.6244 2.89291 5.5719 3.61721 4.08227 5.10684C4.08652 5.10259 4.08793 5.10118 4.08935 5.10118ZM22.767 29.7712C19.2417 29.7712 14.6455 26.9646 9.10428 21.4262C3.54188 15.8652 0.730971 11.2549 0.752071 7.72252C0.764922 5.38835 1.98859 4.19297 2.44835 3.74453C2.4724 3.71482 2.55445 3.63419 2.58275 3.60589C4.61135 1.57587 5.97932 0.755375 7.34021 0.770719C8.92037 0.792155 10.045 1.9748 11.4682 3.47292C11.8204 3.84355 12.2024 4.24673 12.6282 4.67112C14.6936 6.73651 14.1051 8.42136 13.6326 9.77376C13.1176 11.2492 12.672 12.5224 15.3401 15.1905C18.0109 17.8585 19.2841 17.4129 20.7539 16.8937C22.1077 16.4212 23.7883 15.8299 25.8566 17.8953C26.2753 18.314 26.6728 18.6917 27.0392 19.0411C28.5444 20.4713 29.7327 21.6016 29.7528 23.1861C29.7695 24.537 28.949 25.9135 26.9232 27.9407L26.0263 27.3324L26.7846 28.0737C26.3361 28.5334 25.1422 29.7585 22.8066 29.7712H22.767Z" fill="#4C3E33"/>
</svg>
