<svg width="54" height="53" viewBox="0 0 54 53" fill="none" xmlns="http://www.w3.org/2000/svg">
<path opacity="0.3" d="M49.2272 45.5091C46.776 45.5091 45.4068 44.7075 44.413 44.1225C43.596 43.6458 43.088 43.3425 41.8735 43.3425C40.6368 43.3425 40.151 43.6241 39.3339 44.1225C38.3181 44.7075 36.971 45.5091 34.5197 45.5091C32.0685 45.5091 30.6993 44.7075 29.7055 44.1225C28.8885 43.6458 28.3805 43.3425 27.166 43.3425C25.9293 43.3425 25.4435 43.6241 24.6264 44.1225C23.6105 44.7075 22.2414 45.5091 19.7901 45.5091C17.3389 45.5091 15.9697 44.7075 14.976 44.1225C14.1589 43.6241 13.651 43.3425 12.4364 43.3425C11.2218 43.3425 10.7139 43.6241 9.8968 44.1225C8.88096 44.7075 7.5118 45.5091 5.06055 45.5091V41.1758C6.29721 41.1758 6.78305 40.8941 7.60013 40.3958C8.61596 39.8108 9.98513 39.0091 12.4364 39.0091C14.8876 39.0091 16.2568 39.8108 17.2505 40.3958C18.0676 40.8941 18.5535 41.1758 19.7901 41.1758C21.0268 41.1758 21.5126 40.8941 22.3297 40.3958C23.3455 39.8108 24.7147 39.0091 27.166 39.0091C29.6172 39.0091 30.9864 39.8108 31.9801 40.3958C32.7972 40.8725 33.3051 41.1758 34.5197 41.1758C35.7343 41.1758 36.2422 40.8941 37.0593 40.3958C38.053 39.8108 39.4222 39.0091 41.8735 39.0091C44.3247 39.0091 45.6939 39.8108 46.6876 40.3958C47.5047 40.8941 47.9905 41.1758 49.2272 41.1758V45.5091ZM49.2272 35.7591C46.776 35.7591 45.4068 34.9575 44.413 34.3725C43.596 33.8958 43.088 33.5925 41.8735 33.5925C40.6368 33.5925 40.151 33.8741 39.3339 34.3725C38.3401 34.9575 36.971 35.7591 34.5197 35.7591C32.0685 35.7591 30.6993 34.9575 29.7055 34.3725C28.8885 33.8958 28.3805 33.5925 27.166 33.5925C25.9293 33.5925 25.4435 33.8741 24.6264 34.3725C23.6326 34.9575 22.2635 35.7591 19.8122 35.7591C17.361 35.7591 15.9918 34.9575 14.998 34.3725C14.181 33.8958 13.673 33.5925 12.4585 33.5925C11.2439 33.5925 10.736 33.8741 9.91888 34.3725C8.88096 34.9575 7.5118 35.7591 5.06055 35.7591V31.4258C6.29721 31.4258 6.78305 31.1441 7.60013 30.6458C8.59388 30.0608 9.96305 29.2591 12.4143 29.2591C14.8655 29.2591 16.2347 30.0608 17.2285 30.6458C18.0455 31.1225 18.5535 31.4258 19.768 31.4258C21.0047 31.4258 21.4905 31.1441 22.3076 30.6458C23.3014 30.0608 24.6705 29.2591 27.1218 29.2591C29.573 29.2591 30.9422 30.0608 31.936 30.6458C32.753 31.1225 33.261 31.4258 34.4755 31.4258C35.6901 31.4258 36.198 31.1441 37.0151 30.6458C38.0089 30.0608 39.378 29.2591 41.8293 29.2591C44.2805 29.2591 45.6497 30.0608 46.6435 30.6458C47.4605 31.1225 47.9685 31.4258 49.183 31.4258V35.7591H49.2272ZM19.7901 26.0091C21.0268 26.0091 21.5126 25.7275 22.3297 25.2291C23.3455 24.6441 24.7147 23.8425 27.166 23.8425C29.6172 23.8425 30.9864 24.6441 31.9801 25.2291C32.7972 25.7058 33.3051 26.0091 34.5197 26.0091C35.7343 26.0091 36.2422 25.7275 37.0593 25.2291C37.3243 25.0775 37.6335 24.9041 37.9647 24.7308L23.7872 10.8425C20.3643 7.48413 17.2064 6.48747 11.6855 6.50913V11.9258C15.7047 11.9041 18.0676 12.7708 20.5189 15.1758L22.7272 17.3425L15.5501 24.3841C16.2347 24.6441 16.7868 24.9691 17.2505 25.2291C18.0676 25.7275 18.5535 26.0091 19.7901 26.0091Z" fill="black"/>
<path opacity="0.3" d="M37.0814 17.3421C40.1305 17.3421 42.6022 14.917 42.6022 11.9255C42.6022 8.93391 40.1305 6.50879 37.0814 6.50879C34.0323 6.50879 31.5605 8.93391 31.5605 11.9255C31.5605 14.917 34.0323 17.3421 37.0814 17.3421Z" fill="black"/>
<path d="M49.2272 35.7591H49.183H49.2272ZM22.7272 17.3425L15.5501 24.3841C16.2347 24.6441 16.7868 24.9691 17.2505 25.2291C18.0676 25.7275 18.5535 26.0091 19.7901 26.0091C21.0268 26.0091 21.5126 25.7275 22.3297 25.2291C23.3455 24.6441 24.7147 23.8425 27.166 23.8425C29.6172 23.8425 30.9864 24.6441 31.9801 25.2291C32.7972 25.7058 33.3051 26.0091 34.5197 26.0091C35.7343 26.0091 36.2422 25.7275 37.0593 25.2291C37.3243 25.0775 37.6335 24.9041 37.9647 24.7308L23.7872 10.8425C20.3643 7.48413 17.2064 6.48747 11.6855 6.50913V11.9258C15.7047 11.9041 18.0676 12.7708 20.5189 15.1758L22.7272 17.3425ZM12.4585 33.5925C13.673 33.5925 14.181 33.8958 14.998 34.3725C15.9918 34.9575 17.361 35.7591 19.8122 35.7591C22.2635 35.7591 23.6326 34.9575 24.6264 34.3725C25.4435 33.8741 25.9293 33.5925 27.166 33.5925C28.3805 33.5925 28.8885 33.8958 29.7055 34.3725C30.6993 34.9575 32.0685 35.7591 34.5197 35.7591C36.971 35.7591 38.3401 34.9575 39.3339 34.3725C40.151 33.8741 40.6368 33.5925 41.8735 33.5925C43.088 33.5925 43.596 33.8958 44.413 34.3725C45.4068 34.9575 46.7539 35.7375 49.183 35.7591V31.4258C47.9685 31.4258 47.4605 31.1225 46.6435 30.6458C45.6497 30.0608 44.2805 29.2591 41.8293 29.2591C39.378 29.2591 38.0089 30.0608 37.0151 30.6458C36.198 31.1441 35.6901 31.4258 34.4755 31.4258C33.261 31.4258 32.753 31.1225 31.936 30.6458C30.9422 30.0608 29.573 29.2591 27.1218 29.2591C24.6705 29.2591 23.3014 30.0608 22.3076 30.6458C21.4905 31.1441 21.0047 31.4258 19.768 31.4258C18.5535 31.4258 18.0455 31.1225 17.2285 30.6458C16.2347 30.0608 14.8655 29.2591 12.4143 29.2591C9.96305 29.2591 8.59388 30.0608 7.60013 30.6458C6.78305 31.1441 6.29721 31.4258 5.06055 31.4258V35.7591C7.5118 35.7591 8.88096 34.9575 9.91888 34.3725C10.736 33.8741 11.2439 33.5925 12.4585 33.5925V33.5925ZM41.8735 39.0091C39.4222 39.0091 38.053 39.8108 37.0593 40.3958C36.2422 40.8941 35.7343 41.1758 34.5197 41.1758C33.3051 41.1758 32.7972 40.8725 31.9801 40.3958C30.9864 39.8108 29.6172 39.0091 27.166 39.0091C24.7147 39.0091 23.3455 39.8108 22.3297 40.3958C21.5126 40.8941 21.0268 41.1758 19.7901 41.1758C18.5535 41.1758 18.0676 40.8941 17.2505 40.3958C16.2568 39.8108 14.8876 39.0091 12.4364 39.0091C9.98513 39.0091 8.61596 39.8108 7.60013 40.3958C6.78305 40.8941 6.29721 41.1758 5.06055 41.1758V45.5091C7.5118 45.5091 8.88096 44.7075 9.8968 44.1225C10.7139 43.6241 11.2218 43.3425 12.4364 43.3425C13.651 43.3425 14.1589 43.6241 14.976 44.1225C15.9697 44.7075 17.3389 45.5091 19.7901 45.5091C22.2414 45.5091 23.6105 44.7075 24.6264 44.1225C25.4435 43.6241 25.9293 43.3425 27.166 43.3425C28.3805 43.3425 28.8885 43.6458 29.7055 44.1225C30.6993 44.7075 32.0685 45.5091 34.5197 45.5091C36.971 45.5091 38.3181 44.7075 39.3339 44.1225C40.151 43.6241 40.6368 43.3425 41.8735 43.3425C43.088 43.3425 43.596 43.6458 44.413 44.1225C45.4068 44.7075 46.776 45.5091 49.2272 45.5091V41.1758C47.9905 41.1758 47.5047 40.8941 46.6876 40.3958C45.6939 39.8108 44.3247 39.0091 41.8735 39.0091Z" fill="#1E5AB4"/>
<path d="M37.0814 17.3421C40.1305 17.3421 42.6022 14.917 42.6022 11.9255C42.6022 8.93391 40.1305 6.50879 37.0814 6.50879C34.0323 6.50879 31.5605 8.93391 31.5605 11.9255C31.5605 14.917 34.0323 17.3421 37.0814 17.3421Z" fill="#1E5AB4"/>
</svg>
