<svg width="54" height="53" viewBox="0 0 54 53" fill="none" xmlns="http://www.w3.org/2000/svg">
<path opacity="0.3" d="M49.2267 45.5091C46.7755 45.5091 45.4063 44.7075 44.4126 44.1225C43.5955 43.6458 43.0876 43.3425 41.873 43.3425C40.6363 43.3425 40.1505 43.6241 39.3334 44.1225C38.3176 44.7075 36.9705 45.5091 34.5192 45.5091C32.068 45.5091 30.6988 44.7075 29.7051 44.1225C28.888 43.6458 28.3801 43.3425 27.1655 43.3425C25.9288 43.3425 25.443 43.6241 24.6259 44.1225C23.6101 44.7075 22.2409 45.5091 19.7896 45.5091C17.3384 45.5091 15.9692 44.7075 14.9755 44.1225C14.1584 43.6241 13.6505 43.3425 12.4359 43.3425C11.2213 43.3425 10.7134 43.6241 9.89631 44.1225C8.88048 44.7075 7.51131 45.5091 5.06006 45.5091V41.1758C6.29673 41.1758 6.78256 40.8941 7.59964 40.3958C8.61548 39.8108 9.98464 39.0091 12.4359 39.0091C14.8871 39.0091 16.2563 39.8108 17.2501 40.3958C18.0671 40.8941 18.553 41.1758 19.7896 41.1758C21.0263 41.1758 21.5121 40.8941 22.3292 40.3958C23.3451 39.8108 24.7142 39.0091 27.1655 39.0091C29.6167 39.0091 30.9859 39.8108 31.9796 40.3958C32.7967 40.8725 33.3046 41.1758 34.5192 41.1758C35.7338 41.1758 36.2417 40.8941 37.0588 40.3958C38.0526 39.8108 39.4217 39.0091 41.873 39.0091C44.3242 39.0091 45.6934 39.8108 46.6871 40.3958C47.5042 40.8941 47.9901 41.1758 49.2267 41.1758V45.5091ZM49.2267 35.7591C46.7755 35.7591 45.4063 34.9575 44.4126 34.3725C43.5955 33.8958 43.0876 33.5925 41.873 33.5925C40.6363 33.5925 40.1505 33.8741 39.3334 34.3725C38.3396 34.9575 36.9705 35.7591 34.5192 35.7591C32.068 35.7591 30.6988 34.9575 29.7051 34.3725C28.888 33.8958 28.3801 33.5925 27.1655 33.5925C25.9288 33.5925 25.443 33.8741 24.6259 34.3725C23.6321 34.9575 22.263 35.7591 19.8117 35.7591C17.3605 35.7591 15.9913 34.9575 14.9976 34.3725C14.1805 33.8958 13.6726 33.5925 12.458 33.5925C11.2434 33.5925 10.7355 33.8741 9.91839 34.3725C8.88048 34.9575 7.51131 35.7591 5.06006 35.7591V31.4258C6.29673 31.4258 6.78256 31.1441 7.59964 30.6458C8.59339 30.0608 9.96256 29.2591 12.4138 29.2591C14.8651 29.2591 16.2342 30.0608 17.228 30.6458C18.0451 31.1225 18.553 31.4258 19.7676 31.4258C21.0042 31.4258 21.4901 31.1441 22.3071 30.6458C23.3009 30.0608 24.6701 29.2591 27.1213 29.2591C29.5726 29.2591 30.9417 30.0608 31.9355 30.6458C32.7526 31.1225 33.2605 31.4258 34.4751 31.4258C35.6896 31.4258 36.1976 31.1441 37.0146 30.6458C38.0084 30.0608 39.3776 29.2591 41.8288 29.2591C44.2801 29.2591 45.6492 30.0608 46.643 30.6458C47.4601 31.1225 47.968 31.4258 49.1826 31.4258V35.7591H49.2267ZM19.7896 26.0091C21.0263 26.0091 21.5121 25.7275 22.3292 25.2291C23.3451 24.6441 24.7142 23.8425 27.1655 23.8425C29.6167 23.8425 30.9859 24.6441 31.9796 25.2291C32.7967 25.7058 33.3046 26.0091 34.5192 26.0091C35.7338 26.0091 36.2417 25.7275 37.0588 25.2291C37.3238 25.0775 37.633 24.9041 37.9642 24.7308L23.7867 10.8425C20.3638 7.48413 17.2059 6.48747 11.6851 6.50913V11.9258C15.7042 11.9041 18.0671 12.7708 20.5184 15.1758L22.7267 17.3425L15.5496 24.3841C16.2342 24.6441 16.7863 24.9691 17.2501 25.2291C18.0671 25.7275 18.553 26.0091 19.7896 26.0091Z" fill="black"/>
<path opacity="0.3" d="M37.0809 17.3421C40.13 17.3421 42.6017 14.917 42.6017 11.9255C42.6017 8.93391 40.13 6.50879 37.0809 6.50879C34.0318 6.50879 31.5601 8.93391 31.5601 11.9255C31.5601 14.917 34.0318 17.3421 37.0809 17.3421Z" fill="black"/>
<path d="M49.2267 35.7591H49.1826H49.2267ZM22.7267 17.3425L15.5496 24.3841C16.2342 24.6441 16.7863 24.9691 17.2501 25.2291C18.0671 25.7275 18.553 26.0091 19.7896 26.0091C21.0263 26.0091 21.5121 25.7275 22.3292 25.2291C23.3451 24.6441 24.7142 23.8425 27.1655 23.8425C29.6167 23.8425 30.9859 24.6441 31.9796 25.2291C32.7967 25.7058 33.3046 26.0091 34.5192 26.0091C35.7338 26.0091 36.2417 25.7275 37.0588 25.2291C37.3238 25.0775 37.633 24.9041 37.9642 24.7308L23.7867 10.8425C20.3638 7.48413 17.2059 6.48747 11.6851 6.50913V11.9258C15.7042 11.9041 18.0671 12.7708 20.5184 15.1758L22.7267 17.3425ZM12.458 33.5925C13.6726 33.5925 14.1805 33.8958 14.9976 34.3725C15.9913 34.9575 17.3605 35.7591 19.8117 35.7591C22.263 35.7591 23.6321 34.9575 24.6259 34.3725C25.443 33.8741 25.9288 33.5925 27.1655 33.5925C28.3801 33.5925 28.888 33.8958 29.7051 34.3725C30.6988 34.9575 32.068 35.7591 34.5192 35.7591C36.9705 35.7591 38.3396 34.9575 39.3334 34.3725C40.1505 33.8741 40.6363 33.5925 41.873 33.5925C43.0876 33.5925 43.5955 33.8958 44.4126 34.3725C45.4063 34.9575 46.7534 35.7375 49.1826 35.7591V31.4258C47.968 31.4258 47.4601 31.1225 46.643 30.6458C45.6492 30.0608 44.2801 29.2591 41.8288 29.2591C39.3776 29.2591 38.0084 30.0608 37.0146 30.6458C36.1976 31.1441 35.6896 31.4258 34.4751 31.4258C33.2605 31.4258 32.7526 31.1225 31.9355 30.6458C30.9417 30.0608 29.5726 29.2591 27.1213 29.2591C24.6701 29.2591 23.3009 30.0608 22.3071 30.6458C21.4901 31.1441 21.0042 31.4258 19.7676 31.4258C18.553 31.4258 18.0451 31.1225 17.228 30.6458C16.2342 30.0608 14.8651 29.2591 12.4138 29.2591C9.96256 29.2591 8.59339 30.0608 7.59964 30.6458C6.78256 31.1441 6.29673 31.4258 5.06006 31.4258V35.7591C7.51131 35.7591 8.88048 34.9575 9.91839 34.3725C10.7355 33.8741 11.2434 33.5925 12.458 33.5925V33.5925ZM41.873 39.0091C39.4217 39.0091 38.0526 39.8108 37.0588 40.3958C36.2417 40.8941 35.7338 41.1758 34.5192 41.1758C33.3046 41.1758 32.7967 40.8725 31.9796 40.3958C30.9859 39.8108 29.6167 39.0091 27.1655 39.0091C24.7142 39.0091 23.3451 39.8108 22.3292 40.3958C21.5121 40.8941 21.0263 41.1758 19.7896 41.1758C18.553 41.1758 18.0671 40.8941 17.2501 40.3958C16.2563 39.8108 14.8871 39.0091 12.4359 39.0091C9.98464 39.0091 8.61548 39.8108 7.59964 40.3958C6.78256 40.8941 6.29673 41.1758 5.06006 41.1758V45.5091C7.51131 45.5091 8.88048 44.7075 9.89631 44.1225C10.7134 43.6241 11.2213 43.3425 12.4359 43.3425C13.6505 43.3425 14.1584 43.6241 14.9755 44.1225C15.9692 44.7075 17.3384 45.5091 19.7896 45.5091C22.2409 45.5091 23.6101 44.7075 24.6259 44.1225C25.443 43.6241 25.9288 43.3425 27.1655 43.3425C28.3801 43.3425 28.888 43.6458 29.7051 44.1225C30.6988 44.7075 32.068 45.5091 34.5192 45.5091C36.9705 45.5091 38.3176 44.7075 39.3334 44.1225C40.1505 43.6241 40.6363 43.3425 41.873 43.3425C43.0876 43.3425 43.5955 43.6458 44.4126 44.1225C45.4063 44.7075 46.7755 45.5091 49.2267 45.5091V41.1758C47.9901 41.1758 47.5042 40.8941 46.6871 40.3958C45.6934 39.8108 44.3242 39.0091 41.873 39.0091Z" fill="#1E5AB4"/>
<path d="M37.0809 17.3421C40.13 17.3421 42.6017 14.917 42.6017 11.9255C42.6017 8.93391 40.13 6.50879 37.0809 6.50879C34.0318 6.50879 31.5601 8.93391 31.5601 11.9255C31.5601 14.917 34.0318 17.3421 37.0809 17.3421Z" fill="#1E5AB4"/>
</svg>
