<svg width="54" height="53" viewBox="0 0 54 53" fill="none" xmlns="http://www.w3.org/2000/svg">
<path opacity="0.3" d="M49.2272 46.4535C46.776 46.4535 45.4068 45.6518 44.413 45.0668C43.596 44.5901 43.088 44.2868 41.8735 44.2868C40.6368 44.2868 40.151 44.5685 39.3339 45.0668C38.3181 45.6518 36.971 46.4535 34.5197 46.4535C32.0685 46.4535 30.6993 45.6518 29.7055 45.0668C28.8885 44.5901 28.3805 44.2868 27.166 44.2868C25.9293 44.2868 25.4435 44.5685 24.6264 45.0668C23.6105 45.6518 22.2414 46.4535 19.7901 46.4535C17.3389 46.4535 15.9697 45.6518 14.976 45.0668C14.1589 44.5685 13.651 44.2868 12.4364 44.2868C11.2218 44.2868 10.7139 44.5685 9.8968 45.0668C8.88096 45.6518 7.5118 46.4535 5.06055 46.4535V42.1201C6.29721 42.1201 6.78305 41.8385 7.60013 41.3401C8.61596 40.7551 9.98513 39.9535 12.4364 39.9535C14.8876 39.9535 16.2568 40.7551 17.2505 41.3401C18.0676 41.8385 18.5535 42.1201 19.7901 42.1201C21.0268 42.1201 21.5126 41.8385 22.3297 41.3401C23.3455 40.7551 24.7147 39.9535 27.166 39.9535C29.6172 39.9535 30.9864 40.7551 31.9801 41.3401C32.7972 41.8168 33.3051 42.1201 34.5197 42.1201C35.7343 42.1201 36.2422 41.8385 37.0593 41.3401C38.053 40.7551 39.4222 39.9535 41.8735 39.9535C44.3247 39.9535 45.6939 40.7551 46.6876 41.3401C47.5047 41.8385 47.9905 42.1201 49.2272 42.1201V46.4535ZM49.2272 36.7035C46.776 36.7035 45.4068 35.9018 44.413 35.3168C43.596 34.8401 43.088 34.5368 41.8735 34.5368C40.6368 34.5368 40.151 34.8185 39.3339 35.3168C38.3401 35.9018 36.971 36.7035 34.5197 36.7035C32.0685 36.7035 30.6993 35.9018 29.7055 35.3168C28.8885 34.8401 28.3805 34.5368 27.166 34.5368C25.9293 34.5368 25.4435 34.8185 24.6264 35.3168C23.6326 35.9018 22.2635 36.7035 19.8122 36.7035C17.361 36.7035 15.9918 35.9018 14.998 35.3168C14.181 34.8401 13.673 34.5368 12.4585 34.5368C11.2439 34.5368 10.736 34.8185 9.91888 35.3168C8.88096 35.9018 7.5118 36.7035 5.06055 36.7035V32.3701C6.29721 32.3701 6.78305 32.0885 7.60013 31.5901C8.59388 31.0051 9.96305 30.2035 12.4143 30.2035C14.8655 30.2035 16.2347 31.0051 17.2285 31.5901C18.0455 32.0668 18.5535 32.3701 19.768 32.3701C21.0047 32.3701 21.4905 32.0885 22.3076 31.5901C23.3014 31.0051 24.6705 30.2035 27.1218 30.2035C29.573 30.2035 30.9422 31.0051 31.936 31.5901C32.753 32.0668 33.261 32.3701 34.4755 32.3701C35.6901 32.3701 36.198 32.0885 37.0151 31.5901C38.0089 31.0051 39.378 30.2035 41.8293 30.2035C44.2805 30.2035 45.6497 31.0051 46.6435 31.5901C47.4605 32.0668 47.9685 32.3701 49.183 32.3701V36.7035H49.2272ZM19.7901 26.9535C21.0268 26.9535 21.5126 26.6718 22.3297 26.1735C23.3455 25.5885 24.7147 24.7868 27.166 24.7868C29.6172 24.7868 30.9864 25.5885 31.9801 26.1735C32.7972 26.6501 33.3051 26.9535 34.5197 26.9535C35.7343 26.9535 36.2422 26.6718 37.0593 26.1735C37.3243 26.0218 37.6335 25.8485 37.9647 25.6751L23.7872 11.7868C20.3643 8.42847 17.2064 7.4318 11.6855 7.45347V12.8701C15.7047 12.8485 18.0676 13.7151 20.5189 16.1201L22.7272 18.2868L15.5501 25.3285C16.2347 25.5885 16.7868 25.9135 17.2505 26.1735C18.0676 26.6718 18.5535 26.9535 19.7901 26.9535Z" fill="black"/>
<path opacity="0.3" d="M37.0814 18.2865C40.1305 18.2865 42.6022 15.8613 42.6022 12.8698C42.6022 9.87825 40.1305 7.45312 37.0814 7.45312C34.0323 7.45312 31.5605 9.87825 31.5605 12.8698C31.5605 15.8613 34.0323 18.2865 37.0814 18.2865Z" fill="black"/>
<path d="M49.2272 36.7035H49.183H49.2272ZM22.7272 18.2868L15.5501 25.3285C16.2347 25.5885 16.7868 25.9135 17.2505 26.1735C18.0676 26.6718 18.5535 26.9535 19.7901 26.9535C21.0268 26.9535 21.5126 26.6718 22.3297 26.1735C23.3455 25.5885 24.7147 24.7868 27.166 24.7868C29.6172 24.7868 30.9864 25.5885 31.9801 26.1735C32.7972 26.6501 33.3051 26.9535 34.5197 26.9535C35.7343 26.9535 36.2422 26.6718 37.0593 26.1735C37.3243 26.0218 37.6335 25.8485 37.9647 25.6751L23.7872 11.7868C20.3643 8.42847 17.2064 7.4318 11.6855 7.45347V12.8701C15.7047 12.8485 18.0676 13.7151 20.5189 16.1201L22.7272 18.2868ZM12.4585 34.5368C13.673 34.5368 14.181 34.8401 14.998 35.3168C15.9918 35.9018 17.361 36.7035 19.8122 36.7035C22.2635 36.7035 23.6326 35.9018 24.6264 35.3168C25.4435 34.8185 25.9293 34.5368 27.166 34.5368C28.3805 34.5368 28.8885 34.8401 29.7055 35.3168C30.6993 35.9018 32.0685 36.7035 34.5197 36.7035C36.971 36.7035 38.3401 35.9018 39.3339 35.3168C40.151 34.8185 40.6368 34.5368 41.8735 34.5368C43.088 34.5368 43.596 34.8401 44.413 35.3168C45.4068 35.9018 46.7539 36.6818 49.183 36.7035V32.3701C47.9685 32.3701 47.4605 32.0668 46.6435 31.5901C45.6497 31.0051 44.2805 30.2035 41.8293 30.2035C39.378 30.2035 38.0089 31.0051 37.0151 31.5901C36.198 32.0885 35.6901 32.3701 34.4755 32.3701C33.261 32.3701 32.753 32.0668 31.936 31.5901C30.9422 31.0051 29.573 30.2035 27.1218 30.2035C24.6705 30.2035 23.3014 31.0051 22.3076 31.5901C21.4905 32.0885 21.0047 32.3701 19.768 32.3701C18.5535 32.3701 18.0455 32.0668 17.2285 31.5901C16.2347 31.0051 14.8655 30.2035 12.4143 30.2035C9.96305 30.2035 8.59388 31.0051 7.60013 31.5901C6.78305 32.0885 6.29721 32.3701 5.06055 32.3701V36.7035C7.5118 36.7035 8.88096 35.9018 9.91888 35.3168C10.736 34.8185 11.2439 34.5368 12.4585 34.5368V34.5368ZM41.8735 39.9535C39.4222 39.9535 38.053 40.7551 37.0593 41.3401C36.2422 41.8385 35.7343 42.1201 34.5197 42.1201C33.3051 42.1201 32.7972 41.8168 31.9801 41.3401C30.9864 40.7551 29.6172 39.9535 27.166 39.9535C24.7147 39.9535 23.3455 40.7551 22.3297 41.3401C21.5126 41.8385 21.0268 42.1201 19.7901 42.1201C18.5535 42.1201 18.0676 41.8385 17.2505 41.3401C16.2568 40.7551 14.8876 39.9535 12.4364 39.9535C9.98513 39.9535 8.61596 40.7551 7.60013 41.3401C6.78305 41.8385 6.29721 42.1201 5.06055 42.1201V46.4535C7.5118 46.4535 8.88096 45.6518 9.8968 45.0668C10.7139 44.5685 11.2218 44.2868 12.4364 44.2868C13.651 44.2868 14.1589 44.5685 14.976 45.0668C15.9697 45.6518 17.3389 46.4535 19.7901 46.4535C22.2414 46.4535 23.6105 45.6518 24.6264 45.0668C25.4435 44.5685 25.9293 44.2868 27.166 44.2868C28.3805 44.2868 28.8885 44.5901 29.7055 45.0668C30.6993 45.6518 32.0685 46.4535 34.5197 46.4535C36.971 46.4535 38.3181 45.6518 39.3339 45.0668C40.151 44.5685 40.6368 44.2868 41.8735 44.2868C43.088 44.2868 43.596 44.5901 44.413 45.0668C45.4068 45.6518 46.776 46.4535 49.2272 46.4535V42.1201C47.9905 42.1201 47.5047 41.8385 46.6876 41.3401C45.6939 40.7551 44.3247 39.9535 41.8735 39.9535Z" fill="#1E5AB4"/>
<path d="M37.0814 18.2865C40.1305 18.2865 42.6022 15.8613 42.6022 12.8698C42.6022 9.87825 40.1305 7.45312 37.0814 7.45312C34.0323 7.45312 31.5605 9.87825 31.5605 12.8698C31.5605 15.8613 34.0323 18.2865 37.0814 18.2865Z" fill="#1E5AB4"/>
</svg>
