<svg width="54" height="53" viewBox="0 0 54 53" fill="none" xmlns="http://www.w3.org/2000/svg">
<path opacity="0.3" d="M49.2272 46.3958C46.776 46.3958 45.4068 45.5942 44.413 45.0092C43.596 44.5325 43.088 44.2292 41.8735 44.2292C40.6368 44.2292 40.151 44.5108 39.3339 45.0092C38.3181 45.5942 36.971 46.3958 34.5197 46.3958C32.0685 46.3958 30.6993 45.5942 29.7055 45.0092C28.8885 44.5325 28.3805 44.2292 27.166 44.2292C25.9293 44.2292 25.4435 44.5108 24.6264 45.0092C23.6105 45.5942 22.2414 46.3958 19.7901 46.3958C17.3389 46.3958 15.9697 45.5942 14.976 45.0092C14.1589 44.5108 13.651 44.2292 12.4364 44.2292C11.2218 44.2292 10.7139 44.5108 9.8968 45.0092C8.88096 45.5942 7.5118 46.3958 5.06055 46.3958V42.0625C6.29721 42.0625 6.78305 41.7808 7.60013 41.2825C8.61596 40.6975 9.98513 39.8959 12.4364 39.8959C14.8876 39.8959 16.2568 40.6975 17.2505 41.2825C18.0676 41.7808 18.5535 42.0625 19.7901 42.0625C21.0268 42.0625 21.5126 41.7808 22.3297 41.2825C23.3455 40.6975 24.7147 39.8959 27.166 39.8959C29.6172 39.8959 30.9864 40.6975 31.9801 41.2825C32.7972 41.7592 33.3051 42.0625 34.5197 42.0625C35.7343 42.0625 36.2422 41.7808 37.0593 41.2825C38.053 40.6975 39.4222 39.8959 41.8735 39.8959C44.3247 39.8959 45.6939 40.6975 46.6876 41.2825C47.5047 41.7808 47.9905 42.0625 49.2272 42.0625V46.3958ZM49.2272 36.6459C46.776 36.6459 45.4068 35.8442 44.413 35.2592C43.596 34.7825 43.088 34.4792 41.8735 34.4792C40.6368 34.4792 40.151 34.7609 39.3339 35.2592C38.3401 35.8442 36.971 36.6459 34.5197 36.6459C32.0685 36.6459 30.6993 35.8442 29.7055 35.2592C28.8885 34.7825 28.3805 34.4792 27.166 34.4792C25.9293 34.4792 25.4435 34.7609 24.6264 35.2592C23.6326 35.8442 22.2635 36.6459 19.8122 36.6459C17.361 36.6459 15.9918 35.8442 14.998 35.2592C14.181 34.7825 13.673 34.4792 12.4585 34.4792C11.2439 34.4792 10.736 34.7609 9.91888 35.2592C8.88096 35.8442 7.5118 36.6459 5.06055 36.6459V32.3125C6.29721 32.3125 6.78305 32.0309 7.60013 31.5325C8.59388 30.9475 9.96305 30.1459 12.4143 30.1459C14.8655 30.1459 16.2347 30.9475 17.2285 31.5325C18.0455 32.0092 18.5535 32.3125 19.768 32.3125C21.0047 32.3125 21.4905 32.0309 22.3076 31.5325C23.3014 30.9475 24.6705 30.1459 27.1218 30.1459C29.573 30.1459 30.9422 30.9475 31.936 31.5325C32.753 32.0092 33.261 32.3125 34.4755 32.3125C35.6901 32.3125 36.198 32.0309 37.0151 31.5325C38.0089 30.9475 39.378 30.1459 41.8293 30.1459C44.2805 30.1459 45.6497 30.9475 46.6435 31.5325C47.4605 32.0092 47.9685 32.3125 49.183 32.3125V36.6459H49.2272ZM19.7901 26.8959C21.0268 26.8959 21.5126 26.6142 22.3297 26.1159C23.3455 25.5309 24.7147 24.7292 27.166 24.7292C29.6172 24.7292 30.9864 25.5309 31.9801 26.1159C32.7972 26.5925 33.3051 26.8959 34.5197 26.8959C35.7343 26.8959 36.2422 26.6142 37.0593 26.1159C37.3243 25.9642 37.6335 25.7909 37.9647 25.6175L23.7872 11.7292C20.3643 8.37085 17.2064 7.37419 11.6855 7.39585V12.8125C15.7047 12.7909 18.0676 13.6575 20.5189 16.0625L22.7272 18.2292L15.5501 25.2709C16.2347 25.5309 16.7868 25.8559 17.2505 26.1159C18.0676 26.6142 18.5535 26.8959 19.7901 26.8959Z" fill="black"/>
<path opacity="0.3" d="M37.0814 18.2288C40.1305 18.2288 42.6022 15.8037 42.6022 12.8122C42.6022 9.82063 40.1305 7.39551 37.0814 7.39551C34.0323 7.39551 31.5605 9.82063 31.5605 12.8122C31.5605 15.8037 34.0323 18.2288 37.0814 18.2288Z" fill="black"/>
<path d="M49.2272 36.6459H49.183H49.2272ZM22.7272 18.2292L15.5501 25.2709C16.2347 25.5309 16.7868 25.8559 17.2505 26.1159C18.0676 26.6142 18.5535 26.8959 19.7901 26.8959C21.0268 26.8959 21.5126 26.6142 22.3297 26.1159C23.3455 25.5309 24.7147 24.7292 27.166 24.7292C29.6172 24.7292 30.9864 25.5309 31.9801 26.1159C32.7972 26.5925 33.3051 26.8959 34.5197 26.8959C35.7343 26.8959 36.2422 26.6142 37.0593 26.1159C37.3243 25.9642 37.6335 25.7909 37.9647 25.6175L23.7872 11.7292C20.3643 8.37085 17.2064 7.37419 11.6855 7.39585V12.8125C15.7047 12.7909 18.0676 13.6575 20.5189 16.0625L22.7272 18.2292ZM12.4585 34.4792C13.673 34.4792 14.181 34.7825 14.998 35.2592C15.9918 35.8442 17.361 36.6459 19.8122 36.6459C22.2635 36.6459 23.6326 35.8442 24.6264 35.2592C25.4435 34.7609 25.9293 34.4792 27.166 34.4792C28.3805 34.4792 28.8885 34.7825 29.7055 35.2592C30.6993 35.8442 32.0685 36.6459 34.5197 36.6459C36.971 36.6459 38.3401 35.8442 39.3339 35.2592C40.151 34.7609 40.6368 34.4792 41.8735 34.4792C43.088 34.4792 43.596 34.7825 44.413 35.2592C45.4068 35.8442 46.7539 36.6242 49.183 36.6459V32.3125C47.9685 32.3125 47.4605 32.0092 46.6435 31.5325C45.6497 30.9475 44.2805 30.1459 41.8293 30.1459C39.378 30.1459 38.0089 30.9475 37.0151 31.5325C36.198 32.0309 35.6901 32.3125 34.4755 32.3125C33.261 32.3125 32.753 32.0092 31.936 31.5325C30.9422 30.9475 29.573 30.1459 27.1218 30.1459C24.6705 30.1459 23.3014 30.9475 22.3076 31.5325C21.4905 32.0309 21.0047 32.3125 19.768 32.3125C18.5535 32.3125 18.0455 32.0092 17.2285 31.5325C16.2347 30.9475 14.8655 30.1459 12.4143 30.1459C9.96305 30.1459 8.59388 30.9475 7.60013 31.5325C6.78305 32.0309 6.29721 32.3125 5.06055 32.3125V36.6459C7.5118 36.6459 8.88096 35.8442 9.91888 35.2592C10.736 34.7609 11.2439 34.4792 12.4585 34.4792V34.4792ZM41.8735 39.8959C39.4222 39.8959 38.053 40.6975 37.0593 41.2825C36.2422 41.7808 35.7343 42.0625 34.5197 42.0625C33.3051 42.0625 32.7972 41.7592 31.9801 41.2825C30.9864 40.6975 29.6172 39.8959 27.166 39.8959C24.7147 39.8959 23.3455 40.6975 22.3297 41.2825C21.5126 41.7808 21.0268 42.0625 19.7901 42.0625C18.5535 42.0625 18.0676 41.7808 17.2505 41.2825C16.2568 40.6975 14.8876 39.8959 12.4364 39.8959C9.98513 39.8959 8.61596 40.6975 7.60013 41.2825C6.78305 41.7808 6.29721 42.0625 5.06055 42.0625V46.3958C7.5118 46.3958 8.88096 45.5942 9.8968 45.0092C10.7139 44.5108 11.2218 44.2292 12.4364 44.2292C13.651 44.2292 14.1589 44.5108 14.976 45.0092C15.9697 45.5942 17.3389 46.3958 19.7901 46.3958C22.2414 46.3958 23.6105 45.5942 24.6264 45.0092C25.4435 44.5108 25.9293 44.2292 27.166 44.2292C28.3805 44.2292 28.8885 44.5325 29.7055 45.0092C30.6993 45.5942 32.0685 46.3958 34.5197 46.3958C36.971 46.3958 38.3181 45.5942 39.3339 45.0092C40.151 44.5108 40.6368 44.2292 41.8735 44.2292C43.088 44.2292 43.596 44.5325 44.413 45.0092C45.4068 45.5942 46.776 46.3958 49.2272 46.3958V42.0625C47.9905 42.0625 47.5047 41.7808 46.6876 41.2825C45.6939 40.6975 44.3247 39.8959 41.8735 39.8959Z" fill="#1E5AB4"/>
<path d="M37.0814 18.2288C40.1305 18.2288 42.6022 15.8037 42.6022 12.8122C42.6022 9.82063 40.1305 7.39551 37.0814 7.39551C34.0323 7.39551 31.5605 9.82063 31.5605 12.8122C31.5605 15.8037 34.0323 18.2288 37.0814 18.2288Z" fill="#1E5AB4"/>
</svg>
