<svg width="54" height="53" viewBox="0 0 54 53" fill="none" xmlns="http://www.w3.org/2000/svg">
<path opacity="0.3" d="M49.2267 46.4535C46.7755 46.4535 45.4063 45.6518 44.4126 45.0668C43.5955 44.5901 43.0876 44.2868 41.873 44.2868C40.6363 44.2868 40.1505 44.5685 39.3334 45.0668C38.3176 45.6518 36.9705 46.4535 34.5192 46.4535C32.068 46.4535 30.6988 45.6518 29.7051 45.0668C28.888 44.5901 28.3801 44.2868 27.1655 44.2868C25.9288 44.2868 25.443 44.5685 24.6259 45.0668C23.6101 45.6518 22.2409 46.4535 19.7896 46.4535C17.3384 46.4535 15.9692 45.6518 14.9755 45.0668C14.1584 44.5685 13.6505 44.2868 12.4359 44.2868C11.2213 44.2868 10.7134 44.5685 9.89631 45.0668C8.88048 45.6518 7.51131 46.4535 5.06006 46.4535V42.1201C6.29673 42.1201 6.78256 41.8385 7.59964 41.3401C8.61548 40.7551 9.98464 39.9535 12.4359 39.9535C14.8871 39.9535 16.2563 40.7551 17.2501 41.3401C18.0671 41.8385 18.553 42.1201 19.7896 42.1201C21.0263 42.1201 21.5121 41.8385 22.3292 41.3401C23.3451 40.7551 24.7142 39.9535 27.1655 39.9535C29.6167 39.9535 30.9859 40.7551 31.9796 41.3401C32.7967 41.8168 33.3046 42.1201 34.5192 42.1201C35.7338 42.1201 36.2417 41.8385 37.0588 41.3401C38.0526 40.7551 39.4217 39.9535 41.873 39.9535C44.3242 39.9535 45.6934 40.7551 46.6871 41.3401C47.5042 41.8385 47.9901 42.1201 49.2267 42.1201V46.4535ZM49.2267 36.7035C46.7755 36.7035 45.4063 35.9018 44.4126 35.3168C43.5955 34.8401 43.0876 34.5368 41.873 34.5368C40.6363 34.5368 40.1505 34.8185 39.3334 35.3168C38.3396 35.9018 36.9705 36.7035 34.5192 36.7035C32.068 36.7035 30.6988 35.9018 29.7051 35.3168C28.888 34.8401 28.3801 34.5368 27.1655 34.5368C25.9288 34.5368 25.443 34.8185 24.6259 35.3168C23.6321 35.9018 22.263 36.7035 19.8117 36.7035C17.3605 36.7035 15.9913 35.9018 14.9976 35.3168C14.1805 34.8401 13.6726 34.5368 12.458 34.5368C11.2434 34.5368 10.7355 34.8185 9.91839 35.3168C8.88048 35.9018 7.51131 36.7035 5.06006 36.7035V32.3701C6.29673 32.3701 6.78256 32.0885 7.59964 31.5901C8.59339 31.0051 9.96256 30.2035 12.4138 30.2035C14.8651 30.2035 16.2342 31.0051 17.228 31.5901C18.0451 32.0668 18.553 32.3701 19.7676 32.3701C21.0042 32.3701 21.4901 32.0885 22.3071 31.5901C23.3009 31.0051 24.6701 30.2035 27.1213 30.2035C29.5726 30.2035 30.9417 31.0051 31.9355 31.5901C32.7526 32.0668 33.2605 32.3701 34.4751 32.3701C35.6896 32.3701 36.1976 32.0885 37.0146 31.5901C38.0084 31.0051 39.3776 30.2035 41.8288 30.2035C44.2801 30.2035 45.6492 31.0051 46.643 31.5901C47.4601 32.0668 47.968 32.3701 49.1826 32.3701V36.7035H49.2267ZM19.7896 26.9535C21.0263 26.9535 21.5121 26.6718 22.3292 26.1735C23.3451 25.5885 24.7142 24.7868 27.1655 24.7868C29.6167 24.7868 30.9859 25.5885 31.9796 26.1735C32.7967 26.6501 33.3046 26.9535 34.5192 26.9535C35.7338 26.9535 36.2417 26.6718 37.0588 26.1735C37.3238 26.0218 37.633 25.8485 37.9642 25.6751L23.7867 11.7868C20.3638 8.42847 17.2059 7.4318 11.6851 7.45347V12.8701C15.7042 12.8485 18.0671 13.7151 20.5184 16.1201L22.7267 18.2868L15.5496 25.3285C16.2342 25.5885 16.7863 25.9135 17.2501 26.1735C18.0671 26.6718 18.553 26.9535 19.7896 26.9535Z" fill="black"/>
<path opacity="0.3" d="M37.0809 18.2865C40.13 18.2865 42.6017 15.8613 42.6017 12.8698C42.6017 9.87825 40.13 7.45312 37.0809 7.45312C34.0318 7.45312 31.5601 9.87825 31.5601 12.8698C31.5601 15.8613 34.0318 18.2865 37.0809 18.2865Z" fill="black"/>
<path d="M49.2267 36.7035H49.1826H49.2267ZM22.7267 18.2868L15.5496 25.3285C16.2342 25.5885 16.7863 25.9135 17.2501 26.1735C18.0671 26.6718 18.553 26.9535 19.7896 26.9535C21.0263 26.9535 21.5121 26.6718 22.3292 26.1735C23.3451 25.5885 24.7142 24.7868 27.1655 24.7868C29.6167 24.7868 30.9859 25.5885 31.9796 26.1735C32.7967 26.6501 33.3046 26.9535 34.5192 26.9535C35.7338 26.9535 36.2417 26.6718 37.0588 26.1735C37.3238 26.0218 37.633 25.8485 37.9642 25.6751L23.7867 11.7868C20.3638 8.42847 17.2059 7.4318 11.6851 7.45347V12.8701C15.7042 12.8485 18.0671 13.7151 20.5184 16.1201L22.7267 18.2868ZM12.458 34.5368C13.6726 34.5368 14.1805 34.8401 14.9976 35.3168C15.9913 35.9018 17.3605 36.7035 19.8117 36.7035C22.263 36.7035 23.6321 35.9018 24.6259 35.3168C25.443 34.8185 25.9288 34.5368 27.1655 34.5368C28.3801 34.5368 28.888 34.8401 29.7051 35.3168C30.6988 35.9018 32.068 36.7035 34.5192 36.7035C36.9705 36.7035 38.3396 35.9018 39.3334 35.3168C40.1505 34.8185 40.6363 34.5368 41.873 34.5368C43.0876 34.5368 43.5955 34.8401 44.4126 35.3168C45.4063 35.9018 46.7534 36.6818 49.1826 36.7035V32.3701C47.968 32.3701 47.4601 32.0668 46.643 31.5901C45.6492 31.0051 44.2801 30.2035 41.8288 30.2035C39.3776 30.2035 38.0084 31.0051 37.0146 31.5901C36.1976 32.0885 35.6896 32.3701 34.4751 32.3701C33.2605 32.3701 32.7526 32.0668 31.9355 31.5901C30.9417 31.0051 29.5726 30.2035 27.1213 30.2035C24.6701 30.2035 23.3009 31.0051 22.3071 31.5901C21.4901 32.0885 21.0042 32.3701 19.7676 32.3701C18.553 32.3701 18.0451 32.0668 17.228 31.5901C16.2342 31.0051 14.8651 30.2035 12.4138 30.2035C9.96256 30.2035 8.59339 31.0051 7.59964 31.5901C6.78256 32.0885 6.29673 32.3701 5.06006 32.3701V36.7035C7.51131 36.7035 8.88048 35.9018 9.91839 35.3168C10.7355 34.8185 11.2434 34.5368 12.458 34.5368V34.5368ZM41.873 39.9535C39.4217 39.9535 38.0526 40.7551 37.0588 41.3401C36.2417 41.8385 35.7338 42.1201 34.5192 42.1201C33.3046 42.1201 32.7967 41.8168 31.9796 41.3401C30.9859 40.7551 29.6167 39.9535 27.1655 39.9535C24.7142 39.9535 23.3451 40.7551 22.3292 41.3401C21.5121 41.8385 21.0263 42.1201 19.7896 42.1201C18.553 42.1201 18.0671 41.8385 17.2501 41.3401C16.2563 40.7551 14.8871 39.9535 12.4359 39.9535C9.98464 39.9535 8.61548 40.7551 7.59964 41.3401C6.78256 41.8385 6.29673 42.1201 5.06006 42.1201V46.4535C7.51131 46.4535 8.88048 45.6518 9.89631 45.0668C10.7134 44.5685 11.2213 44.2868 12.4359 44.2868C13.6505 44.2868 14.1584 44.5685 14.9755 45.0668C15.9692 45.6518 17.3384 46.4535 19.7896 46.4535C22.2409 46.4535 23.6101 45.6518 24.6259 45.0668C25.443 44.5685 25.9288 44.2868 27.1655 44.2868C28.3801 44.2868 28.888 44.5901 29.7051 45.0668C30.6988 45.6518 32.068 46.4535 34.5192 46.4535C36.9705 46.4535 38.3176 45.6518 39.3334 45.0668C40.1505 44.5685 40.6363 44.2868 41.873 44.2868C43.0876 44.2868 43.5955 44.5901 44.4126 45.0668C45.4063 45.6518 46.7755 46.4535 49.2267 46.4535V42.1201C47.9901 42.1201 47.5042 41.8385 46.6871 41.3401C45.6934 40.7551 44.3242 39.9535 41.873 39.9535Z" fill="#1E5AB4"/>
<path d="M37.0809 18.2865C40.13 18.2865 42.6017 15.8613 42.6017 12.8698C42.6017 9.87825 40.13 7.45312 37.0809 7.45312C34.0318 7.45312 31.5601 9.87825 31.5601 12.8698C31.5601 15.8613 34.0318 18.2865 37.0809 18.2865Z" fill="#1E5AB4"/>
</svg>
