<svg width="54" height="53" viewBox="0 0 54 53" fill="none" xmlns="http://www.w3.org/2000/svg">
<path opacity="0.3" d="M49.2267 46.3958C46.7755 46.3958 45.4063 45.5942 44.4126 45.0092C43.5955 44.5325 43.0876 44.2292 41.873 44.2292C40.6363 44.2292 40.1505 44.5108 39.3334 45.0092C38.3176 45.5942 36.9705 46.3958 34.5192 46.3958C32.068 46.3958 30.6988 45.5942 29.7051 45.0092C28.888 44.5325 28.3801 44.2292 27.1655 44.2292C25.9288 44.2292 25.443 44.5108 24.6259 45.0092C23.6101 45.5942 22.2409 46.3958 19.7896 46.3958C17.3384 46.3958 15.9692 45.5942 14.9755 45.0092C14.1584 44.5108 13.6505 44.2292 12.4359 44.2292C11.2213 44.2292 10.7134 44.5108 9.89631 45.0092C8.88048 45.5942 7.51131 46.3958 5.06006 46.3958V42.0625C6.29673 42.0625 6.78256 41.7808 7.59964 41.2825C8.61548 40.6975 9.98464 39.8959 12.4359 39.8959C14.8871 39.8959 16.2563 40.6975 17.2501 41.2825C18.0671 41.7808 18.553 42.0625 19.7896 42.0625C21.0263 42.0625 21.5121 41.7808 22.3292 41.2825C23.3451 40.6975 24.7142 39.8959 27.1655 39.8959C29.6167 39.8959 30.9859 40.6975 31.9796 41.2825C32.7967 41.7592 33.3046 42.0625 34.5192 42.0625C35.7338 42.0625 36.2417 41.7808 37.0588 41.2825C38.0526 40.6975 39.4217 39.8959 41.873 39.8959C44.3242 39.8959 45.6934 40.6975 46.6871 41.2825C47.5042 41.7808 47.9901 42.0625 49.2267 42.0625V46.3958ZM49.2267 36.6459C46.7755 36.6459 45.4063 35.8442 44.4126 35.2592C43.5955 34.7825 43.0876 34.4792 41.873 34.4792C40.6363 34.4792 40.1505 34.7609 39.3334 35.2592C38.3396 35.8442 36.9705 36.6459 34.5192 36.6459C32.068 36.6459 30.6988 35.8442 29.7051 35.2592C28.888 34.7825 28.3801 34.4792 27.1655 34.4792C25.9288 34.4792 25.443 34.7609 24.6259 35.2592C23.6321 35.8442 22.263 36.6459 19.8117 36.6459C17.3605 36.6459 15.9913 35.8442 14.9976 35.2592C14.1805 34.7825 13.6726 34.4792 12.458 34.4792C11.2434 34.4792 10.7355 34.7609 9.91839 35.2592C8.88048 35.8442 7.51131 36.6459 5.06006 36.6459V32.3125C6.29673 32.3125 6.78256 32.0309 7.59964 31.5325C8.59339 30.9475 9.96256 30.1459 12.4138 30.1459C14.8651 30.1459 16.2342 30.9475 17.228 31.5325C18.0451 32.0092 18.553 32.3125 19.7676 32.3125C21.0042 32.3125 21.4901 32.0309 22.3071 31.5325C23.3009 30.9475 24.6701 30.1459 27.1213 30.1459C29.5726 30.1459 30.9417 30.9475 31.9355 31.5325C32.7526 32.0092 33.2605 32.3125 34.4751 32.3125C35.6896 32.3125 36.1976 32.0309 37.0146 31.5325C38.0084 30.9475 39.3776 30.1459 41.8288 30.1459C44.2801 30.1459 45.6492 30.9475 46.643 31.5325C47.4601 32.0092 47.968 32.3125 49.1826 32.3125V36.6459H49.2267ZM19.7896 26.8959C21.0263 26.8959 21.5121 26.6142 22.3292 26.1159C23.3451 25.5309 24.7142 24.7292 27.1655 24.7292C29.6167 24.7292 30.9859 25.5309 31.9796 26.1159C32.7967 26.5925 33.3046 26.8959 34.5192 26.8959C35.7338 26.8959 36.2417 26.6142 37.0588 26.1159C37.3238 25.9642 37.633 25.7909 37.9642 25.6175L23.7867 11.7292C20.3638 8.37085 17.2059 7.37419 11.6851 7.39585V12.8125C15.7042 12.7909 18.0671 13.6575 20.5184 16.0625L22.7267 18.2292L15.5496 25.2709C16.2342 25.5309 16.7863 25.8559 17.2501 26.1159C18.0671 26.6142 18.553 26.8959 19.7896 26.8959Z" fill="black"/>
<path opacity="0.3" d="M37.0809 18.2288C40.13 18.2288 42.6017 15.8037 42.6017 12.8122C42.6017 9.82063 40.13 7.39551 37.0809 7.39551C34.0318 7.39551 31.5601 9.82063 31.5601 12.8122C31.5601 15.8037 34.0318 18.2288 37.0809 18.2288Z" fill="black"/>
<path d="M49.2267 36.6459H49.1826H49.2267ZM22.7267 18.2292L15.5496 25.2709C16.2342 25.5309 16.7863 25.8559 17.2501 26.1159C18.0671 26.6142 18.553 26.8959 19.7896 26.8959C21.0263 26.8959 21.5121 26.6142 22.3292 26.1159C23.3451 25.5309 24.7142 24.7292 27.1655 24.7292C29.6167 24.7292 30.9859 25.5309 31.9796 26.1159C32.7967 26.5925 33.3046 26.8959 34.5192 26.8959C35.7338 26.8959 36.2417 26.6142 37.0588 26.1159C37.3238 25.9642 37.633 25.7909 37.9642 25.6175L23.7867 11.7292C20.3638 8.37085 17.2059 7.37419 11.6851 7.39585V12.8125C15.7042 12.7909 18.0671 13.6575 20.5184 16.0625L22.7267 18.2292ZM12.458 34.4792C13.6726 34.4792 14.1805 34.7825 14.9976 35.2592C15.9913 35.8442 17.3605 36.6459 19.8117 36.6459C22.263 36.6459 23.6321 35.8442 24.6259 35.2592C25.443 34.7609 25.9288 34.4792 27.1655 34.4792C28.3801 34.4792 28.888 34.7825 29.7051 35.2592C30.6988 35.8442 32.068 36.6459 34.5192 36.6459C36.9705 36.6459 38.3396 35.8442 39.3334 35.2592C40.1505 34.7609 40.6363 34.4792 41.873 34.4792C43.0876 34.4792 43.5955 34.7825 44.4126 35.2592C45.4063 35.8442 46.7534 36.6242 49.1826 36.6459V32.3125C47.968 32.3125 47.4601 32.0092 46.643 31.5325C45.6492 30.9475 44.2801 30.1459 41.8288 30.1459C39.3776 30.1459 38.0084 30.9475 37.0146 31.5325C36.1976 32.0309 35.6896 32.3125 34.4751 32.3125C33.2605 32.3125 32.7526 32.0092 31.9355 31.5325C30.9417 30.9475 29.5726 30.1459 27.1213 30.1459C24.6701 30.1459 23.3009 30.9475 22.3071 31.5325C21.4901 32.0309 21.0042 32.3125 19.7676 32.3125C18.553 32.3125 18.0451 32.0092 17.228 31.5325C16.2342 30.9475 14.8651 30.1459 12.4138 30.1459C9.96256 30.1459 8.59339 30.9475 7.59964 31.5325C6.78256 32.0309 6.29673 32.3125 5.06006 32.3125V36.6459C7.51131 36.6459 8.88048 35.8442 9.91839 35.2592C10.7355 34.7609 11.2434 34.4792 12.458 34.4792V34.4792ZM41.873 39.8959C39.4217 39.8959 38.0526 40.6975 37.0588 41.2825C36.2417 41.7808 35.7338 42.0625 34.5192 42.0625C33.3046 42.0625 32.7967 41.7592 31.9796 41.2825C30.9859 40.6975 29.6167 39.8959 27.1655 39.8959C24.7142 39.8959 23.3451 40.6975 22.3292 41.2825C21.5121 41.7808 21.0263 42.0625 19.7896 42.0625C18.553 42.0625 18.0671 41.7808 17.2501 41.2825C16.2563 40.6975 14.8871 39.8959 12.4359 39.8959C9.98464 39.8959 8.61548 40.6975 7.59964 41.2825C6.78256 41.7808 6.29673 42.0625 5.06006 42.0625V46.3958C7.51131 46.3958 8.88048 45.5942 9.89631 45.0092C10.7134 44.5108 11.2213 44.2292 12.4359 44.2292C13.6505 44.2292 14.1584 44.5108 14.9755 45.0092C15.9692 45.5942 17.3384 46.3958 19.7896 46.3958C22.2409 46.3958 23.6101 45.5942 24.6259 45.0092C25.443 44.5108 25.9288 44.2292 27.1655 44.2292C28.3801 44.2292 28.888 44.5325 29.7051 45.0092C30.6988 45.5942 32.068 46.3958 34.5192 46.3958C36.9705 46.3958 38.3176 45.5942 39.3334 45.0092C40.1505 44.5108 40.6363 44.2292 41.873 44.2292C43.0876 44.2292 43.5955 44.5325 44.4126 45.0092C45.4063 45.5942 46.7755 46.3958 49.2267 46.3958V42.0625C47.9901 42.0625 47.5042 41.7808 46.6871 41.2825C45.6934 40.6975 44.3242 39.8959 41.873 39.8959Z" fill="#1E5AB4"/>
<path d="M37.0809 18.2288C40.13 18.2288 42.6017 15.8037 42.6017 12.8122C42.6017 9.82063 40.13 7.39551 37.0809 7.39551C34.0318 7.39551 31.5601 9.82063 31.5601 12.8122C31.5601 15.8037 34.0318 18.2288 37.0809 18.2288Z" fill="#1E5AB4"/>
</svg>
