<svg width="54" height="54" viewBox="0 0 54 54" fill="none" xmlns="http://www.w3.org/2000/svg">
<path d="M34.6834 29.3042H20.2289V24.486H34.6834V29.3042ZM10.5925 14.8496V19.6678H5.77433V24.486C5.13539 24.486 4.52263 24.7398 4.07084 25.1916C3.61905 25.6434 3.36523 26.2561 3.36523 26.8951C3.36523 27.534 3.61905 28.1468 4.07084 28.5985C4.52263 29.0503 5.13539 29.3042 5.77433 29.3042V34.1223H10.5925V38.9405H17.8198V14.8496H10.5925ZM49.138 24.486V19.6678H44.3198V14.8496H37.0925V38.9405H44.3198V34.1223H49.138V29.3042C49.7769 29.3042 50.3897 29.0503 50.8414 28.5985C51.2932 28.1468 51.5471 27.534 51.5471 26.8951C51.5471 26.2561 51.2932 25.6434 50.8414 25.1916C50.3897 24.7398 49.7769 24.486 49.138 24.486Z" fill="#1E5AB4"/>
</svg>
