<svg width="54" height="54" viewBox="0 0 54 54" fill="none" xmlns="http://www.w3.org/2000/svg">
<path d="M34.6829 29.3618H20.2284V24.5436H34.6829V29.3618ZM10.592 14.9072V19.7254H5.77384V24.5436C5.13491 24.5436 4.52214 24.7974 4.07035 25.2492C3.61856 25.701 3.36475 26.3138 3.36475 26.9527C3.36475 27.5916 3.61856 28.2044 4.07035 28.6562C4.52214 29.108 5.13491 29.3618 5.77384 29.3618V34.18H10.592V38.9981H17.8193V14.9072H10.592ZM49.1375 24.5436V19.7254H44.3193V14.9072H37.092V38.9981H44.3193V34.18H49.1375V29.3618C49.7764 29.3618 50.3892 29.108 50.841 28.6562C51.2928 28.2044 51.5466 27.5916 51.5466 26.9527C51.5466 26.3138 51.2928 25.701 50.841 25.2492C50.3892 24.7974 49.7764 24.5436 49.1375 24.5436Z" fill="#1E5AB4"/>
</svg>
