<svg width="54" height="54" viewBox="0 0 54 54" fill="none" xmlns="http://www.w3.org/2000/svg">
<path d="M34.6829 29.3042H20.2284V24.486H34.6829V29.3042ZM10.592 14.8496V19.6678H5.77384V24.486C5.13491 24.486 4.52214 24.7398 4.07035 25.1916C3.61856 25.6434 3.36475 26.2561 3.36475 26.8951C3.36475 27.534 3.61856 28.1468 4.07035 28.5985C4.52214 29.0503 5.13491 29.3042 5.77384 29.3042V34.1223H10.592V38.9405H17.8193V14.8496H10.592ZM49.1375 24.486V19.6678H44.3193V14.8496H37.092V38.9405H44.3193V34.1223H49.1375V29.3042C49.7764 29.3042 50.3892 29.0503 50.841 28.5985C51.2928 28.1468 51.5466 27.534 51.5466 26.8951C51.5466 26.2561 51.2928 25.6434 50.841 25.1916C50.3892 24.7398 49.7764 24.486 49.1375 24.486Z" fill="#1E5AB4"/>
</svg>
