<svg width="54" height="54" viewBox="0 0 54 54" fill="none" xmlns="http://www.w3.org/2000/svg">
<path d="M34.6834 29.3618H20.2289V24.5436H34.6834V29.3618ZM10.5925 14.9072V19.7254H5.77433V24.5436C5.13539 24.5436 4.52263 24.7974 4.07084 25.2492C3.61905 25.701 3.36523 26.3138 3.36523 26.9527C3.36523 27.5916 3.61905 28.2044 4.07084 28.6562C4.52263 29.108 5.13539 29.3618 5.77433 29.3618V34.18H10.5925V38.9981H17.8198V14.9072H10.5925ZM49.138 24.5436V19.7254H44.3198V14.9072H37.0925V38.9981H44.3198V34.18H49.138V29.3618C49.7769 29.3618 50.3897 29.108 50.8414 28.6562C51.2932 28.2044 51.5471 27.5916 51.5471 26.9527C51.5471 26.3138 51.2932 25.701 50.8414 25.2492C50.3897 24.7974 49.7769 24.5436 49.138 24.5436Z" fill="#1E5AB4"/>
</svg>
