<svg width="54" height="54" viewBox="0 0 54 54" fill="none" xmlns="http://www.w3.org/2000/svg">
<path d="M34.6829 29.4174H20.2284V24.5993H34.6829V29.4174ZM10.592 14.9629V19.7811H5.77384V24.5993C5.13491 24.5993 4.52214 24.8531 4.07035 25.3049C3.61856 25.7567 3.36475 26.3694 3.36475 27.0083C3.36475 27.6473 3.61856 28.26 4.07035 28.7118C4.52214 29.1636 5.13491 29.4174 5.77384 29.4174V34.2356H10.592V39.0538H17.8193V14.9629H10.592ZM49.1375 24.5993V19.7811H44.3193V14.9629H37.092V39.0538H44.3193V34.2356H49.1375V29.4174C49.7764 29.4174 50.3892 29.1636 50.841 28.7118C51.2928 28.26 51.5466 27.6473 51.5466 27.0083C51.5466 26.3694 51.2928 25.7567 50.841 25.3049C50.3892 24.8531 49.7764 24.5993 49.1375 24.5993Z" fill="#1E5AB4"/>
</svg>
