<svg width="54" height="54" viewBox="0 0 54 54" fill="none" xmlns="http://www.w3.org/2000/svg">
<path d="M34.6834 29.4174H20.2289V24.5993H34.6834V29.4174ZM10.5925 14.9629V19.7811H5.77433V24.5993C5.13539 24.5993 4.52263 24.8531 4.07084 25.3049C3.61905 25.7567 3.36523 26.3694 3.36523 27.0083C3.36523 27.6473 3.61905 28.26 4.07084 28.7118C4.52263 29.1636 5.13539 29.4174 5.77433 29.4174V34.2356H10.5925V39.0538H17.8198V14.9629H10.5925ZM49.138 24.5993V19.7811H44.3198V14.9629H37.0925V39.0538H44.3198V34.2356H49.138V29.4174C49.7769 29.4174 50.3897 29.1636 50.8414 28.7118C51.2932 28.26 51.5471 27.6473 51.5471 27.0083C51.5471 26.3694 51.2932 25.7567 50.8414 25.3049C50.3897 24.8531 49.7769 24.5993 49.138 24.5993Z" fill="#1E5AB4"/>
</svg>
