<svg width="1318" height="681" viewBox="0 0 1318 681" fill="none" xmlns="http://www.w3.org/2000/svg">
<path d="M1286.52 0.769531H31.7059H31.6858C26.9494 0.769531 23.3702 0.769531 20.5089 0.968624C17.6389 1.16832 15.4539 1.57006 13.5123 2.3922C8.60843 4.46874 4.70506 8.37211 2.62853 13.276C1.80638 15.2176 1.40465 17.4026 1.20495 20.2725C1.00586 23.1339 1.00586 26.7131 1.00586 31.4495V31.4695V648.888V648.908C1.00586 653.644 1.00586 657.224 1.20495 660.085C1.40465 662.955 1.80638 665.14 2.62853 667.081C4.70506 671.985 8.60843 675.889 13.5123 677.965C15.4539 678.787 17.6389 679.189 20.5088 679.389C23.3698 679.588 26.9485 679.588 31.684 679.588H31.7058H1286.52H1286.54C1291.27 679.588 1294.85 679.588 1297.71 679.389C1300.58 679.189 1302.77 678.787 1304.71 677.965C1309.61 675.889 1313.52 671.985 1315.59 667.081C1316.42 665.14 1316.82 662.955 1317.02 660.085C1317.22 657.223 1317.22 653.643 1317.22 648.905V648.888V31.4695V31.4521C1317.22 26.7144 1317.22 23.1344 1317.02 20.2725C1316.82 17.4026 1316.42 15.2176 1315.59 13.276C1313.52 8.37211 1309.61 4.46874 1304.71 2.3922C1302.77 1.57006 1300.58 1.16832 1297.71 0.968624C1294.85 0.769531 1291.27 0.769531 1286.54 0.769531H1286.52Z" fill="white" stroke="url(#paint0_linear_1_139)" stroke-linejoin="round"/>
<defs>
<linearGradient id="paint0_linear_1_139" x1="688.889" y1="699.864" x2="641.841" y2="-128.811" gradientUnits="userSpaceOnUse">
<stop offset="0.00185975" stop-color="white"/>
<stop offset="0.1875" stop-color="#A1A1A1" stop-opacity="0.731837"/>
<stop offset="0.510417" stop-opacity="0.27"/>
<stop offset="0.734375" stop-color="#757575" stop-opacity="0.146489"/>
<stop offset="1" stop-color="white" stop-opacity="0"/>
</linearGradient>
</defs>
</svg>
