<svg width="1631" height="882" viewBox="0 0 1631 882" fill="none" xmlns="http://www.w3.org/2000/svg">
<path d="M1599.18 0.737305H31.5838H31.5637C26.8273 0.737304 23.2481 0.737304 20.3868 0.936397C17.5168 1.13609 15.3318 1.53783 13.3903 2.35997C8.48636 4.43651 4.58299 8.33988 2.50646 13.2438C1.68431 15.1853 1.28258 17.3703 1.08288 20.2403C0.883788 23.1016 0.883789 26.6809 0.883789 31.4172V31.4373V850.271V850.291C0.883789 855.028 0.883788 858.607 1.08288 861.468C1.28258 864.338 1.68431 866.523 2.50646 868.465C4.58299 873.369 8.48636 877.272 13.3903 879.349C15.3318 880.171 17.5168 880.572 20.3868 880.772C23.2486 880.971 26.8287 880.971 31.5663 880.971H31.5837H1599.18H1599.2C1603.94 880.971 1607.52 880.971 1610.38 880.772C1613.25 880.572 1615.44 880.171 1617.38 879.349C1622.28 877.272 1626.18 873.369 1628.26 868.465C1629.08 866.523 1629.49 864.338 1629.68 861.468C1629.88 858.608 1629.88 855.031 1629.88 850.297V850.271V31.4373V31.4113C1629.88 26.6778 1629.88 23.1004 1629.68 20.2403C1629.49 17.3703 1629.08 15.1853 1628.26 13.2438C1626.18 8.33988 1622.28 4.43651 1617.38 2.35997C1615.44 1.53783 1613.25 1.13609 1610.38 0.936397C1607.52 0.737304 1603.94 0.737304 1599.2 0.737305H1599.18Z" fill="white" stroke="#1E5AB4" stroke-linejoin="round"/>
</svg>
