<svg width="1695" height="1068" viewBox="0 0 1695 1068" fill="none" xmlns="http://www.w3.org/2000/svg">
<path d="M1663.5 0.736328H31.2703H31.2503C26.5139 0.736328 22.9346 0.736327 20.0733 0.93542C17.2033 1.13512 15.0184 1.53685 13.0768 2.359C8.17289 4.43553 4.26952 8.3389 2.19298 13.2428C1.37084 15.1844 0.9691 17.3693 0.769405 20.2393C0.570312 23.1006 0.570312 26.6799 0.570312 31.4162V31.4363V1036.09V1036.11C0.570312 1040.84 0.570312 1044.42 0.769405 1047.28C0.9691 1050.15 1.37084 1052.34 2.19298 1054.28C4.26952 1059.18 8.17289 1063.09 13.0768 1065.16C15.0184 1065.99 17.2033 1066.39 20.0733 1066.59C22.9351 1066.79 26.5152 1066.79 31.2529 1066.79H31.2702H1663.5H1663.51C1668.25 1066.79 1671.83 1066.79 1674.69 1066.59C1677.56 1066.39 1679.75 1065.99 1681.69 1065.16C1686.59 1063.09 1690.5 1059.18 1692.57 1054.28C1693.4 1052.34 1693.8 1050.15 1694 1047.28C1694.2 1044.42 1694.2 1040.84 1694.2 1036.1V1036.09V31.4363V31.4189C1694.2 26.6812 1694.2 23.1012 1694 20.2393C1693.8 17.3693 1693.4 15.1844 1692.57 13.2428C1690.5 8.3389 1686.59 4.43553 1681.69 2.359C1679.75 1.53685 1677.56 1.13512 1674.69 0.93542C1671.83 0.736327 1668.25 0.736328 1663.52 0.736328H1663.5Z" fill="white" stroke="black" stroke-linejoin="round"/>
</svg>
