<svg width="30" height="31" viewBox="0 0 30 31" fill="none" xmlns="http://www.w3.org/2000/svg">
<path fill-rule="evenodd" clip-rule="evenodd" d="M7.68292 26.2725C8.71822 26.2725 9.56068 27.1425 9.56068 28.2135C9.56068 29.2845 8.71822 30.156 7.68292 30.156C6.64762 30.156 5.80661 29.2845 5.80661 28.2135C5.80661 27.1425 6.64762 26.2725 7.68292 26.2725ZM24.0394 26.2725C25.0762 26.2725 25.9186 27.1425 25.9186 28.2135C25.9186 29.2845 25.0762 30.156 24.0394 30.156C23.0041 30.156 22.1631 29.2845 22.1631 28.2135C22.1631 27.1425 23.0041 26.2725 24.0394 26.2725ZM1.48299 0.858957L4.499 1.39896C4.98475 1.48746 5.3545 1.90446 5.39655 2.41445L5.7373 6.61595L7.00439 6.61651C7.21116 6.61661 7.41573 6.6167 7.61813 6.6168L9.94439 6.61794C10.1298 6.61804 10.3132 6.61813 10.4945 6.61823L13.063 6.61969C13.2244 6.61979 13.3838 6.61988 13.5413 6.61998L15.3412 6.62117C15.4838 6.62127 15.6246 6.62137 15.7636 6.62147L17.3467 6.62268C17.4717 6.62278 17.595 6.62288 17.7166 6.62298L19.097 6.62421C19.2055 6.62431 19.3125 6.62441 19.4179 6.62452L20.3252 6.62545C20.4214 6.62555 20.5162 6.62566 20.6095 6.62576L21.6601 6.62702C21.742 6.62713 21.8226 6.62724 21.9018 6.62734L22.7889 6.62862C22.8577 6.62873 22.9252 6.62884 22.9914 6.62895L23.5552 6.62992C23.6143 6.63003 23.6722 6.63014 23.729 6.63025L24.357 6.63156C24.405 6.63167 24.452 6.63178 24.4979 6.63189L24.8844 6.6329C24.9245 6.63301 24.9635 6.63312 25.0016 6.63323L25.416 6.63458C25.447 6.6347 25.4773 6.63481 25.5067 6.63492L25.75 6.63595C25.7747 6.63606 25.7987 6.63618 25.8219 6.63629L26.068 6.63768C26.0859 6.6378 26.1032 6.63791 26.1198 6.63803L26.254 6.63908C26.2672 6.6392 26.2799 6.63932 26.2921 6.63944L26.3886 6.6405C26.398 6.64062 26.4069 6.64074 26.4153 6.64086L26.481 6.64193C26.4872 6.64205 26.4931 6.64217 26.4986 6.64229L26.5402 6.64338C26.544 6.6435 26.5475 6.64363 26.5508 6.64375L26.5809 6.64522C26.5828 6.64534 26.5845 6.64546 26.5861 6.64559C26.6002 6.64695 26.6022 6.6472 26.6043 6.64745C27.412 6.76895 28.1225 7.20545 28.6068 7.87745C29.0911 8.54795 29.2941 9.37445 29.1781 10.2024L27.802 20.0394C27.5425 21.9114 25.9707 23.3229 24.1437 23.3229H8.30816C6.39851 23.3229 4.78175 21.7809 4.6266 19.8084L3.29839 3.46745L1.11323 3.07745C0.520182 2.96945 0.124331 2.38896 0.225831 1.77546C0.330232 1.16196 0.902984 0.762957 1.48299 0.858957ZM6.71349 8.86646L5.92 8.86595L6.79436 19.6239C6.85816 20.4519 7.51211 21.0729 8.31106 21.0729H24.1408C24.8962 21.0729 25.5415 20.4909 25.6488 19.7184L27.0263 9.87994C27.0582 9.64595 27.0016 9.41195 26.8639 9.22295C26.7276 9.03245 26.5275 8.90945 26.3013 8.87645C26.2908 8.87686 26.2658 8.87724 26.2269 8.87758L26.0692 8.87852C26.0362 8.87865 25.9999 8.87879 25.9604 8.87891L25.1389 8.8802C25.0696 8.88025 24.9976 8.8803 24.9229 8.88033L22.9915 8.88025C22.8837 8.88021 22.7739 8.88016 22.6622 8.88011L20.458 8.87873C20.3259 8.87863 20.1924 8.87852 20.0576 8.87842L18.8104 8.87738C18.6683 8.87726 18.5252 8.87714 18.3811 8.87701L17.06 8.87581C16.9108 8.87567 16.7609 8.87553 16.6104 8.87539L15.7004 8.87452C15.5477 8.87437 15.3946 8.87423 15.2411 8.87408L13.8524 8.87274C13.6976 8.87259 13.5426 8.87244 13.3877 8.87229L12.4588 8.87139C12.3042 8.87125 12.1497 8.8711 11.9956 8.87095L11.0745 8.87009C10.9218 8.86995 10.7695 8.86981 10.6177 8.86967L9.26847 8.86847C9.12068 8.86834 8.97368 8.86821 8.82757 8.86809L7.12248 8.86675C6.98488 8.86665 6.84852 8.86655 6.71349 8.86646ZM21.8119 12.1604C22.4122 12.1604 22.8994 12.6644 22.8994 13.2854C22.8994 13.9064 22.4122 14.4104 21.8119 14.4104H17.7925C17.1908 14.4104 16.705 13.9064 16.705 13.2854C16.705 12.6644 17.1908 12.1604 17.7925 12.1604H21.8119Z" fill="#4C3E33"/>
</svg>
