<svg width="30" height="30" viewBox="0 0 30 30" fill="none" xmlns="http://www.w3.org/2000/svg">
<path fill-rule="evenodd" clip-rule="evenodd" d="M3.54736 5.1754C3.55018 5.1754 3.47945 5.24896 3.39033 5.33667C3.04798 5.66911 2.33925 6.36087 2.3321 7.80806C2.32085 9.83242 3.65204 13.5911 10.0618 19.9995C16.4419 26.3767 20.1949 27.7235 22.2236 27.7235H22.2533C23.7004 27.7164 24.3908 27.0063 24.7247 26.6653C24.8265 26.5606 24.9086 26.4843 24.9666 26.4362C26.3755 25.0187 27.097 23.9634 27.09 23.2871C27.08 22.5968 26.2214 21.7805 25.0345 20.6517C24.6568 20.2923 24.2465 19.9019 23.8136 19.469C22.6918 18.35 22.1358 18.541 20.9136 18.9711C19.2231 19.5638 16.9031 20.3701 13.2985 16.7642C9.68835 13.1568 10.4961 10.8397 11.0874 9.14914C11.5147 7.92689 11.7099 7.36952 10.5866 6.24628C10.1467 5.80774 9.75201 5.39184 9.38844 5.00988C8.26663 3.83006 7.45745 2.97703 6.77134 2.96713H6.76002C6.08241 2.96713 5.02991 3.69143 3.54028 5.18105C3.54453 5.17681 3.54594 5.1754 3.54736 5.1754ZM22.225 29.8455C18.6997 29.8455 14.1035 27.0388 8.56229 21.5004C2.99989 15.9395 0.188978 11.3291 0.210079 7.79674C0.22293 5.46257 1.4466 4.26719 1.90636 3.81875C1.93041 3.78904 2.01246 3.7084 2.04075 3.68011C4.06936 1.65009 5.43733 0.829593 6.79822 0.844938C8.37838 0.866374 9.50303 2.04902 10.9262 3.54713C11.2784 3.91777 11.6604 4.32095 12.0862 4.74534C14.1516 6.81073 13.5631 8.49558 13.0906 9.84798C12.5756 11.3235 12.13 12.5966 14.7981 15.2647C17.4689 17.9327 18.7421 17.4871 20.2119 16.9679C21.5657 16.4954 23.2463 15.9041 25.3146 17.9695C25.7333 18.3882 26.1308 18.7659 26.4972 19.1153C28.0024 20.5456 29.1907 21.6759 29.2108 23.2603C29.2275 24.6113 28.407 25.9877 26.3812 28.0149L25.4843 27.4066L26.2426 28.1479C25.7941 28.6076 24.6002 29.8327 22.2646 29.8455H22.225Z" fill="#4C3E33"/>
</svg>
