<svg width="35" height="35" viewBox="0 0 35 35" fill="none" xmlns="http://www.w3.org/2000/svg">
<g clip-path="url(#clip0_205_221)">
<path d="M34.6278 14.2233L18.0373 2.07605C17.8814 1.96192 17.6933 1.90039 17.5001 1.90039C17.3069 1.90039 17.1188 1.96192 16.9629 2.07605L0.372256 14.2233C-0.032978 14.52 -0.121025 15.0891 0.175723 15.4943C0.472471 15.8995 1.04156 15.9875 1.44673 15.6908L17.5 3.93686L33.5534 15.6908C33.7089 15.805 33.8968 15.8666 34.0898 15.8665C34.3698 15.8665 34.6461 15.7376 34.8243 15.4942C35.1211 15.0891 35.0331 14.52 34.6278 14.2233Z" fill="#4C3E33"/>
<path d="M30.232 15.8965C29.7298 15.8965 29.3226 16.3036 29.3226 16.8059V31.2809H22.0477V23.3795C22.0477 20.8721 20.0077 18.8322 17.5004 18.8322C14.9931 18.8322 12.9532 20.8722 12.9532 23.3795V31.281H5.67814V16.8059C5.67814 16.3037 5.27093 15.8966 4.76876 15.8966C4.26659 15.8966 3.85938 16.3037 3.85938 16.8059V32.1904C3.85938 32.6927 4.26659 33.0998 4.76876 33.0998H13.8625C14.3408 33.0998 14.7321 32.7303 14.7684 32.2612C14.7706 32.24 14.7719 32.2167 14.7719 32.1904V23.3796C14.7719 21.8751 15.9959 20.6511 17.5004 20.6511C19.0049 20.6511 20.2289 21.8751 20.2289 23.3796V32.1904C20.2289 32.2166 20.2303 32.2394 20.2325 32.2604C20.2683 32.7298 20.6598 33.0998 21.1383 33.0998H30.2321C30.7343 33.0998 31.1415 32.6927 31.1415 32.1904V16.8059C31.1414 16.3036 30.7342 15.8965 30.232 15.8965Z" fill="#4C3E33"/>
</g>
<defs>
<clipPath id="clip0_205_221">
<rect width="35" height="35" fill="white"/>
</clipPath>
</defs>
</svg>
