<svg width="273" height="77" viewBox="0 0 273 77" fill="none" xmlns="http://www.w3.org/2000/svg">
<path d="M63.585 67.4297C61.8561 67.4297 60.2879 67.139 58.8804 66.5576C57.4881 65.9609 56.2871 65.1271 55.2773 64.0562C54.2829 62.9852 53.5179 61.7153 52.9824 60.2466C52.4469 58.7778 52.1792 57.1714 52.1792 55.4272V54.4634C52.1792 52.4438 52.4775 50.6462 53.0742 49.0703C53.6709 47.4792 54.4818 46.1328 55.5068 45.0312C56.5319 43.9297 57.6947 43.0959 58.9951 42.5298C60.2956 41.9637 61.6419 41.6807 63.0342 41.6807C64.8089 41.6807 66.3389 41.9867 67.624 42.5986C68.9245 43.2106 69.9878 44.0674 70.814 45.1689C71.6401 46.2552 72.2521 47.5404 72.6499 49.0244C73.0477 50.4932 73.2466 52.0996 73.2466 53.8438V55.7485H54.7036V52.2832H69.001V51.9619C68.9398 50.8604 68.7103 49.7894 68.3125 48.749C67.93 47.7087 67.318 46.8519 66.4766 46.1787C65.6351 45.5055 64.4876 45.1689 63.0342 45.1689C62.0703 45.1689 61.1829 45.3755 60.3721 45.7886C59.5612 46.1864 58.8651 46.783 58.2837 47.5786C57.7023 48.3742 57.251 49.3457 56.9297 50.4932C56.6084 51.6406 56.4478 52.964 56.4478 54.4634V55.4272C56.4478 56.6053 56.6084 57.7145 56.9297 58.7549C57.2663 59.7799 57.7482 60.6826 58.3755 61.4629C59.0181 62.2432 59.7907 62.8551 60.6934 63.2988C61.6113 63.7425 62.6517 63.9644 63.8145 63.9644C65.3138 63.9644 66.5837 63.6584 67.624 63.0464C68.6644 62.4344 69.5747 61.6159 70.355 60.5908L72.9253 62.6333C72.3898 63.4442 71.709 64.2168 70.8828 64.9512C70.0566 65.6855 69.0392 66.2822 67.8306 66.7412C66.6372 67.2002 65.222 67.4297 63.585 67.4297ZM92.6616 60.3843C92.6616 59.7723 92.5239 59.2062 92.2485 58.686C91.9884 58.1506 91.4453 57.6686 90.6191 57.2402C89.8083 56.7965 88.5843 56.4141 86.9473 56.0928C85.5703 55.8021 84.3234 55.4578 83.2065 55.0601C82.105 54.6623 81.1641 54.1803 80.3838 53.6143C79.6188 53.0482 79.0298 52.3826 78.6167 51.6177C78.2036 50.8527 77.9971 49.9577 77.9971 48.9326C77.9971 47.9535 78.2113 47.0278 78.6396 46.1558C79.0833 45.2837 79.703 44.5111 80.4985 43.8379C81.3094 43.1647 82.2809 42.6369 83.4131 42.2544C84.5452 41.8719 85.8075 41.6807 87.1997 41.6807C89.1886 41.6807 90.8869 42.0326 92.2944 42.7363C93.702 43.4401 94.7806 44.381 95.5303 45.5591C96.2799 46.7218 96.6548 48.0146 96.6548 49.4375H92.4092C92.4092 48.749 92.2026 48.0835 91.7896 47.4409C91.3918 46.783 90.8027 46.2399 90.0225 45.8115C89.2575 45.3831 88.3166 45.1689 87.1997 45.1689C86.0216 45.1689 85.0654 45.3525 84.3311 45.7197C83.612 46.0716 83.0841 46.5229 82.7476 47.0737C82.4263 47.6245 82.2656 48.2059 82.2656 48.8179C82.2656 49.2769 82.3421 49.6899 82.4951 50.0571C82.6634 50.409 82.9541 50.738 83.3672 51.0439C83.7803 51.3346 84.3617 51.61 85.1113 51.8701C85.861 52.1302 86.8172 52.3903 87.98 52.6504C90.0148 53.1094 91.6901 53.6602 93.0059 54.3027C94.3216 54.9453 95.3008 55.7332 95.9434 56.6665C96.5859 57.5998 96.9072 58.7319 96.9072 60.063C96.9072 61.1493 96.6777 62.1437 96.2188 63.0464C95.7751 63.9491 95.1248 64.7293 94.2681 65.3872C93.4266 66.0298 92.4168 66.5347 91.2388 66.9019C90.076 67.2537 88.7679 67.4297 87.3145 67.4297C85.1266 67.4297 83.2754 67.0396 81.7607 66.2593C80.2461 65.479 79.0986 64.4692 78.3184 63.23C77.5381 61.9907 77.1479 60.6826 77.1479 59.3057H81.4165C81.4777 60.4684 81.8143 61.394 82.4263 62.0825C83.0382 62.7557 83.7879 63.2376 84.6753 63.5283C85.5627 63.8037 86.4424 63.9414 87.3145 63.9414C88.4772 63.9414 89.4487 63.7884 90.229 63.4824C91.0246 63.1764 91.6289 62.7557 92.042 62.2202C92.4551 61.6847 92.6616 61.0728 92.6616 60.3843ZM117.676 61.2334V42.1396H121.945V66.9707H117.883L117.676 61.2334ZM118.479 56.001L120.247 55.9551C120.247 57.6074 120.071 59.1374 119.719 60.5449C119.382 61.9372 118.831 63.1458 118.066 64.1709C117.301 65.196 116.299 65.9992 115.06 66.5806C113.821 67.1466 112.314 67.4297 110.539 67.4297C109.33 67.4297 108.221 67.2537 107.211 66.9019C106.217 66.55 105.36 66.0068 104.641 65.2725C103.922 64.5381 103.364 63.5819 102.966 62.4038C102.583 61.2257 102.392 59.8105 102.392 58.1582V42.1396H106.638V58.2041C106.638 59.321 106.76 60.2466 107.005 60.981C107.265 61.7 107.609 62.2738 108.038 62.7021C108.481 63.1152 108.971 63.4059 109.506 63.5742C110.057 63.7425 110.623 63.8267 111.205 63.8267C113.01 63.8267 114.44 63.4824 115.496 62.7939C116.552 62.0902 117.309 61.1493 117.768 59.9712C118.242 58.7778 118.479 57.4544 118.479 56.001ZM132.639 47.0737V66.9707H128.371V42.1396H132.41L132.639 47.0737ZM131.767 53.6143L129.793 53.5454C129.809 51.8472 130.031 50.279 130.459 48.8408C130.887 47.3874 131.522 46.1252 132.364 45.0542C133.205 43.9832 134.253 43.1571 135.508 42.5757C136.762 41.979 138.216 41.6807 139.868 41.6807C141.031 41.6807 142.102 41.849 143.081 42.1855C144.06 42.5068 144.909 43.0194 145.628 43.7231C146.347 44.4269 146.906 45.3296 147.304 46.4312C147.701 47.5327 147.9 48.8638 147.9 50.4243V66.9707H143.655V50.6309C143.655 49.3304 143.433 48.29 142.989 47.5098C142.561 46.7295 141.949 46.1634 141.153 45.8115C140.358 45.4443 139.424 45.2607 138.354 45.2607C137.099 45.2607 136.051 45.4826 135.209 45.9263C134.368 46.37 133.695 46.9819 133.19 47.7622C132.685 48.5425 132.318 49.4375 132.088 50.4473C131.874 51.4417 131.767 52.4974 131.767 53.6143ZM147.854 51.2734L145.009 52.1455C145.024 50.7839 145.246 49.4757 145.674 48.2212C146.118 46.9666 146.753 45.8498 147.579 44.8706C148.421 43.8914 149.453 43.1188 150.677 42.5527C151.901 41.9714 153.301 41.6807 154.877 41.6807C156.208 41.6807 157.386 41.8566 158.411 42.2085C159.451 42.5604 160.324 43.1035 161.027 43.8379C161.746 44.557 162.29 45.4826 162.657 46.6147C163.024 47.7469 163.208 49.0933 163.208 50.6538V66.9707H158.939V50.6079C158.939 49.2157 158.717 48.137 158.273 47.3721C157.845 46.5918 157.233 46.0487 156.438 45.7427C155.657 45.4214 154.724 45.2607 153.638 45.2607C152.704 45.2607 151.878 45.4214 151.159 45.7427C150.44 46.064 149.836 46.5076 149.346 47.0737C148.857 47.6245 148.482 48.2594 148.222 48.9785C147.977 49.6976 147.854 50.4626 147.854 51.2734ZM179.938 67.4297C178.209 67.4297 176.64 67.139 175.233 66.5576C173.841 65.9609 172.64 65.1271 171.63 64.0562C170.635 62.9852 169.87 61.7153 169.335 60.2466C168.799 58.7778 168.532 57.1714 168.532 55.4272V54.4634C168.532 52.4438 168.83 50.6462 169.427 49.0703C170.023 47.4792 170.834 46.1328 171.859 45.0312C172.884 43.9297 174.047 43.0959 175.348 42.5298C176.648 41.9637 177.994 41.6807 179.387 41.6807C181.161 41.6807 182.691 41.9867 183.977 42.5986C185.277 43.2106 186.34 44.0674 187.167 45.1689C187.993 46.2552 188.605 47.5404 189.002 49.0244C189.4 50.4932 189.599 52.0996 189.599 53.8438V55.7485H171.056V52.2832H185.354V51.9619C185.292 50.8604 185.063 49.7894 184.665 48.749C184.283 47.7087 183.671 46.8519 182.829 46.1787C181.988 45.5055 180.84 45.1689 179.387 45.1689C178.423 45.1689 177.535 45.3755 176.725 45.7886C175.914 46.1864 175.218 46.783 174.636 47.5786C174.055 48.3742 173.604 49.3457 173.282 50.4932C172.961 51.6406 172.8 52.964 172.8 54.4634V55.4272C172.8 56.6053 172.961 57.7145 173.282 58.7549C173.619 59.7799 174.101 60.6826 174.728 61.4629C175.371 62.2432 176.143 62.8551 177.046 63.2988C177.964 63.7425 179.004 63.9644 180.167 63.9644C181.666 63.9644 182.936 63.6584 183.977 63.0464C185.017 62.4344 185.927 61.6159 186.708 60.5908L189.278 62.6333C188.742 63.4442 188.062 64.2168 187.235 64.9512C186.409 65.6855 185.392 66.2822 184.183 66.7412C182.99 67.2002 181.575 67.4297 179.938 67.4297ZM219.227 36.5171L208.165 66.9707H203.644L216.381 33.5566H219.295L219.227 36.5171ZM228.498 66.9707L217.414 36.5171L217.345 33.5566H220.259L233.042 66.9707H228.498ZM227.924 54.6011V58.2271H209.152V54.6011H227.924ZM241.12 46.041V66.9707H236.875V42.1396H241.005L241.12 46.041ZM248.877 42.002L248.854 45.9492C248.502 45.8727 248.166 45.8268 247.844 45.8115C247.538 45.7809 247.186 45.7656 246.789 45.7656C245.809 45.7656 244.945 45.9186 244.195 46.2246C243.446 46.5306 242.811 46.959 242.291 47.5098C241.77 48.0605 241.357 48.7184 241.051 49.4834C240.761 50.2331 240.569 51.0592 240.478 51.9619L239.284 52.6504C239.284 51.151 239.43 49.7435 239.72 48.4277C240.026 47.112 240.493 45.9492 241.12 44.9395C241.747 43.9144 242.543 43.1188 243.507 42.5527C244.486 41.9714 245.649 41.6807 246.995 41.6807C247.301 41.6807 247.653 41.7189 248.051 41.7954C248.449 41.8566 248.724 41.9255 248.877 42.002ZM264.345 42.1396V45.3984H250.919V42.1396H264.345ZM255.463 36.104H259.709V60.8203C259.709 61.6618 259.839 62.2967 260.099 62.7251C260.359 63.1535 260.696 63.4365 261.109 63.5742C261.522 63.7119 261.966 63.7808 262.44 63.7808C262.792 63.7808 263.159 63.7502 263.542 63.689C263.939 63.6125 264.238 63.5513 264.437 63.5054L264.459 66.9707C264.123 67.0778 263.679 67.1772 263.128 67.269C262.593 67.3761 261.943 67.4297 261.178 67.4297C260.137 67.4297 259.181 67.2231 258.309 66.8101C257.437 66.397 256.741 65.7085 256.221 64.7446C255.716 63.7655 255.463 62.4497 255.463 60.7974V36.104Z" fill="#474747"/>
<path d="M18.6023 53.867L2.42578 23.2934V66.9699H16.1758V53.867H18.6023Z" fill="#FDA700"/>
<path d="M37.6905 48.8523L20.7052 16.661C31.0582 15.2375 36.3771 20.764 37.6905 22.161C45.8524 30.8423 41.8964 44.1072 37.6905 48.8523Z" fill="#FDA700"/>
<path d="M2.42648 14.8824L0 0L12.1324 9.70589L2.42648 14.8824Z" fill="#1E5AB4"/>
<path d="M13.9118 13.2647L4.20589 18.4412L30.4118 66.9706H43.0295L13.9118 13.2647Z" fill="#1E5AB4"/>
</svg>
